<svg width="312" height="312" viewBox="0 0 312 312" fill="none" xmlns="http://www.w3.org/2000/svg">
<path d="M46.0256 137.392C45.9595 135.336 46.0213 133.279 46.2105 131.231C46.754 124.626 47.952 118.091 49.787 111.723C51.5987 105.47 53.7489 99.3196 56.2281 93.2997C56.9184 91.484 57.729 89.7163 58.6546 88.0085C58.8339 87.6368 59.1366 87.3387 59.5111 87.1652C59.8856 86.9917 60.3086 86.9535 60.7081 87.057C60.8702 87.0869 61.0302 87.1269 61.1873 87.1768C62.676 87.6465 64.0996 88.3019 65.4243 89.1277C66.5264 89.8122 66.7523 90.4967 66.2355 91.698C65.6536 93.0669 65.0273 94.3949 64.3907 95.7262C61.3939 101.939 58.8323 108.352 56.7243 114.92C55.7478 118.195 54.9729 121.526 54.4039 124.896C53.959 127.319 53.5825 129.753 53.3087 132.196C53.0486 134.503 52.8227 136.813 52.7235 139.141C52.6619 140.588 52.5934 142.033 52.6002 143.484C52.6098 148.421 53.5623 153.312 55.4067 157.892C56.0888 159.688 57.0599 161.36 58.2816 162.841C60.0326 164.883 62.4646 166.221 65.1266 166.606C68.6066 167.178 72.1776 166.742 75.418 165.35C79.063 163.817 82.263 161.561 85.3227 159.124C87.4891 157.413 89.5255 155.541 91.5893 153.707C93.7797 151.766 95.9838 149.843 98.1707 147.889C99.5158 146.687 100.833 145.452 102.179 144.25C103.919 142.627 105.776 141.132 107.733 139.777C108.184 139.44 108.73 139.253 109.293 139.243C109.857 139.233 110.409 139.401 110.872 139.722C111.848 140.328 112.78 141.004 113.658 141.745C113.827 141.884 113.984 142.037 114.126 142.204C114.77 142.953 114.811 143.59 114.311 144.449C113.079 146.523 111.915 148.631 110.854 150.791C109.838 152.742 109.345 154.924 109.424 157.122C109.461 158.363 109.736 159.586 110.235 160.723C111.234 162.91 113.449 164.019 115.93 163.632C117.982 163.274 119.982 162.666 121.885 161.822C124.965 160.531 127.871 158.882 130.756 157.201C134.634 154.946 138.536 152.728 142.42 150.483C145.949 148.429 149.464 146.376 152.999 144.35C156.298 142.457 159.55 140.482 162.976 138.815C163.933 138.344 164.942 137.983 165.981 137.737C167.969 137.275 169.537 138.062 170.803 139.493C171.641 140.438 171.32 142.125 170.228 143.011C169.67 143.456 169.063 143.834 168.417 144.137C166.34 145.123 164.249 146.075 162.192 147.098C159.572 148.415 157.139 150.075 154.957 152.033C154.118 152.775 153.334 153.575 152.609 154.429C151.552 155.624 150.842 157.086 150.555 158.656C150.282 160.261 151.24 161.233 152.828 160.938C154.413 160.61 155.931 160.016 157.318 159.183C160.362 157.393 163.232 155.324 165.892 153.002C167.654 151.506 169.146 149.761 170.683 148.066C171.569 147.094 172.518 146.814 173.681 147.42C174.698 147.912 175.553 148.685 176.145 149.648C176.751 150.674 176.758 151.52 176.012 152.454C175.266 153.388 174.434 154.271 173.678 155.192C172.429 156.649 171.358 158.248 170.485 159.956C170.326 160.273 170.196 160.604 170.098 160.945C169.667 162.612 170.752 163.861 172.463 163.656C173.306 163.539 174.123 163.284 174.882 162.899C176.909 161.871 178.853 160.686 180.694 159.354C183.483 157.424 186.17 155.329 188.877 153.303C189.606 152.762 190.38 152.307 191.352 152.358C191.606 152.355 191.858 152.406 192.091 152.508C192.324 152.609 192.533 152.759 192.704 152.948C192.875 153.136 193.004 153.358 193.083 153.6C193.162 153.842 193.189 154.097 193.162 154.35C193.1 155.063 192.865 155.75 192.477 156.352C191.794 157.476 190.99 158.523 190.082 159.474C187.898 161.748 185.49 163.796 182.895 165.586C180.759 167.09 178.279 168.032 175.683 168.324C173.778 168.578 171.839 168.343 170.05 167.64C168.951 167.199 167.984 166.484 167.24 165.562C166.682 164.878 166.155 164.193 165.611 163.509C165.067 162.824 164.783 162.715 164.019 163.166C161.522 164.609 158.747 165.504 155.877 165.795C154.023 166.017 152.142 165.867 150.347 165.354C148.187 164.707 146.64 163.3 145.555 161.342C145.075 160.513 144.675 159.64 144.361 158.734C144.313 158.578 144.248 158.427 144.166 158.286C144.129 158.189 144.071 158.102 143.995 158.031C143.92 157.96 143.829 157.907 143.73 157.876C143.632 157.845 143.527 157.837 143.424 157.852C143.322 157.867 143.224 157.906 143.139 157.964C142.849 158.119 142.571 158.293 142.304 158.484C138.942 160.775 135.415 162.813 131.752 164.583C128.141 166.315 124.432 167.79 120.458 168.526C118.313 168.981 116.107 169.074 113.931 168.8C110.704 168.324 108.154 166.698 106.135 164.203C104.478 162.117 103.267 159.713 102.576 157.14C102.213 155.863 102.233 155.89 101.244 156.797C97.6552 160.21 93.8333 163.368 89.8062 166.25C87.6951 167.758 85.4707 169.1 83.1528 170.265C81.0776 171.264 78.8576 171.929 76.5748 172.236C74.6802 172.52 72.7633 172.626 70.849 172.554C65.4243 172.311 60.5815 170.528 56.4334 166.979C52.8638 163.933 50.4749 160.103 48.8355 155.757C47.5399 152.178 46.7005 148.45 46.3371 144.661C46.073 142.247 45.9689 139.819 46.0256 137.392Z" fill="#81BECD"/>
<path d="M201.719 148.162C201.815 146.523 201.995 144.889 202.256 143.268C202.779 139.508 203.31 135.743 203.851 131.974C204.36 128.403 204.879 124.833 205.408 121.265C205.453 120.747 205.542 120.234 205.675 119.731C205.953 118.879 206.548 118.557 207.387 118.862C208.591 119.333 209.64 120.13 210.416 121.165C211.86 122.942 212.069 124.93 211.661 127.127C210.864 131.371 210.292 135.656 209.721 139.934C209.351 142.643 209.042 145.357 208.793 148.076C208.74 148.868 208.727 149.662 208.756 150.455C208.748 151.084 208.675 151.71 208.537 152.324C208.321 153.412 207.681 153.724 206.675 153.265C205.961 152.907 205.275 152.498 204.621 152.04C204.002 151.639 203.43 151.164 202.804 150.777C202.427 150.549 202.122 150.219 201.923 149.826C201.725 149.432 201.641 148.991 201.681 148.552C201.722 148.436 201.719 148.299 201.719 148.162Z" fill="#81BECD"/>
<path d="M110.512 123.8C110.101 123.8 109.691 123.779 109.283 123.8C108.967 123.829 108.65 123.757 108.376 123.596C108.103 123.434 107.888 123.191 107.76 122.9C107.522 122.439 107.308 121.966 107.12 121.483C106.737 120.517 106.436 119.521 106.22 118.505C105.981 117.396 106.497 116.763 107.627 116.719C108.119 116.697 108.611 116.759 109.081 116.904C112.391 117.93 115.711 118.957 119.089 119.754C119.513 119.857 119.944 119.936 120.365 120.052C120.469 120.063 120.568 120.096 120.658 120.149C120.747 120.202 120.824 120.274 120.883 120.359C120.942 120.445 120.982 120.542 121 120.644C121.019 120.747 121.014 120.852 120.988 120.952C120.988 121.141 120.93 121.329 120.916 121.52C120.912 121.755 120.824 121.981 120.669 122.156C120.513 122.332 120.3 122.446 120.068 122.479C118.873 122.777 117.672 123.002 116.453 123.215C114.491 123.565 112.505 123.761 110.512 123.8Z" fill="#81BECD"/>
<path d="M205.757 166.799C205.059 166.75 204.382 166.532 203.786 166.165C202.233 165.114 201.052 163.599 200.411 161.836C200.284 161.474 200.223 161.093 200.23 160.71C200.23 159.427 201.291 158.684 202.458 159.173C204.22 159.87 205.815 160.933 207.136 162.291C208.314 163.537 208.31 165.029 207.136 166.237C206.956 166.419 206.741 166.563 206.504 166.66C206.267 166.756 206.013 166.803 205.757 166.799Z" fill="#81BECD"/>
<path d="M120.459 188.691V176.489H121.527V181.216C121.712 180.942 121.933 180.695 122.184 180.48C122.768 179.939 123.595 179.674 124.665 179.686C125.151 179.667 125.634 179.761 126.078 179.96C126.521 180.159 126.913 180.457 127.222 180.832C127.952 181.751 128.33 182.901 128.289 184.074C128.289 185.611 127.855 186.834 126.985 187.743C126.652 188.086 126.252 188.357 125.809 188.539C125.366 188.72 124.89 188.808 124.412 188.797C123.943 188.816 123.477 188.729 123.047 188.541C122.618 188.353 122.237 188.069 121.934 187.712C121.787 187.527 121.65 187.37 121.527 187.192V188.691H120.459ZM124.241 180.726C123.873 180.726 123.51 180.803 123.174 180.953C122.838 181.102 122.538 181.322 122.293 181.596C121.865 182.064 121.609 182.79 121.527 183.765V184.714C121.559 185.423 121.817 186.104 122.262 186.657C122.913 187.38 123.59 187.746 124.316 187.756C124.691 187.766 125.064 187.699 125.413 187.56C125.761 187.42 126.077 187.211 126.342 186.945C126.938 186.347 127.235 185.39 127.235 184.074C127.262 183.148 126.936 182.247 126.325 181.551C126.062 181.269 125.741 181.048 125.382 180.906C125.024 180.763 124.639 180.702 124.254 180.726" fill="#81BECD"/>
<path d="M133.863 187.85L130.04 179.81H131.105L134.387 186.628L137.337 179.81H138.401L134.777 188.154C134.321 189.14 133.892 189.754 133.49 189.996C133.133 190.22 132.72 190.339 132.299 190.338H131.012V189.311H132.251C132.867 189.311 133.367 188.942 133.743 188.178L133.863 187.85Z" fill="#81BECD"/>
<path d="M152.02 188.693V183.217C152.02 182.37 151.847 181.749 151.5 181.352C151.153 180.955 150.594 180.741 149.823 180.712C149.394 180.694 148.971 180.814 148.615 181.054C148.259 181.328 147.983 181.692 147.814 182.108C147.666 182.511 147.582 182.935 147.564 183.364V188.7H146.496V179.801H147.564V180.965C147.708 180.689 147.912 180.448 148.16 180.26C148.731 179.84 149.425 179.62 150.134 179.634C150.674 179.628 151.208 179.753 151.688 180C152.102 180.228 152.449 180.561 152.694 180.965C152.736 181.033 152.773 181.104 152.804 181.177C152.985 180.861 153.216 180.577 153.489 180.335C154.108 179.873 154.865 179.632 155.638 179.651C156.178 179.64 156.713 179.766 157.192 180.017C157.618 180.235 157.974 180.57 158.218 180.982C158.489 181.389 158.622 182.139 158.612 183.227V188.703H157.544V183.227C157.544 182.381 157.371 181.759 157.024 181.362C156.805 181.134 156.537 180.958 156.241 180.847C155.945 180.736 155.628 180.693 155.313 180.722C154.895 180.708 154.483 180.827 154.139 181.064C153.769 181.325 153.49 181.693 153.338 182.118C153.191 182.522 153.105 182.945 153.085 183.374V188.71L152.02 188.693Z" fill="#81BECD"/>
<path d="M161.871 176.489H163.048V177.776H161.871V176.489ZM161.936 179.792H163V188.691H161.936V179.792Z" fill="#81BECD"/>
<path d="M166.139 188.692V179.793H167.206V180.916C167.36 180.685 167.558 180.488 167.788 180.334C168.497 179.863 169.334 179.624 170.184 179.65C170.78 179.639 171.372 179.764 171.912 180.016C172.369 180.23 172.759 180.563 173.042 180.981C173.343 181.387 173.489 182.136 173.48 183.226V188.702H172.412V183.226C172.412 182.38 172.209 181.758 171.803 181.361C171.382 180.933 170.725 180.721 169.825 180.721C169.337 180.705 168.853 180.823 168.428 181.063C168.025 181.319 167.704 181.685 167.501 182.117C167.34 182.53 167.24 182.963 167.203 183.404V188.709L166.139 188.692Z" fill="#81BECD"/>
<path d="M179.577 187.85L175.748 179.81H176.815L180.094 186.628L183.044 179.81H184.116L180.488 188.154C180.031 189.14 179.602 189.754 179.201 189.996C178.843 190.22 178.429 190.339 178.006 190.338H176.72V189.311H177.955C178.571 189.311 179.067 188.942 179.444 188.178L179.577 187.85Z" fill="#81BECD"/>
<path d="M186.348 186.734C185.984 185.924 185.808 185.042 185.831 184.154C185.807 183.284 186.013 182.424 186.427 181.659C186.788 181.064 187.288 180.566 187.885 180.208C188.54 179.842 189.285 179.668 190.034 179.704C190.748 179.683 191.455 179.846 192.088 180.177C192.679 180.491 193.169 180.965 193.501 181.546C193.951 182.374 194.173 183.307 194.145 184.25C194.175 185.056 194.03 185.859 193.72 186.604C193.44 187.236 192.988 187.776 192.416 188.165C191.711 188.582 190.908 188.808 190.089 188.822C189.269 188.835 188.46 188.634 187.741 188.24C187.149 187.876 186.666 187.358 186.345 186.741L186.348 186.734ZM187.351 182.155C187.027 182.773 186.869 183.464 186.892 184.161C186.869 184.862 187.015 185.56 187.317 186.193C187.573 186.653 187.934 187.046 188.371 187.34C188.859 187.632 189.418 187.785 189.986 187.782C190.616 187.813 191.241 187.648 191.773 187.309C192.216 187.034 192.562 186.627 192.762 186.146C192.992 185.541 193.099 184.896 193.077 184.25C193.117 183.558 192.977 182.868 192.67 182.247C192.427 181.823 192.088 181.462 191.681 181.193C191.181 180.916 190.621 180.765 190.05 180.752C189.479 180.739 188.914 180.864 188.402 181.118C187.968 181.362 187.605 181.716 187.351 182.145" fill="#81BECD"/>
<path d="M204.026 179.794V188.693H202.958V187.057C202.686 187.51 202.322 187.9 201.89 188.204C201.254 188.623 200.502 188.832 199.741 188.799C198.714 188.799 197.971 188.532 197.482 188.005C196.959 187.423 196.692 186.541 196.681 185.359V179.794H197.749V185.366C197.71 186 197.904 186.626 198.296 187.125C198.664 187.543 199.244 187.756 200.038 187.765C200.745 187.79 201.435 187.546 201.969 187.081C202.292 186.788 202.548 186.429 202.719 186.028C202.889 185.626 202.971 185.193 202.958 184.757V179.794H204.026Z" fill="#81BECD"/>
<path d="M207.048 188.692V179.793H208.112V180.916C208.265 180.685 208.463 180.488 208.694 180.334C209.402 179.863 210.239 179.624 211.09 179.65C211.68 179.641 212.265 179.767 212.801 180.016C213.258 180.23 213.648 180.563 213.93 180.981C214.231 181.387 214.377 182.136 214.368 183.226V188.702H213.301V183.226C213.301 182.38 213.097 181.758 212.691 181.361C212.27 180.933 211.613 180.721 210.713 180.721C210.225 180.705 209.742 180.823 209.317 181.063C208.914 181.319 208.592 181.685 208.389 182.117C208.229 182.53 208.128 182.963 208.091 183.404V188.709L207.048 188.692Z" fill="#81BECD"/>
<path d="M121.337 220.14V223.87C121.337 224.456 120.994 224.75 120.31 224.757H119.625L119.4 224.072H120.19C120.426 224.072 120.532 223.966 120.56 223.751V220.349L119.256 220.728L119.057 220.075L120.56 219.661V216.663H119.15V215.978H120.56V213.966H121.337V215.978H122.627V216.663H121.337V219.442L122.572 219.099V219.784L121.337 220.14ZM126.275 215.519V217.001H127.196V217.686H122.678V217.001H123.561V215.519H122.853V214.835H123.578V213.972H124.355V214.835H125.526V213.972H126.275V214.835H126.987V215.519H126.275ZM122.853 224.825V218.518H126.997V223.87C126.997 224.456 126.655 224.75 125.971 224.757H125.064L124.841 224.072H125.841C126.077 224.072 126.2 223.966 126.21 223.751V222.635H123.616V224.818L122.853 224.825ZM126.224 219.195H123.63V220.273H126.224V219.195ZM126.224 220.944H123.63V221.971H126.224V220.944ZM124.314 217.001H125.485V215.519H124.314V217.001ZM126.974 218.138C127.631 217.09 128.078 215.688 128.315 213.931L129.051 214.003L128.87 215.3H131.344V215.985H130.896V216.882C130.928 218.406 130.706 219.924 130.239 221.375L130.067 221.81C130.477 222.701 130.942 223.565 131.46 224.397L130.776 224.798C130.32 224.024 129.929 223.308 129.605 222.649C129.14 223.444 128.548 224.159 127.853 224.764L127.182 224.38C128.052 223.673 128.76 222.789 129.26 221.786L128.88 220.759C128.564 219.616 128.379 218.44 128.329 217.255C128.138 217.729 127.909 218.187 127.644 218.624L126.974 218.138ZM128.962 215.978C128.937 217.455 129.118 218.928 129.499 220.355L129.619 220.735C129.97 219.479 130.138 218.179 130.119 216.875V215.978H128.962Z" fill="#81BECD"/>
<path d="M133.689 221.449H142.759V222.15H133.689V221.449ZM136.085 219.714L137.351 216.209L138.152 216.336L137.152 219.015H142.18L143.378 215.028H134.794V214.344H144.394L144.326 214.71L143.022 219.033H145.329V222.743C145.329 224.066 144.248 224.729 142.088 224.731H140.376L140.089 223.927C140.719 223.988 141.366 224.026 142.023 224.04C143.684 224.04 144.518 223.45 144.525 222.27V219.731L136.085 219.714Z" fill="#81BECD"/>
<path d="M149.337 221.355C149.774 220.808 150.137 220.206 150.415 219.565L151.141 219.838C150.866 220.499 150.512 221.125 150.086 221.7C149.657 222.286 149.146 222.808 148.57 223.251L147.756 222.816C148.353 222.41 148.886 221.918 149.337 221.355ZM150.956 215.612H158.523L158.934 215.992C158.706 216.9 158.273 217.744 157.667 218.459L156.945 218.059C157.406 217.55 157.764 216.958 157.999 216.313H150.6L150.48 216.543C150.048 217.272 149.521 217.941 148.913 218.531L148.047 218.161C148.683 217.608 149.241 216.97 149.703 216.265C150.137 215.571 150.474 214.822 150.706 214.037L151.469 214.243L150.956 215.612ZM153.444 223.586V217.381H154.245V223.713C154.245 224.346 153.879 224.668 153.139 224.678H151.77L151.483 223.993H152.996C153.286 223.993 153.434 223.863 153.444 223.603V223.586ZM159.29 222.98C158.467 221.942 157.541 220.992 156.524 220.143L157.13 219.674C158.164 220.519 159.1 221.478 159.919 222.532L159.29 222.98Z" fill="#81BECD"/>
<path d="M162.072 221.367H167.746V219.516H163.386V218.831H173.024V219.516H168.523V221.367H174.191V222.052H168.523V224.831H167.746V222.052H162.072V221.367ZM172.641 216.449L173.417 216.644V217.116C173.417 217.698 173.113 217.993 172.497 217.999H169.903C169.42 217.999 169.174 217.732 169.167 217.195V215.104H163.099V216.873H162.322V214.426H173.958V216.23H173.164V215.104H169.94V217.034C169.94 217.212 170.05 217.305 170.282 217.322H172.285C172.521 217.322 172.644 217.216 172.651 217L172.641 216.449ZM164.704 216.702C165.265 216.328 165.751 215.852 166.138 215.299L166.73 215.679C166.304 216.273 165.784 216.793 165.19 217.219C164.531 217.619 163.824 217.932 163.085 218.15L162.715 217.534C163.414 217.355 164.084 217.077 164.704 216.709" fill="#81BECD"/>
<path d="M176.874 223.125V214.521H181.124V222.229H177.651V223.125H176.874ZM177.651 218.06H180.351V215.199H177.654L177.651 218.06ZM177.651 221.551H180.351V218.738H177.654L177.651 221.551ZM188.024 214.292V223.875C188.024 224.457 187.682 224.751 186.997 224.758H185.088L184.862 224.073H186.864C187.1 224.073 187.206 223.967 187.234 223.752V220.672H183.113C183.126 221.571 182.88 222.455 182.404 223.218C181.921 223.902 181.079 224.416 179.879 224.758L179.324 224.197C180.563 223.882 181.378 223.399 181.775 222.749C182.193 222.01 182.398 221.17 182.367 220.322V214.292H188.024ZM187.247 214.976H183.14V217.239H187.247V214.976ZM187.247 217.916H183.14V219.997H187.247V217.916Z" fill="#81BECD"/>
<path d="M192.122 217.324H201.287V218.008H197.204V220.089H202.759V220.773H197.204V223.645C197.204 224.388 196.776 224.764 195.914 224.771H194.23L194.004 224.086H195.876C196.246 224.086 196.427 223.925 196.427 223.604V220.767H190.609V220.082H196.427V218.001H192.122V217.324ZM201.801 215.842H191.622V218.025H190.845V215.164H196.321V213.98H197.098V215.164H202.574V218.025H201.797L201.801 215.842Z" fill="#81BECD"/>
<path d="M205.032 214.649H216.891V215.351H205.032V214.649ZM205.911 224.783V216.569H210.295V223.657C210.295 224.294 209.929 224.615 209.19 224.622H208.242L207.954 223.92H209.046C209.334 223.92 209.484 223.79 209.495 223.53V217.281H206.705V224.783H205.911ZM208.033 221.6C207.922 220.691 207.7 219.799 207.373 218.944L208.163 218.773C208.497 219.643 208.727 220.549 208.848 221.473L208.033 221.6ZM211.548 224.783V216.569H216.09V223.657C216.09 224.294 215.721 224.615 214.984 224.622H214.036L213.745 223.92H214.837C215.128 223.92 215.275 223.79 215.285 223.53V217.281H212.349V224.783H211.548ZM213.718 221.645C213.606 220.722 213.386 219.815 213.061 218.944L213.851 218.773C214.184 219.656 214.413 220.575 214.536 221.511L213.718 221.645Z" fill="#81BECD"/>
<path d="M222.73 219.381V223.875C222.73 224.457 222.387 224.751 221.703 224.758H220.529L220.306 224.074H221.569C221.805 224.074 221.912 223.968 221.939 223.752V220.162L221.148 221.575C220.623 222.333 220.034 223.045 219.386 223.701L219.026 222.989C219.645 222.34 220.208 221.641 220.71 220.898L221.552 219.381H219.132L219.882 215.658L220.659 215.784L220.053 218.704H221.949V215.062H219.276V214.378H223.753V215.062H222.726V218.704H223.818V219.388L222.73 219.381ZM224.584 224.782V217.301C224.367 217.651 224.125 217.985 223.859 218.3L223.335 217.739C224.207 216.611 224.847 215.322 225.218 213.947L225.926 214.097C225.782 214.699 225.584 215.287 225.334 215.853H227.73L228.281 214.015L229.03 214.21L228.544 215.853H231.347V216.537H228.531V218.433H230.926V219.118H228.531V221.062H230.926V221.746H228.531V223.595H231.347V224.279H225.361V224.81L224.584 224.782ZM225.361 218.427H227.757V216.531H225.361V218.427ZM225.361 221.048H227.757V219.104H225.361V221.048ZM225.361 223.574H227.757V221.726H225.361V223.574Z" fill="#81BECD"/>
<path d="M240.547 218.333L239.455 217.714L239.876 217.197L240.996 217.796L242.142 218.552L241.629 219.093L240.547 218.333ZM239.52 224.021C240.459 222.982 241.185 221.768 241.656 220.448L242.365 220.643C241.898 222.131 241.092 223.489 240.01 224.61L239.52 224.021ZM241.023 215.369L240.102 214.818L240.537 214.302L241.495 214.853L242.471 215.537L241.957 216.064L241.023 215.369ZM251.383 216.588V224.781H250.606V224.114H244.011V224.781H243.234V216.588H245.708V215.106H242.813V214.421H251.711V215.106H248.802V216.588H251.383ZM244.011 221.506H250.606V220.253H248.765C248.282 220.253 248.036 220.038 248.025 219.61V217.265H246.485V218.22C246.514 218.749 246.381 219.273 246.103 219.723C245.826 220.174 245.417 220.528 244.931 220.739L244.315 220.243C244.765 220.054 245.152 219.743 245.435 219.346C245.623 219.001 245.718 218.613 245.708 218.22V217.279H243.997L244.011 221.506ZM250.606 222.19H244.011V223.443H250.606V222.19ZM246.499 216.595H248.039V215.106H246.499V216.595ZM248.973 219.589H250.592V217.279H248.802V219.428C248.802 219.528 248.864 219.582 248.987 219.589" fill="#81BECD"/>
<path d="M266 215.564H255.442V220.551C255.441 221.25 255.371 221.947 255.233 222.632C255.083 223.383 254.83 224.11 254.48 224.791L253.795 224.357C254.105 223.757 254.335 223.12 254.48 222.461C254.606 221.832 254.668 221.192 254.665 220.551V214.887H259.932V213.98H260.709V214.887H266V215.564ZM264.631 224.121H257.232V224.832H256.455V220.082H259.932V216.187H260.709V217.69H265.736V218.374H260.709V220.085H265.394V224.826H264.617L264.631 224.121ZM257.245 223.436H264.631V220.76H257.232L257.245 223.436Z" fill="#81BECD"/>
<path d="M217.485 182.074V182.943H217.211V180.917H218.145C218.583 180.917 218.809 181.102 218.83 181.454C218.837 181.554 218.813 181.654 218.762 181.74C218.71 181.827 218.634 181.895 218.542 181.937C218.62 181.965 218.686 182.019 218.73 182.089C218.774 182.159 218.793 182.241 218.785 182.323L218.806 182.686C218.806 182.796 218.826 182.861 218.905 182.885V182.929H218.563C218.541 182.865 218.53 182.798 218.529 182.731C218.529 182.628 218.529 182.525 218.529 182.423C218.529 182.18 218.412 182.06 218.166 182.06L217.485 182.074ZM217.485 181.15V181.834H218.121C218.392 181.834 218.529 181.725 218.529 181.492C218.529 181.259 218.402 181.15 218.166 181.15H217.485Z" fill="#81BECD"/>
<path d="M219.358 181.571C219.358 180.542 218.525 179.709 217.497 179.709C216.468 179.709 215.635 180.542 215.635 181.571C215.635 182.599 216.468 183.432 217.497 183.432C218.525 183.432 219.358 182.599 219.358 181.571Z" stroke="#81BECD" stroke-width="0.75" stroke-miterlimit="10"/>
<path d="M234.191 216.852V218.013H233.822V215.312H235.071C235.659 215.312 235.957 215.562 235.967 216.031C235.976 216.165 235.945 216.298 235.876 216.414C235.808 216.529 235.706 216.621 235.584 216.678C235.691 216.712 235.783 216.782 235.845 216.875C235.907 216.968 235.936 217.08 235.926 217.191L235.954 217.677C235.954 217.824 235.978 217.91 236.087 217.941V217.999H235.632C235.605 217.913 235.59 217.825 235.588 217.735C235.588 217.598 235.588 217.462 235.588 217.325C235.588 216.982 235.434 216.839 235.102 216.839L234.191 216.852ZM234.191 215.62V216.544H235.04C235.403 216.544 235.584 216.397 235.584 216.075C235.584 215.754 235.413 215.631 235.102 215.62H234.191Z" fill="#81BECD"/>
<path d="M237.39 216.658C237.391 217.15 237.245 217.631 236.972 218.041C236.699 218.451 236.311 218.77 235.856 218.959C235.402 219.148 234.901 219.198 234.418 219.102C233.936 219.006 233.492 218.77 233.144 218.422C232.795 218.074 232.558 217.631 232.462 217.148C232.365 216.665 232.414 216.165 232.603 215.71C232.791 215.255 233.11 214.866 233.519 214.593C233.928 214.319 234.409 214.173 234.902 214.173C235.228 214.173 235.552 214.237 235.854 214.361C236.155 214.486 236.43 214.669 236.661 214.9C236.892 215.13 237.075 215.404 237.2 215.706C237.325 216.008 237.39 216.331 237.39 216.658Z" stroke="#81BECD" stroke-miterlimit="10"/>
<path d="M122.293 197.42C122.907 197.211 123.554 197.113 124.203 197.133C124.791 197.123 125.375 197.239 125.914 197.475C126.388 197.654 126.796 197.972 127.085 198.389C127.396 198.863 127.548 199.424 127.519 199.99H126.427C126.439 199.729 126.384 199.469 126.269 199.234C126.155 199 125.983 198.797 125.77 198.645C125.315 198.326 124.769 198.163 124.213 198.18C123.583 198.165 122.96 198.326 122.416 198.645C122.225 198.74 122.061 198.883 121.941 199.06C121.821 199.237 121.749 199.442 121.732 199.655C121.752 200.052 122.119 200.384 122.824 200.651C123.967 201.055 124.956 201.411 125.791 201.708C126.43 201.877 127.012 202.215 127.475 202.687C127.781 203.063 127.946 203.534 127.94 204.019C127.946 204.526 127.775 205.019 127.458 205.415C127.124 205.819 126.695 206.133 126.208 206.329C125.574 206.593 124.89 206.719 124.203 206.698C123.451 206.727 122.702 206.596 122.006 206.312C121.538 206.092 121.134 205.754 120.835 205.333C120.476 204.739 120.292 204.055 120.305 203.361H121.396C121.396 204.238 121.663 204.821 122.197 205.11C122.819 205.421 123.508 205.575 124.203 205.559C124.927 205.601 125.645 205.397 126.239 204.98C126.413 204.868 126.559 204.717 126.665 204.539C126.77 204.36 126.833 204.16 126.848 203.954C126.848 203.497 126.41 203.117 125.534 202.814C124.463 202.427 123.508 202.092 122.663 201.787C122.089 201.615 121.562 201.314 121.123 200.908C120.808 200.547 120.637 200.085 120.64 199.607C120.611 199.124 120.766 198.648 121.075 198.276C121.406 197.897 121.824 197.603 122.293 197.42Z" fill="#81BECD"/>
<path d="M135.014 198.788H132.437V204.291C132.413 204.668 132.52 205.042 132.742 205.349C132.956 205.552 133.738 205.599 135.086 205.492V206.584C134.639 206.648 134.189 206.686 133.738 206.697C132.861 206.697 132.236 206.52 131.862 206.166C131.529 205.824 131.358 205.199 131.349 204.291V198.788H129.439V197.686H131.349V194.91H132.437V197.686H135.021L135.014 198.788Z" fill="#81BECD"/>
<path d="M144.111 200.282V203.649C144.075 204.149 144.14 204.651 144.303 205.125C144.401 205.258 144.533 205.364 144.685 205.432C144.836 205.5 145.003 205.527 145.169 205.511V206.603H144.255C143.858 206.603 143.55 206.329 143.324 205.785C143.248 205.569 143.184 205.348 143.132 205.125C143.011 205.296 142.878 205.467 142.732 205.638C142.109 206.336 141.023 206.69 139.473 206.699C139.096 206.72 138.719 206.665 138.364 206.538C138.008 206.411 137.681 206.215 137.403 205.96C137.157 205.702 136.965 205.397 136.839 205.064C136.712 204.731 136.654 204.375 136.667 204.019C136.655 203.447 136.848 202.89 137.211 202.448C137.76 201.854 138.486 201.454 139.282 201.308C140.512 201.02 141.761 200.817 143.019 200.699V200.282C143.044 200 143.005 199.717 142.905 199.452C142.805 199.188 142.646 198.95 142.441 198.755C142.035 198.402 141.388 198.226 140.5 198.228C139.804 198.187 139.113 198.367 138.525 198.742C138.301 198.937 138.126 199.183 138.014 199.459C137.903 199.735 137.859 200.033 137.885 200.33H136.794C136.764 199.871 136.842 199.412 137.02 198.989C137.198 198.565 137.472 198.189 137.82 197.889C138.45 197.386 139.34 197.136 140.483 197.136C141.822 197.136 142.748 197.356 143.259 197.794C143.838 198.266 144.122 199.095 144.111 200.282ZM143.019 203.667V201.794C140.922 202.073 139.543 202.346 138.881 202.612C138.131 202.889 137.755 203.354 137.755 204.009C137.747 204.204 137.78 204.4 137.852 204.582C137.924 204.764 138.033 204.929 138.173 205.066C138.549 205.409 139.141 205.587 139.956 205.597C141.099 205.597 141.914 205.361 142.393 204.892C142.718 204.554 142.936 204.128 143.019 203.667Z" fill="#81BECD"/>
<path d="M147.109 206.586V197.249H148.201V199.029C148.247 198.973 148.289 198.915 148.328 198.854C149.151 197.713 150.142 197.143 151.298 197.143C152.325 197.143 153.03 197.42 153.448 197.978L152.691 198.796C152.499 198.583 152.26 198.417 151.992 198.312C151.725 198.206 151.437 198.163 151.151 198.187C150.435 198.187 149.762 198.567 149.132 199.327C148.669 199.814 148.347 200.419 148.201 201.076V206.586H147.109Z" fill="#81BECD"/>
<path d="M156.428 197.42C157.043 197.211 157.69 197.113 158.338 197.133C158.927 197.123 159.51 197.239 160.049 197.475C160.523 197.654 160.931 197.972 161.22 198.389C161.533 198.862 161.685 199.424 161.655 199.99H160.563C160.574 199.729 160.52 199.469 160.405 199.234C160.29 199 160.118 198.797 159.906 198.645C159.451 198.326 158.904 198.163 158.348 198.18C157.718 198.165 157.096 198.326 156.552 198.645C156.36 198.74 156.196 198.883 156.076 199.06C155.956 199.237 155.884 199.442 155.867 199.655C155.89 200.052 156.254 200.384 156.959 200.651C158.102 201.055 159.091 201.411 159.926 201.708C160.566 201.875 161.148 202.214 161.61 202.687C161.916 203.063 162.081 203.534 162.076 204.019C162.081 204.525 161.912 205.018 161.596 205.415C161.262 205.819 160.831 206.133 160.344 206.329C159.709 206.593 159.025 206.719 158.338 206.698C157.587 206.727 156.838 206.595 156.141 206.312C155.673 206.092 155.27 205.754 154.97 205.333C154.611 204.739 154.427 204.055 154.44 203.361H155.532C155.532 204.238 155.799 204.821 156.333 205.11C156.955 205.421 157.643 205.575 158.338 205.559C159.063 205.602 159.781 205.398 160.375 204.98C160.549 204.868 160.695 204.717 160.802 204.539C160.908 204.361 160.971 204.16 160.987 203.954C160.974 203.497 160.534 203.117 159.67 202.814C158.602 202.427 157.643 202.092 156.798 201.787C156.224 201.615 155.698 201.314 155.258 200.908C154.946 200.546 154.776 200.084 154.779 199.607C154.75 199.125 154.904 198.65 155.21 198.276C155.542 197.897 155.96 197.603 156.428 197.42Z" fill="#81BECD"/>
<path d="M170.829 204.532C170.456 203.678 170.275 202.753 170.299 201.821C170.273 200.912 170.483 200.011 170.908 199.206C171.274 198.585 171.786 198.062 172.4 197.683C173.067 197.3 173.829 197.116 174.597 197.153C175.329 197.131 176.054 197.303 176.699 197.649C177.307 197.979 177.808 198.475 178.143 199.08C178.604 199.953 178.83 200.93 178.8 201.917C178.832 202.762 178.685 203.604 178.369 204.388C178.085 205.046 177.624 205.612 177.038 206.024C176.319 206.464 175.496 206.703 174.653 206.718C173.811 206.732 172.98 206.521 172.246 206.106C171.641 205.718 171.152 205.174 170.829 204.532ZM171.856 199.72C171.526 200.37 171.366 201.093 171.391 201.821C171.365 202.557 171.513 203.288 171.822 203.957C172.081 204.436 172.449 204.847 172.896 205.158C173.393 205.466 173.966 205.627 174.55 205.624C175.197 205.655 175.838 205.481 176.381 205.127C176.842 204.837 177.201 204.41 177.407 203.905C177.642 203.27 177.751 202.594 177.729 201.917C177.77 201.192 177.627 200.469 177.311 199.816C177.062 199.371 176.71 198.992 176.285 198.71C175.778 198.398 175.193 198.237 174.597 198.245C174.017 198.219 173.441 198.352 172.931 198.628C172.486 198.888 172.116 199.258 171.856 199.703V199.72Z" fill="#81BECD"/>
<path d="M182.012 206.585V198.789H180.407V197.687H182.012V196.742C182.012 195.531 182.257 194.701 182.748 194.254C183.234 193.841 183.86 193.629 184.497 193.662C185.374 193.662 186.249 193.743 187.112 193.902L186.793 194.993C185.144 194.651 184.101 194.635 183.665 194.945C183.299 195.212 183.114 195.811 183.104 196.742V197.687H185.958V198.779H183.09V206.585H182.012Z" fill="#81BECD"/>
<path d="M201.515 197.249V206.586H200.427V204.874C200.152 205.348 199.78 205.758 199.335 206.079C198.69 206.52 197.919 206.74 197.138 206.705C196.102 206.705 195.332 206.427 194.828 205.87C194.291 205.261 194.02 204.337 194.01 203.095V197.249H195.098V203.088C195.058 203.75 195.257 204.405 195.66 204.933C196.036 205.371 196.628 205.596 197.443 205.617C198.171 205.636 198.879 205.369 199.414 204.874C199.749 204.565 200.015 204.188 200.192 203.767C200.369 203.347 200.454 202.893 200.441 202.438V197.249H201.515Z" fill="#81BECD"/>
<path d="M204.501 206.584V193.781H205.593V206.584H204.501Z" fill="#81BECD"/>
<path d="M216.177 197.249V206.586H215.089V204.874C214.814 205.348 214.442 205.758 213.997 206.079C213.352 206.52 212.581 206.74 211.8 206.705C210.764 206.705 209.994 206.427 209.49 205.87C208.953 205.261 208.682 204.337 208.672 203.095V197.249H209.76V203.088C209.72 203.75 209.919 204.405 210.322 204.933C210.698 205.371 211.29 205.596 212.105 205.617C212.831 205.642 213.538 205.383 214.076 204.895C214.411 204.586 214.677 204.208 214.854 203.788C215.031 203.367 215.116 202.914 215.103 202.458V197.249H216.177Z" fill="#81BECD"/>
<path d="M218.984 203.519C218.579 202.812 218.374 202.007 218.392 201.192C218.376 200.468 218.542 199.751 218.875 199.108C219.19 198.53 219.649 198.044 220.206 197.694C220.886 197.284 221.675 197.089 222.468 197.133C222.935 197.106 223.402 197.181 223.837 197.353C224.272 197.525 224.665 197.79 224.987 198.129C225.113 198.252 225.227 198.386 225.329 198.529V197.229H226.421V204.899C226.475 205.544 226.321 206.191 225.98 206.742C225.639 207.294 225.13 207.721 224.528 207.962C223.789 208.232 223.006 208.363 222.218 208.348C221.077 208.348 220.19 208.134 219.556 207.705C219.265 207.523 219.024 207.271 218.855 206.972C218.686 206.673 218.595 206.337 218.59 205.994H219.682C219.692 206.191 219.757 206.382 219.871 206.544C219.985 206.706 220.143 206.832 220.326 206.908C220.921 207.168 221.569 207.285 222.218 207.25C223.266 207.25 224.046 207.057 224.559 206.671C225.073 206.286 225.329 205.629 225.329 204.7V203.752C225.223 203.892 225.1 204.046 224.96 204.217C224.405 204.902 223.577 205.244 222.475 205.244C221.725 205.276 220.979 205.116 220.309 204.779C219.772 204.471 219.318 204.039 218.984 203.519ZM220.302 199.012C220.027 199.302 219.813 199.645 219.672 200.019C219.532 200.394 219.468 200.792 219.484 201.192C219.464 201.599 219.531 202.005 219.68 202.384C219.83 202.763 220.058 203.105 220.35 203.389C220.936 203.899 221.691 204.174 222.468 204.159C222.869 204.175 223.268 204.104 223.639 203.952C224.01 203.799 224.343 203.569 224.617 203.276C225.056 202.838 225.269 202.175 225.257 201.288C225.284 200.859 225.225 200.429 225.082 200.024C224.939 199.619 224.716 199.247 224.426 198.93C224.165 198.685 223.857 198.496 223.52 198.375C223.183 198.253 222.825 198.202 222.468 198.225C222.073 198.204 221.677 198.262 221.305 198.398C220.933 198.533 220.591 198.742 220.302 199.012Z" fill="#81BECD"/>
<path d="M229.253 206.584V193.781H230.345V198.74C230.537 198.453 230.767 198.194 231.029 197.97C231.629 197.402 232.475 197.123 233.565 197.135C234.065 197.117 234.562 197.217 235.016 197.426C235.47 197.635 235.869 197.948 236.18 198.339C236.927 199.311 237.312 200.513 237.268 201.738C237.268 203.353 236.825 204.637 235.937 205.588C235.602 205.947 235.194 206.232 234.741 206.423C234.288 206.614 233.8 206.707 233.309 206.697C232.826 206.719 232.345 206.628 231.905 206.43C231.464 206.232 231.076 205.933 230.773 205.557C230.622 205.366 230.485 205.184 230.355 205.013V206.584H229.253ZM233.12 198.226C232.743 198.227 232.37 198.309 232.027 198.467C231.684 198.624 231.378 198.854 231.132 199.14C230.694 199.633 230.431 200.393 230.345 201.42V202.412C230.376 203.158 230.639 203.876 231.098 204.466C231.762 205.222 232.467 205.609 233.185 205.619C233.568 205.626 233.947 205.554 234.3 205.408C234.654 205.262 234.973 205.045 235.239 204.77C235.851 204.137 236.156 203.134 236.156 201.752C236.184 200.785 235.853 199.842 235.225 199.106C234.963 198.811 234.638 198.578 234.273 198.426C233.909 198.274 233.515 198.205 233.12 198.226Z" fill="#81BECD"/>
<path d="M247.155 202.253H240.115C240.127 203.125 240.444 203.965 241.011 204.628C241.313 204.958 241.685 205.217 242.099 205.386C242.513 205.556 242.96 205.631 243.407 205.607C244.06 205.624 244.701 205.433 245.238 205.063C245.459 204.932 245.641 204.747 245.768 204.524C245.895 204.301 245.961 204.049 245.96 203.793H247.052C247.061 204.206 246.97 204.615 246.785 204.984C246.6 205.353 246.327 205.672 245.991 205.911C245.242 206.456 244.332 206.734 243.407 206.698C241.976 206.698 240.864 206.207 240.07 205.223C239.382 204.328 239.02 203.224 239.043 202.095C239.043 200.455 239.455 199.2 240.279 198.33C240.663 197.936 241.125 197.626 241.636 197.422C242.148 197.217 242.696 197.122 243.246 197.143C243.784 197.118 244.321 197.213 244.818 197.421C245.315 197.63 245.759 197.946 246.118 198.348C246.84 199.207 247.217 200.305 247.175 201.428L247.155 202.253ZM240.994 199.172C240.526 199.738 240.24 200.433 240.176 201.164H246.063C246.084 200.431 245.832 199.716 245.354 199.159C245.095 198.849 244.768 198.604 244.398 198.442C244.028 198.28 243.625 198.207 243.222 198.228C242.802 198.213 242.384 198.29 241.997 198.454C241.61 198.617 241.263 198.862 240.98 199.172H240.994Z" fill="#81BECD"/>
<path d="M249.531 206.615V193.781H250.623V202.06L255.691 197.248H257.102L253.285 200.841L257.215 206.584H255.917L252.546 201.529L250.623 203.36V206.615H249.531Z" fill="#81BECD"/>
</svg>
