<svg width="528" height="588" viewBox="0 0 528 588" fill="none" xmlns="http://www.w3.org/2000/svg">
<g opacity="0.0714286">
<mask id="path-1-inside-1_328_1225" fill="white">
<path d="M337.345 499.761C422.993 162.058 173.588 195.128 337.345 499.761Z"/>
</mask>
<path d="M337.345 499.761L345.099 501.727L340.041 521.672L330.298 503.549L337.345 499.761ZM330.298 503.549C288.983 426.691 273.331 366.259 272.307 323.948C271.795 302.829 274.92 285.792 280.724 273.443C286.49 261.177 295.513 252.478 307.002 250.954C318.531 249.426 329.425 255.53 337.987 265.956C346.592 276.433 353.701 292.141 358.26 312.723C367.395 353.963 366.702 416.549 345.099 501.727L329.59 497.794C350.812 414.121 351.061 354.203 342.639 316.184C338.419 297.137 332.124 284.027 325.623 276.111C319.079 268.143 313.164 266.277 309.106 266.816C305.007 267.359 299.663 270.763 295.204 280.249C290.785 289.653 287.829 304.017 288.302 323.561C289.247 362.575 303.828 420.515 344.391 495.973L330.298 503.549Z" fill="#cb9f39" mask="url(#path-1-inside-1_328_1225)"/>
</g>
<g opacity="0.142857">
<mask id="path-3-inside-2_328_1225" fill="white">
<path d="M286.623 492.716C440.611 180.2 189.781 160.693 286.623 492.716Z"/>
</mask>
<path d="M286.623 492.716L293.799 496.252L284.704 514.709L278.943 494.956L286.623 492.716ZM278.943 494.956C254.51 411.188 251.764 348.823 259.559 307.223C263.45 286.459 270.048 270.444 278.293 259.572C286.483 248.773 297.118 242.14 308.673 243.038C320.268 243.94 329.654 252.176 335.862 264.154C342.1 276.192 345.787 293.034 345.968 314.114C346.33 356.352 332.639 417.427 293.799 496.252L279.446 489.18C317.6 411.747 330.302 353.191 329.968 314.251C329.801 294.743 326.369 280.611 321.656 271.516C316.912 262.362 311.514 259.307 307.432 258.99C303.31 258.669 297.376 260.888 291.042 269.24C284.764 277.519 278.886 290.955 275.285 310.17C268.098 348.528 270.315 408.233 294.303 490.476L278.943 494.956Z" fill="#cb9f39" mask="url(#path-3-inside-2_328_1225)"/>
</g>
<g opacity="0.214286">
<mask id="path-5-inside-3_328_1225" fill="white">
<path d="M238.473 475.279C454.073 201.609 212.779 130.378 238.473 475.279Z"/>
</mask>
<path d="M238.473 475.279L244.757 480.23L232.024 496.393L230.495 475.874L238.473 475.279ZM230.495 475.874C224.013 388.856 234.294 327.283 250.567 288.213C258.69 268.712 268.474 254.419 278.799 245.498C289.056 236.638 300.837 232.361 311.953 235.642C323.107 238.935 330.576 248.942 334.157 261.949C337.756 275.021 337.862 292.262 333.655 312.919C325.227 354.309 299.138 411.203 244.757 480.23L232.189 470.329C285.609 402.521 310.207 347.884 317.977 309.727C321.869 290.61 321.451 276.073 318.731 266.197C315.994 256.256 311.35 252.147 307.423 250.987C303.457 249.817 297.191 250.753 289.259 257.606C281.397 264.398 272.854 276.319 265.337 294.365C250.332 330.391 240.087 389.252 246.451 474.685L230.495 475.874Z" fill="#cb9f39" mask="url(#path-5-inside-3_328_1225)"/>
</g>
<g opacity="0.285714">
<mask id="path-7-inside-4_328_1225" fill="white">
<path d="M195.002 448.213C462.789 225.348 241.578 105.506 195.002 448.213Z"/>
</mask>
<path d="M195.002 448.213L200.119 454.362L184.303 467.525L187.074 447.136L195.002 448.213ZM187.074 447.136C198.825 360.672 221.684 302.582 245.724 267.749C257.724 250.363 270.266 238.416 282.22 231.838C294.095 225.303 306.508 223.569 316.699 229.09C326.924 234.629 332.149 245.971 332.948 259.439C333.751 272.973 330.269 289.859 321.86 309.19C305.011 347.923 267.663 398.149 200.119 454.362L189.884 442.064C256.234 386.844 291.655 338.516 307.188 302.808C314.97 284.918 317.583 270.612 316.976 260.386C316.366 250.094 312.677 245.108 309.077 243.158C305.442 241.188 299.118 240.801 289.935 245.855C280.832 250.865 269.997 260.748 258.893 276.837C236.725 308.956 214.466 364.401 202.929 449.29L187.074 447.136Z" fill="#cb9f39" mask="url(#path-7-inside-4_328_1225)"/>
</g>
<g opacity="0.357143">
<mask id="path-9-inside-5_328_1225" fill="white">
<path d="M158.106 412.7C466.378 250.382 274.918 87.1662 158.106 412.7Z"/>
</mask>
<path d="M158.106 412.7L161.834 419.779L143.627 429.366L150.576 409.998L158.106 412.7ZM150.576 409.998C180.048 327.867 214.484 275.799 245.241 246.726C260.594 232.214 275.345 223.137 288.406 219.187C301.38 215.264 313.882 216.149 322.702 223.668C331.553 231.212 334.306 243.393 332.287 256.732C330.258 270.137 323.342 285.93 311.097 303.091C286.563 337.474 239.588 378.838 161.834 419.779L154.379 405.622C230.76 365.404 275.455 325.496 298.073 293.797C309.404 277.917 314.935 264.466 316.467 254.338C318.01 244.143 315.438 238.5 312.323 235.844C309.176 233.161 303.071 231.468 293.038 234.502C283.092 237.51 270.439 244.924 256.232 258.353C227.871 285.161 194.571 334.767 165.636 415.402L150.576 409.998Z" fill="#cb9f39" mask="url(#path-9-inside-5_328_1225)"/>
</g>
<g opacity="0.428571">
<mask id="path-11-inside-6_328_1225" fill="white">
<path d="M129.402 370.292C464.685 275.614 311.343 76.1579 129.402 370.292Z"/>
</mask>
<path d="M129.402 370.292L131.576 377.991L111.774 383.582L122.599 366.083L129.402 370.292ZM122.599 366.083C168.502 291.874 213.011 248.104 249.141 226.061C267.175 215.058 283.492 209.246 297.089 208.098C310.594 206.958 322.64 210.423 329.704 219.611C336.792 228.831 336.952 241.318 332.204 253.946C327.433 266.637 317.384 280.646 301.839 294.886C270.692 323.417 216.144 354.11 131.576 377.991L127.228 362.593C210.302 339.134 262.317 309.391 291.031 283.088C305.417 269.91 313.623 257.903 317.228 248.315C320.856 238.664 319.514 232.609 317.019 229.363C314.499 226.086 308.879 223.16 298.434 224.041C288.081 224.915 274.163 229.538 257.474 239.719C224.159 260.045 181.273 301.643 136.206 374.5L122.599 366.083Z" fill="#cb9f39" mask="url(#path-11-inside-6_328_1225)"/>
</g>
<g opacity="0.5">
<mask id="path-13-inside-7_328_1225" fill="white">
<path d="M110.142 322.843C457.783 299.943 349.261 72.9639 110.142 322.843Z"/>
</mask>
<path d="M110.142 322.843L110.668 330.825L90.136 332.178L104.362 317.312L110.142 322.843ZM104.362 317.312C164.691 254.268 217.328 220.708 257.252 206.658C277.179 199.646 294.348 197.353 307.886 199.057C321.333 200.75 332.395 206.644 337.395 217.1C342.411 227.592 339.972 239.839 332.702 251.204C325.396 262.625 312.654 274.24 294.488 284.936C258.09 306.368 198.353 325.049 110.668 330.825L109.616 314.86C195.752 309.186 252.814 290.907 286.37 271.149C303.181 261.25 313.704 251.212 319.224 242.582C324.78 233.897 324.726 227.695 322.96 224.001C321.176 220.271 316.287 216.241 305.888 214.932C295.579 213.634 281.004 215.262 262.563 221.751C225.75 234.706 175.152 266.478 115.922 328.374L104.362 317.312Z" fill="#cb9f39" mask="url(#path-13-inside-7_328_1225)"/>
</g>
<g opacity="0.571429">
<mask id="path-15-inside-8_328_1225" fill="white">
<path d="M101.168 272.426C445.974 322.305 387.015 77.7232 101.168 272.426Z"/>
</mask>
<path d="M101.168 272.426L100.023 280.343L79.6585 277.398L96.6645 265.814L101.168 272.426ZM96.6645 265.814C168.783 216.691 227.247 194.808 269.219 189.366C290.169 186.65 307.439 187.977 320.327 192.459C333.129 196.91 342.724 204.975 345.44 216.242C348.165 227.548 343.233 239.02 333.759 248.626C324.239 258.278 309.36 266.99 289.367 273.676C249.309 287.072 186.993 292.924 100.023 280.343L102.314 264.508C187.746 276.867 247.362 270.852 284.293 258.502C302.794 252.314 315.175 244.683 322.368 237.39C329.608 230.049 330.845 223.972 329.885 219.992C328.916 215.972 324.972 211.014 315.072 207.571C305.258 204.158 290.664 202.72 271.277 205.234C232.575 210.251 176.477 230.809 105.672 279.038L96.6645 265.814Z" fill="#cb9f39" mask="url(#path-15-inside-8_328_1225)"/>
</g>
<g opacity="0.642857">
<mask id="path-17-inside-9_328_1225" fill="white">
<path d="M102.872 221.245C429.773 341.723 422.953 90.2279 102.872 221.245Z"/>
</mask>
<path d="M102.872 221.245L100.106 228.751L80.7991 221.636L99.8419 213.841L102.872 221.245ZM99.8419 213.841C180.597 180.786 242.334 171.537 284.52 174.94C305.577 176.639 322.194 181.528 333.869 188.591C345.465 195.607 353.173 205.491 353.487 217.076C353.803 228.702 346.593 238.898 335.329 246.323C324.01 253.786 307.645 259.213 286.699 261.596C244.731 266.371 182.559 259.139 100.106 228.751L105.639 213.739C186.635 243.59 246.199 250.101 284.89 245.699C304.274 243.493 317.97 238.603 326.523 232.965C335.131 227.29 337.604 221.603 337.493 217.51C337.381 213.377 334.554 207.706 325.586 202.281C316.696 196.902 302.72 192.461 283.234 190.888C244.334 187.75 185.188 196.195 105.903 228.649L99.8419 213.841Z" fill="#cb9f39" mask="url(#path-17-inside-9_328_1225)"/>
</g>
<g opacity="0.714286">
<mask id="path-19-inside-10_328_1225" fill="white">
<path d="M115.18 171.537C409.888 357.349 455.507 109.931 115.18 171.537Z"/>
</mask>
<path d="M115.18 171.537L110.914 178.304L93.5081 167.33L113.755 163.665L115.18 171.537ZM113.755 163.665C199.619 148.122 261.929 151.911 302.486 164.011C322.73 170.05 337.967 178.287 347.918 187.623C357.802 196.897 363.287 208.167 361.185 219.565C359.077 231.002 349.905 239.476 337.343 244.398C324.72 249.343 307.584 251.25 286.6 249.226C244.556 245.171 185.247 225.171 110.914 178.304L119.447 164.77C192.467 210.809 249.376 229.561 288.137 233.3C307.555 235.173 321.969 233.237 331.507 229.5C341.107 225.739 344.708 220.69 345.451 216.664C346.2 212.598 344.614 206.464 336.97 199.292C329.393 192.182 316.645 184.932 297.912 179.343C260.515 168.185 200.905 164.149 116.605 179.409L113.755 163.665Z" fill="#cb9f39" mask="url(#path-19-inside-10_328_1225)"/>
</g>
<g opacity="0.785714">
<mask id="path-21-inside-11_328_1225" fill="white">
<path d="M137.555 125.474C387.19 368.499 483.253 135.973 137.555 125.474Z"/>
</mask>
<path d="M137.555 125.474L131.974 131.206L117.231 116.853L137.798 117.478L137.555 125.474ZM137.798 117.478C225.016 120.126 285.177 136.787 322.332 157.055C340.877 167.172 354.069 178.396 361.862 189.598C369.602 200.724 372.624 212.888 368.198 223.6C363.758 234.348 353.024 240.731 339.714 242.933C326.338 245.146 309.181 243.448 289.076 237.106C248.794 224.398 194.939 192.504 131.974 131.206L143.135 119.742C204.988 179.956 256.754 210.131 293.89 221.847C312.495 227.716 326.996 228.82 337.102 227.147C347.275 225.464 351.847 221.275 353.411 217.491C354.989 213.669 354.713 207.339 348.727 198.735C342.794 190.206 331.832 180.463 314.67 171.101C280.41 152.413 222.942 136.071 137.312 133.47L137.798 117.478Z" fill="#cb9f39" mask="url(#path-21-inside-11_328_1225)"/>
</g>
<g opacity="0.857143">
<mask id="path-23-inside-12_328_1225" fill="white">
<path d="M169.016 85.07C362.669 374.686 504.977 167.214 169.016 85.07Z"/>
</mask>
<path d="M169.016 85.07L162.366 89.5167L150.929 72.4119L170.916 77.2989L169.016 85.07ZM170.916 77.2989C255.678 98.0236 311.061 126.829 343.19 154.379C359.226 168.13 369.796 181.852 375.09 194.429C380.347 206.921 380.774 219.448 374.218 229.005C367.64 238.596 355.814 242.607 342.337 241.993C328.793 241.377 312.364 236.149 294.017 225.765C257.258 204.96 211.211 162.566 162.366 89.5167L175.667 80.6232C223.648 152.382 268.009 192.66 301.898 211.841C318.876 221.45 332.831 225.544 343.064 226.01C353.364 226.479 358.708 223.331 361.024 219.955C363.363 216.545 364.409 210.296 360.342 200.635C356.312 191.059 347.615 179.25 332.775 166.525C303.149 141.121 250.335 113.188 167.116 92.8411L170.916 77.2989Z" fill="#cb9f39" mask="url(#path-23-inside-12_328_1225)"/>
</g>
<g opacity="0.928571">
<mask id="path-25-inside-13_328_1225" fill="white">
<path d="M208.192 52.0893C337.398 375.639 519.733 202.288 208.192 52.0893Z"/>
</mask>
<path d="M208.192 52.0893L200.763 55.0562L193.132 35.9472L211.666 44.8831L208.192 52.0893ZM211.666 44.8831C290.267 82.7779 338.451 122.468 364.149 156.096C376.977 172.881 384.463 188.501 387.025 201.903C389.571 215.216 387.384 227.557 378.984 235.543C370.556 243.556 358.154 245.021 345.099 241.619C331.98 238.2 316.996 229.671 301.209 215.699C269.579 187.706 233.352 136.665 200.763 55.0562L215.622 49.1225C247.635 129.289 282.653 177.91 311.813 203.718C326.422 216.647 339.221 223.553 349.134 226.136C359.111 228.736 364.993 226.768 367.96 223.947C370.956 221.098 373.279 215.203 371.31 204.908C369.359 194.703 363.307 181.344 351.437 165.811C327.74 134.803 281.887 96.5003 204.718 59.2956L211.666 44.8831Z" fill="#cb9f39" mask="url(#path-25-inside-13_328_1225)"/>
</g>
<mask id="path-27-inside-14_328_1225" fill="white">
<path d="M253.368 27.9753C312.481 371.318 526.873 239.665 253.368 27.9753Z"/>
</mask>
<path d="M253.368 27.9753L245.484 29.3327L241.993 9.05471L258.265 21.6489L253.368 27.9753ZM258.265 21.6489C327.269 75.0576 366.148 123.898 384.293 162.135C393.35 181.22 397.425 198.055 397.145 211.697C396.868 225.248 392.162 236.865 382.286 242.93C372.376 249.016 359.941 247.87 347.878 241.828C335.756 235.756 322.873 224.298 310.336 207.349C285.217 173.391 260.394 115.934 245.484 29.3327L261.252 26.618C275.899 111.689 300.042 166.528 323.2 197.834C334.801 213.518 345.885 222.935 355.044 227.522C364.263 232.14 370.424 231.438 373.913 229.295C377.437 227.132 380.934 221.848 381.149 211.369C381.362 200.981 378.22 186.656 369.838 168.994C353.107 133.737 316.22 86.7379 248.472 34.3017L258.265 21.6489Z" fill="#cb9f39" mask="url(#path-27-inside-14_328_1225)"/>
</svg>
