<svg width="52" height="52" viewBox="0 0 52 52" fill="none" xmlns="http://www.w3.org/2000/svg">
<path fill-rule="evenodd" clip-rule="evenodd" d="M23.1418 12.7299C23.1274 12.4543 23.12 12.1775 23.12 11.8995C23.12 11.135 23.1887 10.377 23.323 9.63265C22.9765 9.61454 22.6287 9.60524 22.28 9.60488C18.269 9.60488 14.3481 10.7894 11.013 13.0088C7.67801 15.2281 5.07868 18.3825 3.54373 22.0732C2.00879 25.7638 1.60718 29.8248 2.38968 33.7428C3.17219 37.6607 5.10367 41.2596 7.93988 44.0843C10.7761 46.9089 14.3896 48.8326 18.3236 49.6119C22.2575 50.3912 26.3351 49.9913 30.0408 48.4625C33.7465 46.9338 36.9138 44.3451 39.1422 41.0236C41.1977 37.9598 42.3692 34.3995 42.5386 30.7302C41.1894 31.9739 39.9443 32.9879 38.9823 33.7279C38.7829 34.5687 38.5189 35.3951 38.192 36.1996L29.4755 30.8609C29.1049 30.6331 28.6903 30.4855 28.2587 30.4278L23.8088 29.8296C23.1956 29.75 22.5725 29.8524 22.0175 30.1239C21.4625 30.3954 21.0003 30.8241 20.6888 31.3561H18.9884L18.2474 29.8296C18.0426 29.4046 17.7428 29.0319 17.371 28.74C16.9992 28.4482 16.5652 28.2449 16.1024 28.1458L14.5424 27.8099L16.0673 25.1415H19.3258C19.853 25.1404 20.3715 25.0068 20.8331 24.753L23.2219 23.4402C23.4317 23.3237 23.6279 23.1843 23.8069 23.0246L25.7611 21.2642C25.2377 20.3141 24.7707 19.3304 24.3804 18.3181L21.7126 20.7213L19.3258 22.0341H16.0673C15.5189 22.0333 14.9799 22.1765 14.5047 22.4493C14.0295 22.7221 13.6349 23.1148 13.3607 23.5878L11.6584 26.5456L9.67911 21.2942L11.8124 16.2701C13.7007 14.817 15.8729 13.7728 18.1898 13.2042C19.8122 12.8061 21.4806 12.6474 23.1418 12.7299ZM6.78531 22.4614C5.68645 24.7538 5.1174 27.2622 5.12001 29.8024C5.12744 34.2669 6.88649 38.5516 10.0218 41.7424C13.157 44.9331 17.4203 46.7772 21.9017 46.881L22.28 44.939L18.4561 41.016L18.4288 40.9888C18.0148 40.5424 17.7413 39.9849 17.6422 39.3853C17.5431 38.7858 17.6226 38.1704 17.8711 37.6154L19.2809 34.4634H18.9923C18.4072 34.4618 17.8341 34.2973 17.3379 33.9884C16.8417 33.6796 16.4421 33.2387 16.1843 32.7155L15.4414 31.1774L11.2625 30.2821C10.7518 30.1732 10.2767 29.9383 9.88081 29.599C9.48491 29.2597 9.18089 28.8268 8.99661 28.3401L6.78531 22.4614ZM25.3435 45.5274L25.1231 46.6557C27.4941 46.2559 29.7546 45.3652 31.7585 44.0412C33.7624 42.7172 35.4652 40.9892 36.7568 38.969L27.8414 33.5079L23.3915 32.9097L20.72 38.8797L24.5362 42.8007C24.5448 42.8103 24.5539 42.8193 24.5635 42.8279C24.896 43.186 25.1398 43.6167 25.2752 44.0854C25.4106 44.5542 25.434 45.048 25.3435 45.5274Z" fill="#FEFCEB"/>
<path d="M37.52 7.33007C36.3395 7.33007 35.1855 7.67039 34.204 8.30798C33.2224 8.94558 32.4574 9.85181 32.0056 10.9121C31.5539 11.9724 31.4357 13.1391 31.666 14.2647C31.8963 15.3903 32.4648 16.4242 33.2995 17.2357C34.1342 18.0472 35.1978 18.5998 36.3556 18.8237C37.5134 19.0476 38.7135 18.9327 39.8041 18.4935C40.8948 18.0543 41.8269 17.3106 42.4828 16.3564C43.1386 15.4021 43.4887 14.2803 43.4887 13.1326C43.4869 11.5942 42.8575 10.1193 41.7385 9.03153C40.6196 7.94372 39.1024 7.33182 37.52 7.33007ZM37.52 15.7702C36.9834 15.7702 36.4589 15.6155 36.0127 15.3257C35.5666 15.0359 35.2188 14.6239 35.0135 14.142C34.8081 13.66 34.7544 13.1297 34.8591 12.6181C34.9638 12.1065 35.2222 11.6365 35.6016 11.2676C35.981 10.8988 36.4644 10.6476 36.9907 10.5458C37.517 10.444 38.0625 10.4963 38.5582 10.6959C39.054 10.8955 39.4777 11.2336 39.7758 11.6673C40.0739 12.101 40.233 12.611 40.233 13.1326C40.233 13.8322 39.9472 14.503 39.4384 14.9977C38.9296 15.4923 38.2395 15.7702 37.52 15.7702ZM37.52 1C34.2112 1.00349 31.0389 2.28287 28.6993 4.55742C26.3596 6.83198 25.0436 9.91594 25.04 13.1326C25.04 23.3346 36.1146 30.9887 36.5867 31.3092C36.8603 31.4953 37.1861 31.5951 37.52 31.5951C37.8539 31.5951 38.1797 31.4953 38.4533 31.3092C40.5508 29.8064 42.4699 28.0814 44.1751 26.166C47.9856 21.9117 50 17.4015 50 13.1326C49.9964 9.91594 48.6804 6.83198 46.3407 4.55742C44.001 2.28287 40.8288 1.00349 37.52 1ZM41.7659 24.0402C40.4725 25.4845 39.0518 26.8162 37.52 28.0202C35.9882 26.8162 34.5675 25.4845 33.2741 24.0402C31.0087 21.4897 28.2957 17.5255 28.2957 13.1326C28.2957 10.7543 29.2675 8.47334 30.9974 6.79159C32.7273 5.10984 35.0736 4.16504 37.52 4.16504C39.9664 4.16504 42.3127 5.10984 44.0426 6.79159C45.7725 8.47334 46.7443 10.7543 46.7443 13.1326C46.7443 17.5255 44.0313 21.4897 41.7659 24.0402Z" fill="#FEFCEB"/>
</svg>
