<svg width="169" height="56" viewBox="0 0 169 56" fill="none" xmlns="http://www.w3.org/2000/svg">
<path d="M14.1941 46.6729C14.6903 46.6538 15.655 46.6175 16.5181 46.6175C17.381 46.6175 18.1427 46.6538 18.9296 46.6972C19.7164 46.7407 20.5288 46.7916 21.2976 46.7952C22.0664 46.7988 22.7916 46.7552 23.4553 46.6936C24.1189 46.632 24.7208 46.5522 25.0074 46.5122C25.2939 46.4724 25.2648 46.4724 25.2286 46.4688C25.1923 46.4651 25.1488 46.458 24.6738 46.3564C24.1987 46.2549 23.2921 46.0591 22.0846 45.7218C20.8769 45.3845 19.3684 44.9059 18.1245 44.409C16.8806 43.9123 15.9014 43.3972 15.1835 42.9694C14.4654 42.5414 14.0085 42.2006 13.7837 42.0338C13.5589 41.867 13.5661 41.8742 14.4981 42.1788C15.4301 42.4834 17.2869 43.0854 19.8253 43.7309C22.3638 44.3763 25.584 45.0655 28.7389 45.5731C31.8938 46.0809 34.9835 46.4072 38.1312 46.5522C41.2789 46.6972 44.4847 46.661 46.2906 46.6393C48.0965 46.6175 48.5026 46.6103 48.7165 46.5994C48.9306 46.5885 48.9524 46.574 49.2207 46.4253C49.4891 46.2767 50.0041 45.9937 50.5661 45.5948C51.1283 45.196 51.7375 44.681 52.2342 44.1841C52.7311 43.6873 53.1155 43.2088 53.4092 42.7591C53.7029 42.3093 53.9061 41.8887 54.0111 41.6603C54.1164 41.4318 54.1236 41.3955 54.1164 41.3884C54.1091 41.3811 54.0875 41.4028 53.1591 41.5732C52.2307 41.7437 50.3957 42.0627 48.5426 42.3021C46.6895 42.5414 44.8184 42.701 42.7912 42.7482C40.764 42.7953 38.581 42.73 35.6834 42.4182C32.786 42.1063 29.174 41.5478 25.8849 40.924C22.5959 40.3003 19.6294 39.6113 16.819 38.857C14.0085 38.1028 11.3541 37.2831 9.26392 36.627C7.1736 35.9707 5.64781 35.4777 4.34247 35.0673C3.03714 34.6569 1.95223 34.3289 1.2649 34.1398C0.577412 33.9506 0.287326 33.9 0.15487 33.8843C0.0223833 33.8685 0.0476731 33.8875 0.173799 34.0799C0.299896 34.2722 0.526859 34.6379 0.662495 34.8272C0.798132 35.0163 0.842203 35.029 1.47292 35.2372C2.10365 35.4452 3.32087 35.849 4.46876 36.3062C5.61649 36.7634 6.69501 37.2742 7.71983 37.9302C8.74463 38.586 9.71598 39.3869 10.4634 40.2005C11.2107 41.0141 11.7341 41.8404 12.1598 42.6288C12.5855 43.4171 12.9136 44.1676 13.128 44.7792C13.3424 45.391 13.4434 45.8641 13.5054 46.1595C13.5673 46.455 13.5903 46.5729 13.6069 46.6328C13.6232 46.6926 13.6329 46.6941 13.6517 46.6939C13.6703 46.6938 13.698 46.6921 14.1941 46.6729ZM42.282 34.7899C42.3923 34.7899 42.5792 34.7951 42.676 34.801C42.7729 34.8067 42.7795 34.8136 42.7829 34.8169C42.7864 34.8202 42.7863 34.8202 43.0093 35.0746C43.2325 35.3288 43.6787 35.8371 43.9059 36.0915C44.1333 36.3457 44.1416 36.3457 44.14 36.3525C44.1385 36.3592 44.1265 36.3725 44.07 36.4062C44.0137 36.4398 43.9126 36.4938 43.8528 36.5216C43.7931 36.5493 43.7745 36.551 43.7551 36.5493C43.7359 36.5475 43.7156 36.5425 43.4404 36.2504C43.1651 35.9584 42.6348 35.3792 42.3863 35.0871C42.138 34.7951 42.1718 34.7899 42.282 34.7899ZM31.3349 37.899C31.4921 37.9422 31.7773 38.0213 31.9306 38.0672C32.0842 38.1129 32.1059 38.1257 32.1276 38.1402C32.1493 38.1546 32.1709 38.1707 32.4864 38.5043C32.8021 38.8378 33.4117 39.4887 33.8176 39.9269C34.2237 40.3652 34.4261 40.5911 34.5263 40.7095C34.6267 40.8279 34.6249 40.8387 34.5233 40.8414C34.422 40.8441 34.2213 40.8384 34.11 40.8321C33.9987 40.8256 33.9769 40.8185 33.5044 40.3416C33.0319 39.8647 32.1084 38.9182 31.6359 38.4233C31.1634 37.9282 31.1416 37.8849 31.1452 37.8669C31.1489 37.8487 31.1779 37.8559 31.3349 37.899ZM28.4152 37.3499C28.5704 37.3885 28.8549 37.4634 29.0064 37.5102C29.1578 37.5569 29.1763 37.5753 29.5209 38.0071C29.8653 38.4389 30.536 39.2843 30.9845 39.8738C31.4333 40.4633 31.6599 40.797 31.7702 40.9625C31.8805 41.1278 31.8743 41.1248 31.7739 41.1163C31.6736 41.1078 31.4789 41.0941 31.3785 41.081C31.2781 41.0679 31.2719 41.0556 31.2489 41.0511C31.226 41.0464 31.1862 41.0496 30.6701 40.4311C30.1538 39.8125 29.1614 38.5723 28.6647 37.9476C28.168 37.3229 28.1669 37.3135 28.1734 37.3095C28.1799 37.3052 28.194 37.3063 28.214 37.308C28.2338 37.3095 28.2599 37.3113 28.4152 37.3499ZM6.654 32.8145C8.08924 30.9528 10.927 27.2613 12.346 25.4243C13.7649 23.5872 13.7649 23.6046 13.7735 23.6738C13.7822 23.743 13.7996 23.8643 13.7996 23.9335C13.7996 24.0027 13.7822 24.0201 12.8506 25.9878C11.9189 27.9555 10.0728 31.8736 9.14415 33.8371C8.21534 35.8004 8.204 35.809 8.09938 35.7731C7.99462 35.7372 7.79658 35.657 7.69907 35.6153C7.6016 35.5737 7.60445 35.5709 7.60886 35.5595C7.61309 35.548 7.6187 35.5278 8.26151 34.2109C8.9042 32.8938 10.1841 30.2797 10.8241 28.9698C11.4638 27.6599 11.4638 27.6542 11.4596 27.6571C11.4552 27.6601 11.4466 27.6715 10.5075 28.8884C9.56838 30.1053 7.69892 32.5275 6.7627 33.7415C5.82647 34.9556 5.82359 34.9612 5.80649 34.964C5.78936 34.967 5.75789 34.967 5.64238 34.9377C5.52685 34.9085 5.32715 34.8499 5.2274 34.8186C5.12746 34.7872 5.12746 34.7828 5.13184 34.7743C5.13611 34.7657 5.14457 34.753 5.16533 34.7306C5.18591 34.7082 5.21861 34.6761 6.654 32.8145ZM26.3362 16.0421V16.9683C26.606 16.9151 26.8761 16.8631 27.1465 16.8123V15.9086C27.5688 15.8432 27.9665 15.7882 28.3409 15.742C29.5009 15.5988 30.4359 15.539 30.9095 15.5092C31.383 15.4794 31.3948 15.4794 31.3888 15.4735C31.3829 15.4674 31.3591 15.4556 31.2118 15.2249C31.0647 14.994 30.7939 14.5443 30.5573 13.9713C30.3205 13.3983 30.1175 12.702 29.9962 11.9718C29.8748 11.2416 29.8352 10.4776 29.8611 9.79127C29.8868 9.10484 29.9784 8.49592 30.1475 7.92091C30.3166 7.34591 30.5632 6.80483 30.6827 6.53626C30.802 6.26753 30.7941 6.27161 30.7941 6.26963C30.7941 6.26753 30.802 6.25964 29.7536 6.81875C28.705 7.37771 26.6 8.50393 24.8532 9.57235C23.1062 10.6408 21.7174 11.6515 20.5715 12.6384C19.4255 13.6252 18.5221 14.5881 17.771 15.6206C17.0198 16.653 16.4206 17.7547 16.1135 18.3311C15.8065 18.9074 15.7916 18.9583 15.7932 18.9763C15.7947 18.9942 15.8126 18.9793 15.8291 18.9721C15.8456 18.9647 15.8609 18.965 16.3459 18.7762C16.831 18.5872 17.786 18.2092 19.2087 17.7715C20.6312 17.3338 22.5212 16.8363 24.1587 16.4743C24.9402 16.3002 25.6657 16.159 26.3362 16.0421ZM26.3362 22.1034V22.6165V23.023C26.6062 23.0036 26.8763 22.9859 27.1465 22.9695V22.5797V22.0674C27.8072 22.0424 28.4759 22.028 29.1112 22.028C30.1869 22.028 31.167 22.0693 31.6513 22.0881C32.1358 22.1069 32.1244 22.1031 32.0887 22.0506C32.0531 21.9979 31.9932 21.8966 31.9049 21.6977C31.8166 21.4986 31.7002 21.2019 31.61 20.8903C31.5199 20.5785 31.4562 20.252 31.4374 19.7C31.4186 19.148 31.4448 18.3707 31.565 17.8057C31.6852 17.2405 31.8991 16.8875 32.0024 16.7129C32.1056 16.5384 32.0982 16.542 31.8935 16.5665C31.6889 16.5909 31.2872 16.6359 30.6114 16.7373C29.9354 16.8388 28.9854 16.9964 27.7913 17.2142C26.5972 17.4319 25.159 17.7099 23.5182 18.1117C21.8772 18.5134 20.0336 19.0391 18.6762 19.4709C17.3188 19.9027 16.4475 20.2408 16.0119 20.4097C15.5764 20.5787 15.5764 20.5787 15.537 20.7327C15.4975 20.8866 15.4188 21.1944 15.3099 21.7933C15.2009 22.3923 15.0621 23.2822 14.989 23.7392C14.9158 24.1961 14.9087 24.2201 14.9244 24.2269C14.9401 24.2335 14.9787 24.2228 15.4216 24.0776C15.8645 23.9323 16.7118 23.6522 18.0104 23.3452C19.3089 23.0381 21.0586 22.7038 22.4142 22.4937C23.7696 22.2834 24.731 22.197 25.7974 22.1332C25.9733 22.1234 26.1533 22.1129 26.3362 22.1034ZM26.3362 27.8489V28.3623V28.6607C26.4746 28.6642 26.6129 28.6679 26.7511 28.6722C26.8829 28.6763 27.0147 28.6808 27.1465 28.6857V28.3959V27.8822C27.4849 27.899 27.8248 27.9193 28.1692 27.944C29.476 28.0372 30.848 28.1913 31.6359 28.2898C32.4237 28.388 32.6275 28.4306 32.742 28.4539C32.8566 28.4772 32.882 28.4814 32.8629 28.4284C32.8439 28.3753 32.7801 28.2651 32.7123 27.9892C32.6445 27.7134 32.5723 27.2722 32.5256 26.6654C32.479 26.0586 32.4576 25.2863 32.5212 24.6945C32.585 24.1026 32.7335 23.691 32.8013 23.4852C32.8693 23.2795 32.8566 23.2795 32.7865 23.2795C32.7165 23.2795 32.5892 23.2795 31.7405 23.3006C30.8919 23.3218 29.3221 23.3642 27.7754 23.447C26.2287 23.5297 24.7056 23.6528 23.2099 23.8438C21.7141 24.0348 20.2459 24.2935 18.8479 24.5948C17.4497 24.8961 16.1215 25.2397 15.4575 25.4116C14.7935 25.5834 14.7935 25.5834 14.7871 25.594C14.7808 25.6046 14.7679 25.6258 14.681 26.1434C14.594 26.661 14.4327 27.6752 14.3635 28.1847C14.2944 28.694 14.3174 28.6988 14.3428 28.6966C14.3682 28.6942 14.3962 28.6849 14.7243 28.6083C15.0522 28.5317 15.6802 28.3877 16.6116 28.2522C17.543 28.1166 18.7778 27.9892 20.123 27.9129C21.468 27.8365 22.9233 27.811 24.272 27.8145C24.9826 27.8172 25.6622 27.8257 26.3362 27.8489ZM26.3362 33.8289V34.3491V34.8472C26.6065 34.8933 26.8766 34.9407 27.1465 34.9889V34.4841V33.9638C27.363 34.0007 27.5874 34.0396 27.8216 34.0809C29.3682 34.3535 31.3423 34.7271 32.3499 34.9142C33.3575 35.1012 33.3984 35.1017 33.3595 34.9475C33.3206 34.7933 33.2017 34.4844 33.1008 34.1041C32.9998 33.7238 32.9165 33.2723 32.865 32.7237C32.8136 32.175 32.7938 31.5295 32.8373 31.0205C32.8809 30.5115 32.9878 30.1391 33.0513 29.9469C33.1147 29.7548 33.1344 29.743 32.8491 29.6955C32.5641 29.6479 31.9738 29.5646 30.934 29.4617C29.8942 29.3587 28.4049 29.236 26.7353 29.1845C25.0657 29.133 23.2158 29.1527 21.5998 29.2181C19.9837 29.2835 18.6013 29.3943 17.4189 29.541C16.2364 29.6876 15.2542 29.8697 14.7551 29.9648C14.2559 30.0599 14.2401 30.0679 14.2303 30.0758C14.2203 30.0836 14.2162 30.0917 14.2143 30.2343C14.2125 30.3768 14.2125 30.6541 14.2389 31.1617C14.2656 31.6692 14.3189 32.4071 14.3396 32.7702C14.3604 33.1332 14.3485 33.1213 14.3398 33.1153C14.3308 33.1094 14.3248 33.1094 14.6032 33.0858C14.8815 33.0621 15.444 33.0148 16.4004 33.0059C17.3568 32.997 18.7069 33.0266 20.0453 33.1096C21.3835 33.1924 22.71 33.3285 23.9328 33.4825C24.7283 33.5839 25.481 33.6899 26.3362 33.8289ZM27.1465 37.0665C26.8767 37.0262 26.6065 36.9875 26.3362 36.9501V39.9135H27.1465V37.0665ZM39.5157 34.3524C39.2889 34.335 39.0617 34.3188 38.8344 34.3041V37.6706H39.6447V34.3624C39.6017 34.3591 39.5587 34.3557 39.5157 34.3524ZM39.6447 32.3941V32.0096C40.3642 32.0583 41.0969 32.1216 41.7845 32.1979C42.877 32.319 43.8555 32.4727 44.4681 32.5752C45.0807 32.6777 45.3277 32.729 45.4511 32.7523C45.5746 32.7755 45.5746 32.7709 45.5116 32.6009C45.4488 32.4307 45.323 32.0954 45.2647 31.6342C45.2066 31.1729 45.2158 30.5858 45.2764 30.092C45.337 29.5981 45.4488 29.1975 45.5047 28.9856C45.5607 28.7734 45.5607 28.7503 45.5676 28.7294C45.5746 28.7084 45.5887 28.6897 44.9224 28.6595C44.2562 28.6292 42.9097 28.5872 41.7287 28.5825C40.5476 28.5779 39.5321 28.6106 38.4537 28.7061C37.3754 28.8015 36.2344 28.96 35.5457 29.0693C34.8571 29.1786 34.6209 29.2389 34.505 29.269C34.3891 29.2991 34.3939 29.2991 34.5363 29.7115C34.6788 30.1238 34.959 30.9486 35.1062 31.3725C35.2533 31.7964 35.2671 31.8196 35.2798 31.8335C35.2927 31.8474 35.3042 31.852 35.3216 31.8568C35.3392 31.8616 35.3623 31.8668 35.8562 31.8739C36.35 31.881 37.3144 31.8904 38.4 31.9393C38.542 31.9473 38.687 31.9535 38.8344 31.9607V32.3453V32.6386C38.9365 32.6463 39.0387 32.6543 39.1407 32.6628C39.3088 32.6768 39.4768 32.6916 39.6447 32.7073V32.3941ZM39.6447 27.9087V27.524L39.9007 27.5157C40.813 27.4892 41.7091 27.4973 42.4916 27.5237C43.2741 27.55 43.943 27.5945 44.3828 27.625C44.8228 27.6554 45.0337 27.6716 45.139 27.6798C45.2444 27.6878 45.2444 27.6878 45.1816 27.5581C45.1188 27.4283 44.9931 27.169 44.9201 26.8324C44.8472 26.4959 44.8268 26.0824 44.8537 25.7057C44.8805 25.3289 44.9542 24.9888 45.0387 24.7347C45.1231 24.4803 45.2181 24.3118 45.2701 24.2199C45.3224 24.1279 45.3315 24.1124 45.3422 24.1002C45.353 24.0879 45.3652 24.0788 44.637 24.1126C43.9089 24.1462 42.4404 24.2228 41.1773 24.3362C39.9142 24.4496 38.8564 24.5999 37.975 24.7533C37.0935 24.9065 36.3885 25.0627 35.7476 25.2344C35.1069 25.4061 34.5306 25.5932 34.2423 25.6883C33.9542 25.7832 33.9542 25.7864 33.9557 25.7941C33.9572 25.8017 33.9604 25.814 34.0288 26.1967C34.0973 26.5794 34.2311 27.3326 34.2995 27.7113C34.3681 28.0899 34.3711 28.0942 34.3863 28.0948C34.4014 28.0954 34.4287 28.0924 34.8882 28.02C35.3478 27.9474 36.2397 27.8054 37.1498 27.7042C37.7069 27.6413 38.2719 27.5948 38.8344 27.5621V27.9471V28.2894C39.1047 28.2695 39.3746 28.2533 39.6447 28.2402V27.9087ZM39.6447 23.7589V23.3724C40.3776 23.2947 41.0916 23.2434 41.7538 23.2084C42.564 23.1657 43.2966 23.1477 43.7442 23.1387C44.192 23.1296 44.3551 23.1296 44.4328 23.127C44.5104 23.1243 44.5027 23.1191 44.4575 22.9444C44.4122 22.7697 44.3292 22.4256 44.3085 22.0179C44.2879 21.6101 44.3292 21.1391 44.4055 20.7431C44.482 20.347 44.5932 20.0261 44.698 19.797C44.8029 19.568 44.9012 19.4308 44.9555 19.3571C45.01 19.2832 45.0204 19.2729 44.4936 19.335C43.9669 19.3971 42.9031 19.5316 41.7382 19.7362C40.5735 19.9406 39.3079 20.215 38.2414 20.492C37.175 20.7688 36.308 21.0485 35.552 21.3254C34.7963 21.6023 34.1518 21.8768 33.8191 22.0191C33.4865 22.1614 33.4659 22.1718 33.4555 22.1835C33.4452 22.1951 33.4452 22.208 33.5061 22.5005C33.5669 22.793 33.6885 23.3651 33.7622 23.7703C33.8361 24.1753 33.862 24.4134 33.8774 24.5312C33.893 24.649 33.8982 24.6463 33.9124 24.6385C33.9266 24.6308 33.95 24.6178 33.9849 24.6049C34.0199 24.5919 34.0664 24.579 34.4713 24.4522C34.8765 24.3253 35.6401 24.0846 36.4827 23.8879C37.2283 23.7105 38.0337 23.5784 38.8344 23.4687V23.8564V24.2258C39.1041 24.186 39.3743 24.1491 39.6447 24.1148V23.7589ZM38.8344 19.9471C39.1036 19.882 39.3739 19.8194 39.6447 19.7593V19.0687L39.8924 19.0183C41.1385 18.7683 42.3231 18.5904 43.0077 18.4962C43.6923 18.4021 43.8771 18.3918 43.9764 18.3833C44.0758 18.3747 44.0894 18.3679 44.0098 18.2611C43.9301 18.1544 43.7572 17.9479 43.5625 17.5803C43.3678 17.2126 43.1516 16.6837 43.0174 16.139C42.8832 15.5943 42.8311 15.0335 42.8371 14.4849C42.8431 13.936 42.9073 13.3992 42.9954 12.9866C43.0835 12.5741 43.1956 12.2857 43.3418 12.0094C43.4881 11.7329 43.6682 11.4686 43.7683 11.3264C43.8685 11.1843 43.8887 11.1641 43.8826 11.1622C43.8765 11.1604 43.8446 11.1761 43.0154 11.6368C42.1862 12.0973 40.5601 13.0027 39.2261 13.8579C37.8923 14.713 36.8509 15.5181 35.9355 16.3593C35.0203 17.2004 34.2313 18.0776 33.7065 18.7206C33.1818 19.3634 32.9215 19.7719 32.7872 19.9963C32.6531 20.2207 32.6451 20.2606 32.6329 20.3168C32.621 20.3728 32.6051 20.445 32.6331 20.5791C32.6611 20.7133 32.7333 20.9096 32.7833 21.0138C32.8334 21.1178 32.8614 21.1299 32.9032 21.1295C32.9451 21.1289 33.0007 21.1157 33.5242 20.9107C34.0479 20.7057 35.0395 20.3088 36.1891 19.9494C37.0168 19.6912 37.9258 19.4525 38.8344 19.2447V19.9471ZM49.9904 25.5755C49.9904 26.5119 49.2367 27.2721 48.3029 27.2825V27.3491C49.234 27.3596 49.9858 28.1153 49.9904 29.0478H50.0877C50.0923 28.1153 50.8441 27.3596 51.7752 27.3491V27.2825C50.8414 27.2721 50.0877 26.5119 50.0877 25.5755H49.9904ZM47.2168 54.117C46.7623 53.9971 45.9293 53.7771 44.9866 53.4406C44.0438 53.1042 42.991 52.6512 42.0558 52.2712C41.1207 51.8913 40.3028 51.5844 39.4826 51.3934C38.6625 51.2025 37.8396 51.1271 37.1444 51.1011C36.4492 51.075 35.8813 51.0981 35.2874 51.1734C34.6936 51.2488 34.0737 51.3763 33.4705 51.6002C32.8675 51.8243 32.2814 52.1448 31.914 52.3326C31.5467 52.5205 31.398 52.576 31.5636 52.5576C31.7293 52.5393 32.2092 52.4473 32.93 52.3869C33.6508 52.3264 34.6125 52.2974 35.551 52.3611C36.4896 52.4248 37.4051 52.5814 38.2307 52.7667C39.0562 52.9522 39.7922 53.1665 40.5874 53.387C41.3827 53.6074 42.2377 53.8337 43.0575 53.9907C43.8773 54.1479 44.662 54.2355 45.4411 54.2831C46.2201 54.3308 46.9936 54.3385 47.3898 54.3308C47.786 54.3232 47.805 54.3004 47.7764 54.2788C47.7477 54.2574 47.6714 54.2371 47.2168 54.117ZM35.835 54.8728C35.3589 54.7217 34.5424 54.4696 33.8494 54.3184C32.2072 53.9603 29.1622 53.9603 27.52 54.3184C26.8271 54.4696 26.0106 54.7217 25.5344 54.8728C25.0582 55.024 24.9221 55.0743 25.3152 55.0919C25.7082 55.1096 26.6304 55.0946 27.7992 55.097C29.731 55.1014 31.6384 55.1014 33.5703 55.097C34.739 55.0946 35.6612 55.1096 36.0542 55.0919C36.4474 55.0743 36.3113 55.024 35.835 54.8728ZM48.1068 52.6565C48.4027 52.5119 48.9196 52.2577 49.4452 52.111C49.971 51.9643 50.5054 51.9248 50.9785 51.9577C51.4517 51.9907 51.8635 52.0957 52.2139 52.2228C52.5644 52.3499 52.8536 52.4987 53.0178 52.5885C53.1821 52.6785 53.2216 52.709 53.2172 52.7243C53.2128 52.7398 53.1646 52.7398 52.9411 52.7529C52.7178 52.7661 52.319 52.7923 51.7166 52.8317C51.1143 52.8712 50.3083 52.9237 49.7059 52.9281C49.1036 52.9325 48.7049 52.8886 48.3981 52.871C48.0916 52.8536 47.877 52.8624 47.8069 52.8492C47.7368 52.836 47.8112 52.8011 48.1068 52.6565ZM58.5279 49.8327C58.2486 49.7237 57.7621 49.5324 57.3827 49.431C57.0033 49.3297 56.7311 49.3182 56.4067 49.3586C56.0824 49.3992 55.706 49.4919 55.3092 49.6251C54.9126 49.7583 54.4955 49.9321 54.038 50.0045C53.5804 50.077 53.0823 50.0479 52.4336 49.9408C51.785 49.8337 50.9856 49.6483 50.0444 49.3673C49.1033 49.0864 48.0203 48.7101 47.2469 48.4725C46.4737 48.2351 46.0105 48.1366 45.5153 48.0816C45.02 48.0267 44.4929 48.015 43.8501 48.1163C43.2072 48.2177 42.4484 48.4321 41.8374 48.6057C41.2264 48.7795 40.7631 48.9128 40.2476 48.9765C39.7321 49.0403 39.1645 49.0344 38.6606 49.0227C38.1568 49.0112 37.7166 48.9939 37.1141 48.8839C36.5119 48.7738 35.7473 48.5711 34.9799 48.3393C34.2125 48.1076 33.4422 47.8471 32.7963 47.6819C31.4159 47.3292 29.9535 47.3292 28.5731 47.6819C27.9273 47.8471 27.157 48.1076 26.3895 48.3393C25.6221 48.5711 24.8576 48.7738 24.2553 48.8839C23.6529 48.9939 23.2126 49.0112 22.7088 49.0227C22.2049 49.0344 21.6374 49.0403 21.1219 48.9765C20.6063 48.9128 20.1431 48.7795 19.5321 48.6057C18.921 48.4321 18.1622 48.2177 17.5194 48.1163C16.8766 48.015 16.3494 48.0267 15.8542 48.0816C15.359 48.1366 14.8957 48.2351 14.1225 48.4725C13.3492 48.7101 12.2661 49.0864 11.325 49.3673C10.3838 49.6483 9.58443 49.8337 8.93583 49.9408C8.2871 50.0479 7.78902 50.077 7.33149 50.0045C6.87397 49.9321 6.45689 49.7583 6.06021 49.6251C5.66341 49.4919 5.28704 49.3992 4.96276 49.3586C4.63832 49.3182 4.36609 49.3297 3.98669 49.431C3.60729 49.5324 3.12087 49.7237 2.84153 49.8327C2.56222 49.9417 2.49001 49.9686 2.55178 49.9953C2.61337 50.0221 2.80868 50.0485 3.3413 50.1645C3.87376 50.2806 4.74339 50.4864 5.50458 50.6089C6.26566 50.7313 6.9182 50.7709 7.74828 50.7621C8.57824 50.7533 9.58548 50.6964 10.4703 50.5758C11.355 50.4555 12.1171 50.2714 12.969 50.094C13.8209 49.9167 14.7626 49.7457 15.4332 49.664C16.1035 49.5824 16.5028 49.5898 17.0475 49.659C17.5921 49.7282 18.282 49.8591 18.9041 49.9674C19.5261 50.0758 20.0801 50.1613 20.6015 50.194C21.1228 50.2269 21.6115 50.2067 22.0446 50.1589C22.4778 50.1111 22.8555 50.0354 23.4323 49.9648C24.009 49.8944 24.7846 49.8289 25.3211 49.786C25.8575 49.7433 26.1547 49.7232 26.6139 49.6382C27.0731 49.5535 27.6941 49.4041 28.3291 49.2915C30.1535 48.9688 31.2159 48.9688 33.0404 49.2915C33.6753 49.4041 34.2964 49.5535 34.7555 49.6382C35.2147 49.7232 35.5119 49.7433 36.0483 49.786C36.5849 49.8289 37.3605 49.8944 37.9371 49.9648C38.5139 50.0354 38.8917 50.1111 39.3248 50.1589C39.758 50.2067 40.2467 50.2269 40.7679 50.194C41.2893 50.1613 41.8433 50.0758 42.4654 49.9674C43.0875 49.8591 43.7774 49.7282 44.3219 49.659C44.8667 49.5898 45.2659 49.5824 45.9363 49.664C46.6068 49.7457 47.5485 49.9167 48.4004 50.094C49.2523 50.2714 50.0144 50.4555 50.8992 50.5758C51.7839 50.6964 52.7912 50.7533 53.6211 50.7621C54.4513 50.7709 55.1038 50.7313 55.8648 50.6089C56.6261 50.4864 57.4957 50.2806 58.0281 50.1645C58.5607 50.0485 58.7561 50.0221 58.8177 49.9953C58.8794 49.9686 58.8072 49.9417 58.5279 49.8327ZM14.1526 54.117C14.6071 53.9971 15.4401 53.7771 16.3829 53.4406C17.3256 53.1042 18.3784 52.6512 19.3136 52.2712C20.2488 51.8913 21.0666 51.5844 21.8869 51.3934C22.707 51.2025 23.5298 51.1271 24.225 51.1011C24.9202 51.075 25.4881 51.0981 26.0821 51.1734C26.6758 51.2488 27.2958 51.3763 27.899 51.6002C28.502 51.8243 29.088 52.1448 29.4555 52.3326C29.8227 52.5205 29.9714 52.576 29.8058 52.5576C29.6402 52.5393 29.1602 52.4473 28.4394 52.3869C27.7186 52.3264 26.757 52.2974 25.8185 52.3611C24.8798 52.4248 23.9643 52.5814 23.1388 52.7667C22.3132 52.9522 21.5773 53.1665 20.782 53.387C19.9867 53.6074 19.1318 53.8337 18.3119 53.9907C17.4921 54.1479 16.7074 54.2355 15.9284 54.2831C15.1493 54.3308 14.3758 54.3385 13.9796 54.3308C13.5834 54.3232 13.5645 54.3004 13.5931 54.2788C13.6217 54.2574 13.698 54.2371 14.1526 54.117ZM13.2626 52.6565C12.9668 52.5119 12.4499 52.2577 11.9242 52.111C11.3984 51.9643 10.864 51.9248 10.3909 51.9577C9.9178 51.9907 9.506 52.0957 9.15553 52.2228C8.80502 52.3499 8.51587 52.4987 8.35161 52.5885C8.18735 52.6785 8.14783 52.709 8.15221 52.7243C8.15659 52.7398 8.2049 52.7398 8.42835 52.7529C8.65168 52.7661 9.05043 52.7923 9.65286 52.8317C10.2551 52.8712 11.0611 52.9237 11.6635 52.9281C12.2658 52.9325 12.6646 52.8886 12.9713 52.871C13.2779 52.8536 13.4924 52.8624 13.5625 52.8492C13.6326 52.836 13.5583 52.8011 13.2626 52.6565ZM27.1465 2.01845C27.1828 2.17755 27.2316 2.35258 27.3058 2.48657C27.4161 2.68596 27.5825 2.7945 27.7722 2.84295C27.9621 2.89123 28.1749 2.87958 28.4014 2.81766C28.6281 2.75559 28.868 2.64341 29.1371 2.52926C29.4063 2.41495 29.7045 2.29882 30.018 2.25433C30.3317 2.2098 30.6609 2.23689 30.9687 2.31625C31.2766 2.39557 31.563 2.52728 31.8399 2.74212C32.1169 2.95696 32.3839 3.2552 32.6258 3.45261C32.8679 3.65002 33.0847 3.74693 33.3538 3.79538C33.6229 3.84368 33.9443 3.84368 34.2424 3.78371C34.5407 3.72362 34.8155 3.6037 34.9878 3.51847C35.1601 3.43323 35.2298 3.38298 35.2627 3.3636C35.2957 3.34422 35.2918 3.35586 35.2162 3.48562C35.1408 3.61537 34.9937 3.86306 34.7826 4.09741C34.5716 4.33163 34.2967 4.5522 34.0488 4.70905C33.801 4.86589 33.5804 4.95887 33.3112 4.9802C33.0422 5.00141 32.7247 4.95113 32.4381 4.83304C32.1517 4.71481 31.8961 4.52904 31.6463 4.36448C31.3966 4.19992 31.1526 4.05669 30.8913 3.99279C30.63 3.92892 30.3511 3.94449 30.0568 4.02579C29.7626 4.1071 29.4529 4.2541 29.1837 4.41488C28.9147 4.57551 28.6862 4.74979 28.4615 4.85635C28.237 4.9628 28.0163 5.00141 27.8343 5.00141C27.6523 5.00141 27.509 4.9628 27.3986 4.92404C27.2929 4.88696 27.2174 4.84969 27.1465 4.75129V7.24282L26.3362 7.62813V1.57017C26.2818 1.49097 26.2498 1.39499 26.2498 1.29158C26.2498 1.01997 26.4698 0.800003 26.7414 0.800003C27.013 0.800003 27.233 1.01997 27.233 1.29158C27.233 1.39499 27.201 1.49097 27.1465 1.57017V2.01845ZM39.6447 7.03872C39.681 7.19785 39.7298 7.37288 39.804 7.50687C39.9144 7.70625 40.0807 7.8148 40.2704 7.86325C40.4603 7.91152 40.6732 7.89988 40.8997 7.83796C41.1263 7.77589 41.3662 7.66371 41.6353 7.54956C41.9045 7.43525 42.2027 7.31912 42.5162 7.27462C42.8299 7.2301 43.1591 7.25719 43.4669 7.33652C43.7748 7.41587 44.0612 7.54758 44.3381 7.76242C44.6151 7.97723 44.8821 8.2755 45.124 8.47291C45.3661 8.67032 45.5829 8.76723 45.852 8.81568C46.1211 8.86395 46.4425 8.86395 46.7407 8.80401C47.0389 8.74392 47.3137 8.624 47.486 8.53877C47.6583 8.45353 47.728 8.40328 47.7609 8.3839C47.7939 8.36452 47.79 8.37616 47.7144 8.50591C47.639 8.63567 47.4919 8.88333 47.2808 9.1177C47.0698 9.35192 46.7949 9.5725 46.547 9.72934C46.2992 9.88619 46.0786 9.97913 45.8094 10.0005C45.5404 10.0217 45.2229 9.97143 44.9363 9.85334C44.6499 9.7351 44.3943 9.54934 44.1445 9.38478C43.8949 9.22019 43.6508 9.07699 43.3895 9.01309C43.1282 8.94922 42.8493 8.96479 42.555 9.04609C42.2608 9.1274 41.9511 9.2744 41.6819 9.43518C41.4129 9.59581 41.1844 9.77009 40.9597 9.87665C40.7352 9.9831 40.5145 10.0217 40.3325 10.0217C40.1505 10.0217 40.0072 9.9831 39.8968 9.94433C39.7911 9.90722 39.7156 9.86999 39.6447 9.77158V12.2631L38.8344 12.6484V6.59044C38.78 6.51126 38.748 6.41529 38.748 6.31188C38.748 6.04027 38.968 5.8203 39.2396 5.8203C39.5112 5.8203 39.7312 6.04027 39.7312 6.31188C39.7312 6.41529 39.6992 6.51126 39.6447 6.59044V7.03872ZM36.2922 33.0557C36.4068 33.2039 36.6147 33.4773 36.7254 33.6298C36.8362 33.7821 36.8501 33.8131 36.8674 33.8252C36.8846 33.8374 36.9055 33.8306 37.3226 33.8445C37.7399 33.8582 38.5534 33.8928 39.5453 33.9691C40.5372 34.0452 41.7075 34.1628 42.7495 34.3014C43.7916 34.4399 44.7057 34.599 45.1834 34.6821C45.6612 34.7653 45.7028 34.7721 45.7183 34.7687C45.7339 34.7653 45.7236 34.7513 45.6889 34.6216C45.6542 34.4917 45.5955 34.246 45.566 34.1144C45.5366 33.9828 45.5366 33.9654 45.528 33.9533C45.5193 33.9412 45.5019 33.9344 44.9566 33.8392C44.4114 33.7439 43.3382 33.5605 42.2596 33.4065C41.1812 33.2524 40.0976 33.1276 39.1091 33.0459C38.1208 32.964 37.2277 32.9249 36.7479 32.9014C36.2681 32.8778 36.2017 32.8698 36.1791 32.8772C36.1566 32.8846 36.1776 32.9075 36.2922 33.0557ZM32.6719 37.5229C31.7293 37.3404 29.8638 36.9793 28.0856 36.6934C26.3073 36.4076 24.6162 36.197 22.9975 36.0617C21.3788 35.9262 19.8321 35.8661 18.5263 35.9082C17.2205 35.9502 16.1553 36.0947 15.6259 36.1669C15.0963 36.2391 15.1022 36.2391 15.1052 36.2332C15.1083 36.2271 15.1083 36.215 15.0215 35.9133C14.9347 35.6116 14.7612 35.0202 14.6784 34.7206C14.5956 34.4208 14.6036 34.4128 14.6056 34.4089C14.6077 34.4049 14.6035 34.4049 14.9914 34.3812C15.3791 34.3574 16.1587 34.31 17.5556 34.3674C18.9524 34.4248 20.9664 34.5869 23.0715 34.8659C25.1767 35.145 27.3728 35.5406 29.1021 35.875C30.8314 36.2093 32.0935 36.4824 32.7287 36.6209C33.3638 36.7593 33.3718 36.7632 33.3816 36.7672C33.3914 36.7711 33.4034 36.7752 33.4093 36.7772C33.4152 36.7793 33.4152 36.7793 33.455 36.9349C33.4949 37.0905 33.5743 37.4018 33.6043 37.5556C33.6343 37.7093 33.6144 37.7054 32.6719 37.5229ZM46.9117 33.9558C46.9058 33.9582 46.9034 33.9626 46.8162 34.1117C46.7291 34.2608 46.5571 34.5544 46.4669 34.7033C46.3767 34.8523 46.3682 34.8567 46.3811 34.8588C46.394 34.8609 46.4283 34.8609 47.9803 34.8609C49.5322 34.8609 52.6018 34.8609 54.1386 34.8609C55.6756 34.8609 55.68 34.8609 55.6777 34.8609C55.6756 34.8609 55.667 34.8609 55.7573 34.7048C55.8479 34.5487 56.0373 34.2367 56.1342 34.0829C56.2312 33.9289 56.2354 33.9332 56.2332 33.938C56.2311 33.9427 56.2223 33.9477 54.6741 33.9503C53.1259 33.953 50.0384 33.953 48.4922 33.953C46.9459 33.953 46.9413 33.953 46.9341 33.9531C46.927 33.9533 46.9176 33.9534 46.9117 33.9558ZM35.1991 40.8895C35.3925 40.7937 35.7623 40.6126 36.0316 40.4416C36.3011 40.2705 36.4703 40.1091 36.5645 40.0266C36.659 39.9439 36.6787 39.94 36.7063 39.9419C36.7338 39.944 36.7693 39.9518 37.5284 39.9557C38.2876 39.9596 39.7705 39.9596 40.6772 39.9675C41.584 39.9754 41.9143 39.9911 42.3844 39.9244C42.8545 39.8575 43.4643 39.7079 43.9795 39.5053C44.4948 39.3028 44.9157 39.047 45.134 38.9114C45.3523 38.7756 45.3681 38.76 45.3642 38.7561C45.3602 38.7521 45.3366 38.76 44.953 38.8092C44.5695 38.8583 43.8261 38.9488 43.1515 38.998C42.4769 39.047 41.871 39.0549 40.9645 39.001C40.058 38.9469 38.8508 38.8308 38.2455 38.7712C37.6402 38.7115 37.6371 38.7083 37.6734 38.6208C37.7097 38.5332 37.7857 38.3612 37.8254 38.2704C37.8651 38.1794 37.8684 38.1695 37.8749 38.1645C37.8816 38.1595 37.8915 38.1595 38.5874 38.1595C39.2832 38.1595 40.665 38.1595 41.3971 38.1562C42.1294 38.1529 42.2121 38.1464 42.4154 38.0902C42.6187 38.0339 42.9426 37.9282 43.2747 37.758C43.6071 37.5877 43.9476 37.3529 44.3029 37.0769C44.6582 36.8009 45.0285 36.4836 45.2499 36.2836C45.4713 36.0836 45.5442 36.0009 45.587 35.9596C45.63 35.9183 45.6433 35.9183 45.6532 35.9183C45.6632 35.9183 45.6697 35.9183 47.3076 35.9183C48.9456 35.9183 52.215 35.9183 53.851 35.9133C55.487 35.9083 55.4895 35.8981 55.4909 35.8981C55.4924 35.8981 55.4924 35.9083 55.3289 36.5226C55.1657 37.1368 54.8393 38.3553 54.6729 38.9616C54.5067 39.5678 54.5008 39.5618 54.4971 39.5607C54.4936 39.5595 54.4926 39.5637 53.8873 39.6945C53.282 39.8255 52.0725 40.0833 51.071 40.2835C50.0697 40.4835 49.2762 40.6256 48.0134 40.7479C46.7508 40.8703 45.0185 40.9726 43.6186 41.0239C42.2186 41.0751 41.151 41.0751 39.7567 41.0686C38.3625 41.0619 36.6418 41.0486 35.7899 41.0373C34.9381 41.0259 34.9552 41.0165 34.972 41.0064C34.989 40.9962 35.006 40.9854 35.1991 40.8895Z" fill="#FCF0B5"/>
<path d="M73.3246 17.9657C73.9948 18.2655 74.6648 18.5698 75.335 18.8785C76.0049 19.1872 76.609 19.5532 77.1468 19.9763C77.6847 20.3997 78.1209 20.9067 78.456 21.4978C78.791 22.0885 78.9587 22.8249 78.9587 23.7067C78.9587 24.4123 78.8087 25.0826 78.509 25.7175C78.2091 26.3524 77.7684 26.9123 77.1865 27.3974C76.6045 27.8825 75.8903 28.2705 75.044 28.5615C74.1975 28.8526 73.2364 28.9981 72.1608 28.9981C70.9969 28.9981 70.0006 28.8745 69.1718 28.6276C68.343 28.3806 67.6597 28.1028 67.122 27.7943C66.5842 27.4856 66.1918 27.1858 65.945 26.8948C65.6981 26.6038 65.5745 26.4142 65.5745 26.326C65.5745 26.1849 65.5922 25.9953 65.6276 25.7571C65.6627 25.5189 65.7113 25.2632 65.7731 24.9899C65.8346 24.7166 65.9096 24.4475 65.9978 24.1831C66.086 23.9185 66.1829 23.6803 66.2887 23.4687C66.3064 23.4333 66.421 23.3982 66.6325 23.3628C66.8443 23.3274 67.0779 23.2967 67.3336 23.2701C67.5892 23.2437 67.8405 23.2218 68.0874 23.2041C68.3343 23.1864 68.5017 23.1777 68.5899 23.1777C68.5547 23.2835 68.537 23.3715 68.537 23.4423C68.537 23.5128 68.537 23.601 68.537 23.7067C68.5724 24.7826 68.8634 25.647 69.41 26.2995C69.9566 26.9521 70.8559 27.2783 72.1079 27.2783C72.7075 27.2783 73.2056 27.1946 73.6024 27.0271C73.9992 26.8595 74.3121 26.6479 74.5413 26.392C74.7705 26.1363 74.9292 25.8541 75.0174 25.5456C75.1056 25.2368 75.1497 24.9413 75.1497 24.6592C75.1497 24.13 75.0572 23.6935 74.8719 23.3496C74.6868 23.0057 74.418 22.7015 74.0653 22.4369C73.7125 22.1723 73.285 21.9298 72.7823 21.7093C72.2798 21.4888 71.72 21.2376 71.1027 20.9553C70.5033 20.673 69.8948 20.3777 69.2777 20.069C68.6606 19.7603 68.1093 19.3811 67.6245 18.9313C67.1395 18.4816 66.7429 17.9436 66.4342 17.3176C66.1256 16.6915 65.9714 15.9198 65.9714 15.0026C65.9714 14.3149 66.1124 13.6665 66.3946 13.0581C66.6766 12.4496 67.0954 11.9161 67.6509 11.4574C68.2065 10.9989 68.8853 10.6329 69.6877 10.3595C70.4899 10.0862 71.4201 9.94942 72.4781 9.94942C73.4656 9.94942 74.3253 10.0376 75.0572 10.214C75.7889 10.3904 76.3973 10.6064 76.8823 10.8621C77.3671 11.118 77.733 11.3913 77.9799 11.6824C78.2268 11.9734 78.3503 12.2248 78.3503 12.4364C78.3503 12.7361 78.2841 13.1109 78.1518 13.5607C78.0195 14.0104 77.8476 14.4382 77.6361 14.8439C77.6184 14.8792 77.4951 14.9188 77.2657 14.9629C77.0365 15.007 76.7853 15.0467 76.5119 15.082C76.2386 15.1172 75.9697 15.1481 75.7052 15.1746C75.4406 15.201 75.2643 15.2144 75.1761 15.2144C75.1938 15.1262 75.207 15.0115 75.2159 14.8703C75.2247 14.7292 75.2291 14.6146 75.2291 14.5264C75.2291 14.2441 75.1938 13.9399 75.1233 13.6137C75.0528 13.2873 74.9205 12.9788 74.7264 12.6878C74.5326 12.3967 74.2504 12.1541 73.8801 11.9602C73.5097 11.7661 73.0249 11.6692 72.4253 11.6692C71.8787 11.6692 71.4246 11.7529 71.0631 11.9205C70.7016 12.088 70.4239 12.3041 70.2298 12.5687C70.036 12.8333 69.8993 13.1199 69.82 13.4286C69.7405 13.7371 69.7009 14.0238 69.7009 14.2882C69.7009 14.7821 69.7934 15.2054 69.9787 15.5582C70.1638 15.911 70.4194 16.2285 70.7457 16.5106C71.0719 16.7929 71.4555 17.0485 71.8962 17.2778C72.3371 17.5073 72.8132 17.7365 73.3246 17.9657ZM90.2268 9.94942C91.6373 9.94942 92.9203 10.1744 94.0752 10.6241C95.2303 11.0739 96.2178 11.7088 97.0377 12.529C97.8578 13.3491 98.4925 14.3456 98.9422 15.5186C99.3919 16.6915 99.6166 18.0098 99.6166 19.4738C99.6166 20.9199 99.3919 22.234 98.9422 23.4156C98.4925 24.5975 97.8578 25.5984 97.0377 26.4186C96.2178 27.2387 95.2303 27.8736 94.0752 28.3233C92.9203 28.7731 91.6373 28.9981 90.2268 28.9981C88.816 28.9981 87.5331 28.7731 86.3781 28.3233C85.223 27.8736 84.2355 27.2387 83.4157 26.4186C82.5956 25.5984 81.9608 24.5975 81.5112 23.4156C81.0615 22.234 80.8367 20.9199 80.8367 19.4738C80.8367 18.0098 81.0615 16.6915 81.5112 15.5186C81.9608 14.3456 82.5956 13.3491 83.4157 12.529C84.2355 11.7088 85.223 11.0739 86.3781 10.6241C87.5331 10.1744 88.816 9.94942 90.2268 9.94942ZM90.2268 27.2783C91.373 27.2783 92.2855 27.0226 92.9644 26.5111C93.6432 25.9996 94.1591 25.3559 94.5116 24.5798C94.8644 23.8038 95.0936 22.9572 95.1994 22.04C95.3053 21.1228 95.3581 20.2673 95.3581 19.4738C95.3581 18.6624 95.3053 17.7983 95.1994 16.8811C95.0936 15.9639 94.8644 15.1172 94.5116 14.3413C94.1591 13.5651 93.6432 12.9257 92.9644 12.4232C92.2855 11.9206 91.373 11.6692 90.2268 11.6692C89.0806 11.6692 88.1678 11.9248 87.489 12.4364C86.8101 12.9479 86.2944 13.5915 85.9417 14.3677C85.589 15.1436 85.3597 15.9903 85.2539 16.9075C85.1482 17.8247 85.0952 18.6801 85.0952 19.4738C85.0952 20.2673 85.1482 21.1228 85.2539 22.04C85.3597 22.9572 85.589 23.8038 85.9417 24.5798C86.2944 25.3559 86.8101 25.9996 87.489 26.5111C88.1678 27.0226 89.0806 27.2783 90.2268 27.2783ZM114.085 24.6592C114.174 24.6592 114.297 24.668 114.456 24.6857C114.614 24.7034 114.769 24.7253 114.918 24.7517C115.068 24.7783 115.196 24.8135 115.302 24.8576C115.408 24.9017 115.461 24.9413 115.461 24.9767C115.461 25.2236 115.456 25.5146 115.448 25.8498C115.439 26.1849 115.421 26.5243 115.394 26.8684C115.368 27.2123 115.342 27.5474 115.315 27.8736C115.289 28.2 115.258 28.4865 115.223 28.7335H101.495C101.46 28.7335 101.429 28.6365 101.402 28.4424C101.376 28.2483 101.363 28.1337 101.363 28.0986C101.363 28.0455 101.464 28.0059 101.667 27.9795C101.87 27.9531 102.09 27.8957 102.328 27.8075C102.566 27.7193 102.786 27.5783 102.989 27.3842C103.192 27.1901 103.293 26.8991 103.293 26.5111V12.4364C103.293 12.0484 103.192 11.7574 102.989 11.5633C102.786 11.3692 102.566 11.2282 102.328 11.14C102.09 11.0518 101.87 10.9944 101.667 10.968C101.464 10.9416 101.363 10.9019 101.363 10.8489C101.363 10.8137 101.376 10.6991 101.402 10.505C101.429 10.311 101.46 10.214 101.495 10.214H108.954C108.971 10.214 108.989 10.2449 109.007 10.3067C109.024 10.3683 109.038 10.4345 109.046 10.505C109.055 10.5756 109.064 10.6461 109.073 10.7166C109.082 10.7873 109.086 10.8314 109.086 10.8489C109.086 10.9019 108.985 10.9371 108.782 10.9548C108.579 10.9725 108.359 11.0298 108.121 11.1267C107.883 11.2239 107.662 11.3692 107.459 11.5633C107.257 11.7574 107.155 12.0484 107.155 12.4364V27.1196H112.049C112.436 27.1196 112.75 26.9917 112.988 26.7361C113.226 26.4802 113.42 26.1981 113.569 25.8894C113.719 25.5807 113.83 25.2986 113.9 25.0427C113.971 24.7871 114.032 24.6592 114.085 24.6592ZM134.373 10.214C134.408 10.214 134.439 10.311 134.466 10.505C134.492 10.6991 134.505 10.8137 134.505 10.8489C134.505 10.9019 134.404 10.9416 134.201 10.968C133.998 10.9944 133.769 11.0518 133.513 11.14C133.258 11.2282 133.028 11.3692 132.826 11.5633C132.623 11.7574 132.521 12.0484 132.521 12.4364V22.331C132.521 24.43 131.931 26.0658 130.749 27.2387C129.568 28.4115 127.884 28.9981 125.697 28.9981C124.374 28.9981 123.211 28.8349 122.206 28.5085C121.2 28.1823 120.363 27.7413 119.693 27.1858C119.023 26.6302 118.516 25.9821 118.172 25.2413C117.828 24.5005 117.656 23.7067 117.656 22.8602V12.4364C117.656 12.0484 117.559 11.7574 117.365 11.5633C117.171 11.3692 116.955 11.2282 116.717 11.14C116.479 11.0518 116.259 10.9944 116.056 10.968C115.853 10.9416 115.752 10.9019 115.752 10.8489C115.752 10.8137 115.765 10.6991 115.791 10.505C115.818 10.311 115.849 10.214 115.884 10.214H123.422C123.44 10.214 123.458 10.2449 123.475 10.3067C123.493 10.3683 123.506 10.4345 123.515 10.505C123.524 10.5756 123.532 10.6461 123.541 10.7166C123.55 10.7873 123.555 10.8314 123.555 10.8489C123.555 10.9019 123.453 10.9371 123.25 10.9548C123.048 10.9725 122.827 11.0298 122.589 11.1267C122.351 11.2239 122.131 11.3692 121.928 11.5633C121.725 11.7574 121.624 12.0484 121.624 12.4364V22.8602C121.624 23.2659 121.663 23.7199 121.743 24.2227C121.822 24.7253 122.003 25.2015 122.285 25.6512C122.567 26.101 122.977 26.4802 123.515 26.7889C124.053 27.0976 124.78 27.2519 125.697 27.2519C126.473 27.2519 127.139 27.1241 127.694 26.8684C128.25 26.6125 128.708 26.2597 129.07 25.81C129.431 25.3602 129.696 24.8399 129.863 24.2491C130.031 23.6583 130.114 23.0189 130.114 22.331V12.4364C130.114 12.0484 130.013 11.7574 129.81 11.5633C129.607 11.3692 129.387 11.2282 129.149 11.14C128.911 11.0518 128.69 10.9944 128.488 10.968C128.285 10.9416 128.183 10.9019 128.183 10.8489C128.183 10.8137 128.201 10.6991 128.236 10.505C128.272 10.311 128.298 10.214 128.316 10.214H134.373ZM146.223 19.0768L151.222 26.6963C151.486 27.0314 151.755 27.2828 152.029 27.4502C152.302 27.6179 152.553 27.7413 152.782 27.8207C153.012 27.9 153.197 27.9531 153.338 27.9795C153.479 28.0059 153.55 28.0455 153.55 28.0986C153.55 28.1337 153.536 28.2483 153.51 28.4424C153.483 28.6365 153.453 28.7335 153.417 28.7335H145.35C145.332 28.7335 145.306 28.6365 145.271 28.4424C145.235 28.2483 145.218 28.1337 145.218 28.0986C145.218 28.0455 145.346 28.0104 145.601 27.9927C145.857 27.975 146.108 27.9266 146.355 27.8472C146.602 27.7679 146.796 27.6311 146.937 27.437C147.078 27.2431 147.025 26.9609 146.778 26.5906L143.525 21.6433L140.245 26.4847C139.98 26.8727 139.906 27.1682 140.02 27.371C140.135 27.5738 140.315 27.7193 140.562 27.8075C140.809 27.8957 141.056 27.9531 141.303 27.9795C141.55 28.0059 141.673 28.0455 141.673 28.0986C141.673 28.1162 141.669 28.1601 141.66 28.2309C141.651 28.3014 141.642 28.3719 141.634 28.4424C141.625 28.5129 141.612 28.5792 141.594 28.6408C141.576 28.7026 141.559 28.7335 141.541 28.7335H135.193C135.158 28.7335 135.127 28.6365 135.1 28.4424C135.074 28.2483 135.061 28.1337 135.061 28.0986C135.061 28.0455 135.14 28.0059 135.299 27.9795C135.457 27.9531 135.656 27.8957 135.894 27.8075C136.132 27.7193 136.396 27.5783 136.687 27.3842C136.978 27.1901 137.256 26.8991 137.52 26.5111L142.202 19.6325L137.362 12.2512C137.097 11.9161 136.828 11.6647 136.555 11.4972C136.282 11.3296 136.03 11.2062 135.801 11.1267C135.572 11.0475 135.387 10.9944 135.246 10.968C135.105 10.9416 135.034 10.9019 135.034 10.8489C135.034 10.8137 135.047 10.6991 135.074 10.505C135.1 10.311 135.131 10.214 135.166 10.214H143.155C143.172 10.214 143.19 10.2449 143.207 10.3067C143.225 10.3683 143.238 10.4345 143.247 10.505C143.256 10.5756 143.265 10.6461 143.273 10.7166C143.282 10.7873 143.287 10.8314 143.287 10.8489C143.287 10.9019 143.163 10.9371 142.916 10.9548C142.67 10.9725 142.427 11.0209 142.189 11.1003C141.951 11.1798 141.77 11.3164 141.647 11.5104C141.523 11.7043 141.576 11.9866 141.806 12.3569L144.9 17.0662L148.048 12.4628C148.312 12.0748 148.387 11.7793 148.273 11.5765C148.158 11.3737 147.973 11.2282 147.717 11.14C147.462 11.0518 147.21 10.9944 146.963 10.968C146.716 10.9416 146.593 10.9019 146.593 10.8489C146.593 10.8137 146.611 10.6991 146.646 10.505C146.681 10.311 146.708 10.214 146.725 10.214H153.021C153.056 10.214 153.087 10.311 153.113 10.505C153.14 10.6991 153.153 10.8137 153.153 10.8489C153.153 10.9019 153.078 10.9416 152.928 10.968C152.778 10.9944 152.584 11.0518 152.346 11.14C152.108 11.2282 151.848 11.3692 151.566 11.5633C151.284 11.7574 151.01 12.0484 150.746 12.4364L146.223 19.0768ZM167.225 24.6592C167.313 24.6592 167.436 24.668 167.595 24.6857C167.754 24.7034 167.908 24.7253 168.058 24.7517C168.208 24.7783 168.336 24.8135 168.441 24.8576C168.547 24.9017 168.6 24.9413 168.6 24.9767C168.6 25.2236 168.596 25.5234 168.587 25.8762C168.578 26.229 168.56 26.5861 168.534 26.9477C168.508 27.3092 168.481 27.6531 168.455 27.9795C168.428 28.3056 168.397 28.557 168.362 28.7335H154.555C154.52 28.7335 154.489 28.6365 154.462 28.4424C154.436 28.2483 154.423 28.1337 154.423 28.0986C154.423 28.0455 154.524 28.0059 154.727 27.9795C154.93 27.9531 155.15 27.8957 155.388 27.8075C155.626 27.7193 155.846 27.5783 156.049 27.3842C156.252 27.1901 156.353 26.8991 156.353 26.5111V12.4364C156.353 12.0484 156.252 11.7574 156.049 11.5633C155.846 11.3692 155.626 11.2282 155.388 11.14C155.15 11.0518 154.93 10.9944 154.727 10.968C154.524 10.9416 154.423 10.9019 154.423 10.8489C154.423 10.8137 154.436 10.6991 154.462 10.505C154.489 10.311 154.52 10.214 154.555 10.214H167.833C167.868 10.3904 167.899 10.6418 167.926 10.968C167.952 11.2944 167.978 11.6383 168.005 11.9998C168.031 12.3614 168.049 12.7187 168.058 13.0713C168.067 13.4241 168.071 13.7238 168.071 13.9708C168.071 14.0061 168.018 14.0458 167.912 14.0899C167.807 14.134 167.679 14.1694 167.529 14.1958C167.379 14.2222 167.225 14.2442 167.066 14.2618C166.907 14.2795 166.784 14.2882 166.696 14.2882C166.643 14.2882 166.581 14.1649 166.51 13.9179C166.44 13.671 166.33 13.4019 166.18 13.1109C166.03 12.8201 165.836 12.551 165.598 12.3041C165.36 12.0572 165.047 11.9338 164.659 11.9338H160.215V18.3627H162.675C163.257 18.3627 163.707 18.2787 164.024 18.1112C164.342 17.9436 164.58 17.7584 164.738 17.5556C164.897 17.3528 165.003 17.1676 165.056 17C165.109 16.8325 165.161 16.7488 165.214 16.7488C165.25 16.7488 165.307 16.7532 165.386 16.762C165.466 16.7707 165.554 16.7839 165.651 16.8016C165.748 16.8193 165.832 16.837 165.902 16.8547C165.973 16.8721 166.008 16.8898 166.008 16.9075V21.5374C166.008 21.5551 165.973 21.5725 165.902 21.5902C165.832 21.6079 165.748 21.6256 165.651 21.6433C165.554 21.6607 165.466 21.674 165.386 21.6829C165.307 21.6916 165.25 21.6961 165.214 21.6961C165.161 21.6961 165.109 21.6124 165.056 21.4447C165.003 21.2772 164.897 21.0921 164.738 20.8892C164.58 20.6862 164.342 20.5011 164.024 20.3336C163.707 20.1659 163.257 20.0822 162.675 20.0822H160.215V27.0137H165.188C165.576 27.0137 165.889 26.8904 166.127 26.6434C166.365 26.3965 166.559 26.1276 166.709 25.8366C166.859 25.5456 166.969 25.2764 167.04 25.0295C167.11 24.7826 167.172 24.6592 167.225 24.6592Z" fill="#FCF0B5"/>
<path d="M94.8279 37.478V38.8892H96.7085V45.9431H98.1192V38.8892H100.002V37.478H94.8279ZM109.827 37.478C107.489 37.478 105.594 39.3733 105.594 41.7115C105.594 44.0499 107.489 45.9451 109.827 45.9451C112.165 45.9451 114.059 44.0499 114.059 41.7115C114.055 39.3733 112.162 37.48 109.827 37.478ZM109.827 44.534C108.268 44.534 107.005 43.2705 107.005 41.7115C107.005 40.1527 108.268 38.8892 109.827 38.8892C111.385 38.8892 112.649 40.1527 112.649 41.7115C112.647 43.2705 111.383 44.5318 109.827 44.534ZM125.123 37.478V42.8192C125.123 43.7689 124.354 44.5402 123.402 44.5402C122.453 44.5402 121.684 43.7689 121.684 42.8192V37.478H120.273V42.8192C120.273 44.5483 121.674 45.9512 123.402 45.9512C125.133 45.9512 126.534 44.5483 126.534 42.8192V37.478H125.123ZM136.886 42.3659C138.126 42.1135 138.973 40.9608 138.846 39.6995C138.721 38.4401 137.661 37.48 136.394 37.478H132.75V45.941H134.16V42.4172H135.208L137.634 45.9431H139.346L136.886 42.3659ZM134.16 41.0059V38.8892H136.394C136.779 38.8768 137.142 39.0738 137.339 39.4081C137.536 39.7404 137.536 40.1527 137.339 40.487C137.142 40.8193 136.779 41.0183 136.394 41.0039L134.16 41.0059Z" fill="#FCF0B5"/>
</svg>
