<svg width="262" height="242" viewBox="0 0 262 242" fill="none" xmlns="http://www.w3.org/2000/svg">
<path d="M63.5887 204.497C65.7936 204.413 70.0809 204.251 73.9168 204.251C77.7519 204.251 81.1369 204.413 84.6344 204.606C88.1311 204.799 91.7416 205.025 95.1583 205.041C98.5749 205.057 101.798 204.864 104.747 204.59C107.697 204.316 110.372 203.961 111.645 203.784C112.919 203.607 112.789 203.607 112.629 203.59C112.467 203.574 112.274 203.543 110.163 203.091C108.051 202.64 104.022 201.77 98.6556 200.271C93.2884 198.772 86.5843 196.645 81.0563 194.437C75.5281 192.229 71.1763 189.94 67.9857 188.039C64.7944 186.136 62.7637 184.622 61.7647 183.88C60.7655 183.139 60.7977 183.171 64.9397 184.525C69.0817 185.879 77.3335 188.554 88.6149 191.423C99.8964 194.291 114.208 197.354 128.229 199.61C142.25 201.867 155.981 203.317 169.97 203.961C183.96 204.606 198.207 204.445 206.232 204.348C214.259 204.251 216.063 204.22 217.014 204.171C217.965 204.123 218.062 204.058 219.255 203.397C220.447 202.737 222.736 201.479 225.234 199.706C227.732 197.934 230.44 195.645 232.647 193.437C234.856 191.229 236.564 189.102 237.869 187.104C239.175 185.105 240.077 183.236 240.544 182.22C241.012 181.205 241.044 181.044 241.012 181.012C240.98 180.98 240.884 181.076 236.758 181.834C232.632 182.591 224.476 184.009 216.241 185.073C208.005 186.136 199.69 186.846 190.68 187.056C181.671 187.265 171.969 186.975 159.092 185.589C146.215 184.203 130.163 181.721 115.545 178.948C100.928 176.176 87.7443 173.114 75.2544 169.762C62.7637 166.41 50.9669 162.767 41.6777 159.851C32.3879 156.935 25.6069 154.744 19.8057 152.92C14.0045 151.096 9.18294 149.638 6.12827 148.798C3.07294 147.957 1.78373 147.732 1.19506 147.662C0.606261 147.592 0.718655 147.676 1.27919 148.532C1.83959 149.386 2.84826 151.012 3.45106 151.853C4.05386 152.693 4.24972 152.75 7.05279 153.675C9.85586 154.599 15.2655 156.394 20.3669 158.426C25.4677 160.458 30.2609 162.728 34.8155 165.643C39.3699 168.558 43.6868 172.117 47.0085 175.733C50.3297 179.349 52.6557 183.021 54.5477 186.525C56.4397 190.028 57.8979 193.363 58.8505 196.082C59.8033 198.801 60.2521 200.903 60.528 202.216C60.8031 203.529 60.9053 204.053 60.9788 204.319C61.0515 204.585 61.0944 204.592 61.1779 204.591C61.2607 204.59 61.3837 204.583 63.5887 204.497ZM188.418 151.687C188.907 151.687 189.738 151.71 190.168 151.736C190.599 151.762 190.629 151.792 190.643 151.807C190.659 151.822 190.659 151.822 191.65 152.952C192.642 154.082 194.625 156.341 195.635 157.472C196.645 158.601 196.682 158.601 196.675 158.632C196.668 158.661 196.615 158.72 196.364 158.87C196.114 159.02 195.664 159.259 195.398 159.383C195.133 159.506 195.051 159.514 194.964 159.506C194.879 159.498 194.789 159.476 193.566 158.178C192.342 156.88 189.985 154.306 188.881 153.008C187.778 151.71 187.928 151.687 188.418 151.687ZM139.766 165.504C140.465 165.696 141.732 166.048 142.414 166.252C143.096 166.455 143.193 166.512 143.289 166.576C143.385 166.64 143.481 166.712 144.884 168.194C146.287 169.677 148.996 172.569 150.8 174.517C152.605 176.465 153.504 177.469 153.949 177.995C154.396 178.521 154.387 178.569 153.936 178.581C153.486 178.593 152.594 178.568 152.099 178.54C151.605 178.511 151.508 178.48 149.408 176.36C147.308 174.241 143.204 170.034 141.104 167.835C139.004 165.634 138.907 165.442 138.923 165.362C138.939 165.281 139.068 165.313 139.766 165.504ZM126.79 163.064C127.48 163.236 128.744 163.569 129.418 163.777C130.091 163.984 130.173 164.066 131.704 165.985C133.235 167.904 136.215 171.661 138.209 174.281C140.203 176.901 141.211 178.384 141.701 179.119C142.191 179.854 142.163 179.841 141.717 179.803C141.271 179.765 140.406 179.704 139.96 179.646C139.514 179.588 139.486 179.533 139.384 179.513C139.282 179.492 139.105 179.506 136.812 176.758C134.517 174.008 130.107 168.497 127.899 165.72C125.692 162.944 125.687 162.903 125.716 162.884C125.745 162.866 125.807 162.87 125.896 162.878C125.984 162.884 126.1 162.893 126.79 163.064ZM30.0787 142.908C36.4572 134.634 49.0688 118.228 55.3753 110.064C61.6812 101.9 61.6812 101.977 61.7195 102.285C61.7579 102.592 61.8352 103.131 61.8352 103.439C61.8352 103.746 61.7579 103.823 57.6179 112.568C53.4772 121.313 45.2727 138.726 41.1455 147.452C37.0176 156.178 36.9672 156.216 36.5023 156.056C36.0367 155.897 35.1565 155.54 34.7232 155.355C34.29 155.17 34.3027 155.158 34.3223 155.107C34.3411 155.056 34.366 154.966 37.2228 149.114C40.0791 143.26 45.7672 131.643 48.6113 125.821C51.4547 120 51.4547 119.974 51.4359 119.987C51.4164 120 51.378 120.051 47.2044 125.459C43.0308 130.868 34.7225 141.632 30.5617 147.028C26.4009 152.423 26.3881 152.448 26.3121 152.461C26.236 152.474 26.0961 152.474 25.5828 152.344C25.0693 152.214 24.1819 151.954 23.7385 151.814C23.2944 151.675 23.2944 151.656 23.3139 151.618C23.3328 151.579 23.3704 151.523 23.4627 151.423C23.5541 151.324 23.6995 151.181 30.0787 142.908ZM117.551 68.3675V72.4839C118.75 72.2471 119.95 72.0163 121.152 71.7903V67.774C123.029 67.4834 124.796 67.2391 126.46 67.0339C131.615 66.3975 135.771 66.1316 137.875 65.9991C139.98 65.8666 140.033 65.8666 140.006 65.8403C139.979 65.8134 139.874 65.761 139.219 64.7355C138.565 63.7095 137.362 61.7111 136.31 59.1645C135.258 56.6178 134.356 53.5234 133.817 50.2783C133.277 47.0331 133.101 43.6374 133.216 40.5874C133.33 37.5367 133.737 34.8306 134.489 32.2751C135.241 29.7196 136.337 27.315 136.867 26.1214C137.398 24.9271 137.363 24.9452 137.363 24.9364C137.363 24.9271 137.398 24.892 132.738 27.3768C128.078 29.861 118.723 34.8662 110.96 39.6144C103.196 44.3627 97.024 48.8546 91.9313 53.2407C86.8379 57.6263 82.8231 61.9056 79.4852 66.4943C76.1465 71.0824 73.4835 75.9787 72.1189 78.5402C70.7544 81.1017 70.6884 81.3278 70.6952 81.4078C70.7019 81.4872 70.7813 81.4212 70.8547 81.389C70.928 81.356 70.996 81.3574 73.1517 80.5183C75.3075 79.6786 79.5518 77.9986 85.8744 76.0534C92.1964 74.1082 100.596 71.8972 107.874 70.2884C111.347 69.5147 114.571 68.887 117.551 68.3675ZM117.551 95.3052V97.5855V99.3921C118.751 99.3059 119.951 99.2272 121.152 99.1546V97.422V95.1451C124.088 95.0342 127.06 94.9702 129.883 94.9702C134.664 94.9702 139.02 95.1539 141.172 95.2374C143.325 95.3207 143.275 95.3039 143.116 95.0704C142.958 94.8363 142.692 94.3862 142.299 93.502C141.907 92.6172 141.39 91.2986 140.989 89.9138C140.588 88.5285 140.305 87.0771 140.222 84.6239C140.138 82.1708 140.255 78.7165 140.789 76.2054C141.323 73.6936 142.274 72.1247 142.733 71.3488C143.191 70.5731 143.159 70.5892 142.249 70.6982C141.339 70.8066 139.554 71.0064 136.551 71.4572C133.546 71.908 129.324 72.6084 124.018 73.5766C118.711 74.5442 112.319 75.7795 105.027 77.5652C97.7339 79.3503 89.5407 81.687 83.508 83.6059C77.4753 85.5248 73.6032 87.0274 71.6675 87.7782C69.7317 88.5291 69.7317 88.5291 69.5568 89.2134C69.3812 89.8977 69.0312 91.2655 68.5475 93.9272C68.0631 96.5891 67.446 100.544 67.1211 102.575C66.7961 104.606 66.7645 104.712 66.8344 104.742C66.9037 104.772 67.0753 104.724 69.044 104.079C71.0121 103.433 74.778 102.188 80.5489 100.824C86.3199 99.4594 94.0959 97.9738 100.12 97.0399C106.144 96.1053 110.417 95.7211 115.156 95.4378C115.938 95.394 116.738 95.3476 117.551 95.3052ZM117.551 120.84V123.121V124.447C118.166 124.463 118.78 124.48 119.395 124.498C119.981 124.517 120.566 124.537 121.152 124.558V123.27V120.988C122.656 121.062 124.166 121.152 125.697 121.262C131.505 121.676 137.602 122.361 141.104 122.799C144.605 123.236 145.511 123.425 146.019 123.528C146.529 123.632 146.642 123.651 146.557 123.415C146.472 123.179 146.189 122.689 145.888 121.463C145.586 120.237 145.265 118.277 145.058 115.58C144.851 112.883 144.756 109.451 145.038 106.821C145.322 104.19 145.982 102.361 146.283 101.446C146.585 100.532 146.529 100.532 146.217 100.532C145.906 100.532 145.341 100.532 141.569 100.626C137.797 100.72 130.821 100.909 123.947 101.277C117.073 101.644 110.304 102.191 103.657 103.04C97.0092 103.889 90.484 105.039 84.2711 106.378C78.0573 107.716 72.1545 109.244 69.2035 110.008C66.2524 110.771 66.2524 110.771 66.2241 110.818C66.1959 110.865 66.1387 110.96 65.7525 113.26C65.3656 115.56 64.6491 120.068 64.3416 122.332C64.0341 124.595 64.1364 124.617 64.2495 124.607C64.3624 124.596 64.4869 124.555 65.9449 124.214C67.4023 123.874 70.1932 123.234 74.3325 122.632C78.4719 122.029 83.9595 121.463 89.9377 121.124C95.9152 120.784 102.383 120.671 108.377 120.687C111.535 120.699 114.555 120.737 117.551 120.84ZM117.551 147.416V149.728V151.941C118.752 152.147 119.952 152.357 121.152 152.571V150.328V148.015C122.114 148.18 123.111 148.352 124.152 148.536C131.026 149.747 139.799 151.408 144.277 152.24C148.755 153.07 148.937 153.072 148.764 152.388C148.591 151.702 148.063 150.329 147.614 148.639C147.165 146.949 146.795 144.943 146.566 142.504C146.338 140.066 146.25 137.197 146.443 134.935C146.637 132.673 147.112 131.018 147.394 130.164C147.676 129.31 147.763 129.257 146.496 129.046C145.229 128.835 142.605 128.465 137.984 128.007C133.363 127.55 126.745 127.004 119.325 126.775C111.905 126.546 103.683 126.634 96.5012 126.925C89.3187 127.215 83.1749 127.708 77.9201 128.36C72.6652 129.011 68.2999 129.821 66.0816 130.243C63.8632 130.666 63.7932 130.701 63.7495 130.736C63.7051 130.771 63.6869 130.807 63.6781 131.441C63.6701 132.074 63.6701 133.306 63.7879 135.563C63.9063 137.818 64.1431 141.097 64.2353 142.711C64.3275 144.324 64.2749 144.271 64.236 144.245C64.1963 144.219 64.1693 144.219 65.4067 144.114C66.6433 144.008 69.1436 143.798 73.394 143.758C77.6443 143.719 83.6447 143.851 89.5925 144.219C95.5397 144.587 101.435 145.192 106.87 145.876C110.405 146.327 113.75 146.798 117.551 147.416ZM121.152 161.805C119.953 161.626 118.752 161.453 117.551 161.287V174.457H121.152V161.805ZM176.124 149.743C175.116 149.665 174.106 149.593 173.096 149.528V164.489H176.697V149.787C176.506 149.772 176.315 149.757 176.124 149.743ZM176.697 141.039V139.33C179.894 139.547 183.151 139.828 186.207 140.167C191.062 140.706 195.41 141.389 198.133 141.844C200.856 142.3 201.953 142.528 202.501 142.631C203.051 142.734 203.051 142.714 202.771 141.959C202.491 141.202 201.932 139.712 201.673 137.662C201.415 135.612 201.456 133.003 201.725 130.808C201.995 128.614 202.492 126.833 202.74 125.891C202.989 124.948 202.989 124.846 203.02 124.753C203.051 124.659 203.113 124.576 200.152 124.442C197.191 124.307 191.207 124.121 185.958 124.1C180.71 124.079 176.196 124.225 171.404 124.649C166.612 125.073 161.54 125.777 158.48 126.263C155.42 126.749 154.37 127.017 153.855 127.151C153.34 127.285 153.361 127.285 153.994 129.117C154.627 130.95 155.873 134.615 156.527 136.499C157.181 138.383 157.242 138.486 157.298 138.548C157.355 138.61 157.407 138.63 157.484 138.652C157.562 138.673 157.665 138.696 159.86 138.728C162.055 138.759 166.341 138.801 171.165 139.018C171.796 139.054 172.44 139.081 173.096 139.113V140.823V142.126C173.549 142.16 174.003 142.196 174.457 142.234C175.204 142.296 175.951 142.361 176.697 142.432V141.039ZM176.697 121.105V119.396L177.835 119.359C181.889 119.241 185.872 119.277 189.349 119.394C192.827 119.511 195.799 119.709 197.754 119.844C199.709 119.98 200.647 120.052 201.115 120.088C201.583 120.124 201.583 120.124 201.304 119.547C201.025 118.97 200.466 117.818 200.142 116.322C199.818 114.826 199.727 112.989 199.847 111.315C199.966 109.64 200.293 108.129 200.669 106.999C201.044 105.869 201.466 105.12 201.697 104.712C201.93 104.302 201.97 104.234 202.018 104.179C202.065 104.125 202.12 104.084 198.884 104.234C195.648 104.384 189.122 104.724 183.508 105.228C177.894 105.732 173.193 106.4 169.276 107.082C165.359 107.763 162.225 108.457 159.377 109.22C156.53 109.983 153.968 110.815 152.687 111.237C151.407 111.659 151.407 111.673 151.414 111.708C151.42 111.741 151.434 111.796 151.739 113.497C152.043 115.198 152.637 118.545 152.942 120.228C153.246 121.911 153.26 121.93 153.327 121.932C153.394 121.935 153.516 121.922 155.558 121.6C157.6 121.278 161.564 120.646 165.609 120.196C168.085 119.917 170.595 119.71 173.096 119.565V121.276V122.797C174.297 122.709 175.497 122.637 176.697 122.579V121.105ZM176.697 102.663V100.945C179.954 100.6 183.127 100.372 186.07 100.216C189.671 100.027 192.926 99.9464 194.916 99.9062C196.906 99.8658 197.631 99.8658 197.976 99.8543C198.321 99.8423 198.287 99.8194 198.086 99.0428C197.885 98.2664 197.516 96.7371 197.424 94.9251C197.332 93.1131 197.516 91.0199 197.855 89.2598C198.195 87.4996 198.689 86.0732 199.155 85.0552C199.621 84.0372 200.058 83.4276 200.299 83.1C200.541 82.7716 200.587 82.7259 198.247 83.0018C195.906 83.2776 191.178 83.8758 186.001 84.7847C180.825 85.6931 175.2 86.913 170.46 88.1436C165.721 89.3742 161.867 90.617 158.508 91.8475C155.149 93.0782 152.285 94.298 150.807 94.9304C149.328 95.563 149.237 95.6094 149.191 95.6612C149.145 95.713 149.145 95.7702 149.415 97.0702C149.686 98.37 150.226 100.913 150.554 102.713C150.882 104.513 150.997 105.571 151.066 106.095C151.135 106.618 151.158 106.606 151.221 106.572C151.284 106.538 151.388 106.48 151.543 106.423C151.699 106.365 151.905 106.308 153.705 105.744C155.506 105.18 158.9 104.11 162.644 103.236C165.958 102.448 169.537 101.861 173.096 101.373V103.096V104.738C174.294 104.561 175.495 104.397 176.697 104.245V102.663ZM173.096 85.722C174.292 85.4327 175.493 85.1548 176.697 84.8878V81.8182L177.798 81.5942C183.336 80.4834 188.6 79.6927 191.643 79.2742C194.685 78.8558 195.507 78.8099 195.948 78.7723C196.389 78.7339 196.45 78.7037 196.096 78.2292C195.742 77.755 194.974 76.8372 194.109 75.2035C193.243 73.5692 192.282 71.219 191.686 68.7982C191.089 66.3772 190.858 63.8851 190.884 61.4467C190.911 59.0077 191.197 56.6218 191.588 54.7883C191.98 52.9548 192.478 51.6731 193.128 50.4451C193.777 49.2166 194.578 48.0418 195.023 47.4099C195.468 46.7782 195.558 46.6887 195.531 46.6799C195.504 46.6719 195.362 46.7418 191.677 48.7892C187.992 50.836 180.765 54.8596 174.836 58.6604C168.909 62.4607 164.28 66.0388 160.212 69.7771C156.145 73.5154 152.638 77.4138 150.306 80.2714C147.974 83.1282 146.817 84.9435 146.221 85.9407C145.625 86.9379 145.589 87.1155 145.535 87.3651C145.482 87.6141 145.411 87.935 145.536 88.5311C145.66 89.1272 145.981 89.9999 146.203 90.4629C146.426 90.9251 146.55 90.979 146.736 90.9769C146.922 90.9742 147.169 90.9156 149.496 90.0047C151.823 89.0936 156.23 87.3295 161.339 85.7322C165.018 84.585 169.057 83.5239 173.096 82.6007V85.722ZM222.675 110.736C222.675 114.898 219.326 118.276 215.176 118.322V118.618C219.314 118.665 222.655 122.024 222.675 126.168H223.108C223.128 122.024 226.469 118.665 230.607 118.618V118.322C226.457 118.276 223.108 114.898 223.108 110.736H222.675ZM210.349 237.581C208.329 237.048 204.627 236.07 200.437 234.575C196.247 233.08 191.569 231.067 187.412 229.378C183.256 227.69 179.622 226.326 175.976 225.477C172.331 224.628 168.675 224.293 165.585 224.177C162.495 224.062 159.971 224.164 157.332 224.499C154.693 224.834 151.938 225.401 149.257 226.396C146.577 227.392 143.973 228.816 142.34 229.651C140.707 230.486 140.047 230.732 140.783 230.651C141.519 230.569 143.652 230.16 146.855 229.892C150.059 229.623 154.332 229.494 158.503 229.777C162.675 230.061 166.743 230.756 170.413 231.58C174.081 232.404 177.352 233.357 180.887 234.337C184.421 235.316 188.221 236.322 191.864 237.02C195.507 237.718 198.995 238.108 202.457 238.319C205.919 238.531 209.357 238.565 211.118 238.531C212.879 238.497 212.963 238.396 212.836 238.3C212.708 238.205 212.369 238.114 210.349 237.581ZM159.765 240.94C157.649 240.268 154.021 239.148 150.941 238.476C143.643 236.885 130.11 236.885 122.812 238.476C119.732 239.148 116.104 240.268 113.988 240.94C111.871 241.612 111.266 241.835 113.013 241.913C114.76 241.992 118.858 241.925 124.053 241.936C132.638 241.956 141.115 241.956 149.701 241.936C154.895 241.925 158.993 241.992 160.74 241.913C162.487 241.835 161.882 241.612 159.765 240.94ZM214.304 231.09C215.619 230.448 217.916 229.318 220.252 228.666C222.589 228.014 224.964 227.838 227.067 227.984C229.169 228.131 231 228.598 232.557 229.162C234.115 229.728 235.4 230.389 236.13 230.788C236.86 231.188 237.036 231.324 237.016 231.392C236.997 231.46 236.782 231.46 235.789 231.519C234.796 231.577 233.024 231.694 230.347 231.869C227.67 232.044 224.088 232.278 221.411 232.297C218.734 232.317 216.962 232.122 215.599 232.044C214.237 231.966 213.283 232.005 212.972 231.947C212.66 231.888 212.99 231.733 214.304 231.09ZM260.618 218.54C259.377 218.056 257.215 217.206 255.529 216.755C253.842 216.305 252.633 216.254 251.191 216.434C249.75 216.614 248.077 217.026 246.313 217.618C244.551 218.21 242.697 218.982 240.664 219.304C238.63 219.626 236.417 219.497 233.533 219.021C230.651 218.545 227.098 217.721 222.916 216.472C218.733 215.224 213.92 213.551 210.483 212.496C207.047 211.44 204.988 211.002 202.787 210.758C200.586 210.514 198.243 210.462 195.386 210.912C192.529 211.363 189.157 212.316 186.441 213.088C183.726 213.86 181.667 214.452 179.376 214.735C177.085 215.019 174.563 214.992 172.323 214.941C170.084 214.89 168.128 214.813 165.45 214.324C162.774 213.834 159.376 212.934 155.965 211.903C152.555 210.874 149.131 209.716 146.261 208.982C140.126 207.414 133.627 207.414 127.492 208.982C124.622 209.716 121.198 210.874 117.788 211.903C114.377 212.934 110.979 213.834 108.303 214.324C105.626 214.813 103.669 214.89 101.43 214.941C99.1905 214.992 96.6682 215.019 94.3771 214.735C92.086 214.452 90.0272 213.86 87.3116 213.088C84.596 212.316 81.2237 211.363 78.367 210.912C75.51 210.462 73.1672 210.514 70.9664 210.758C68.7655 211.002 66.7067 211.44 63.2704 212.496C59.8336 213.551 55.0201 215.224 50.8377 216.472C46.6547 217.721 43.1021 218.545 40.2196 219.021C37.3365 219.497 35.1229 219.626 33.0896 219.304C31.0563 218.982 29.2027 218.21 27.4397 217.618C25.6763 217.026 24.0036 216.614 22.5624 216.434C21.1205 216.254 19.9107 216.305 18.2245 216.755C16.5384 217.206 14.3767 218.056 13.1352 218.54C11.8939 219.025 11.5729 219.144 11.8475 219.263C12.1212 219.382 12.9892 219.5 15.3563 220.015C17.7227 220.531 21.5875 221.446 24.9704 221.99C28.3528 222.534 31.2528 222.71 34.9419 222.671C38.6304 222.632 43.1068 222.379 47.0389 221.843C50.9709 221.308 54.358 220.49 58.1441 219.702C61.9301 218.914 66.1152 218.154 69.0952 217.791C72.0745 217.428 73.8488 217.461 76.2696 217.769C78.6899 218.076 81.756 218.658 84.5207 219.139C87.2853 219.621 89.7473 220.001 92.0645 220.146C94.3811 220.292 96.5531 220.203 98.478 219.99C100.403 219.778 102.082 219.441 104.645 219.128C107.208 218.815 110.655 218.523 113.04 218.333C115.423 218.143 116.744 218.054 118.785 217.676C120.826 217.3 123.586 216.635 126.408 216.135C134.516 214.701 139.237 214.701 147.346 216.135C150.167 216.635 152.927 217.3 154.968 217.676C157.009 218.054 158.33 218.143 160.714 218.333C163.098 218.523 166.545 218.815 169.108 219.128C171.671 219.441 173.35 219.778 175.275 219.99C177.2 220.203 179.372 220.292 181.689 220.146C184.006 220.001 186.468 219.621 189.232 219.139C191.997 218.658 195.063 218.076 197.484 217.769C199.904 217.461 201.679 217.428 204.658 217.791C207.638 218.154 211.823 218.914 215.609 219.702C219.395 220.49 222.782 221.308 226.714 221.843C230.646 222.379 235.123 222.632 238.811 222.671C242.5 222.71 245.4 222.534 248.783 221.99C252.166 221.446 256.031 220.531 258.397 220.015C260.764 219.5 261.632 219.382 261.906 219.263C262.18 219.144 261.859 219.025 260.618 218.54ZM63.4043 237.581C65.4241 237.048 69.1261 236.07 73.3159 234.575C77.5056 233.08 82.1845 231.067 86.3407 229.378C90.4968 227.69 94.1315 226.326 97.7769 225.477C101.422 224.628 105.079 224.293 108.168 224.177C111.258 224.062 113.782 224.164 116.421 224.499C119.06 224.834 121.815 225.401 124.496 226.396C127.176 227.392 129.781 228.816 131.413 229.651C133.046 230.486 133.707 230.732 132.97 230.651C132.234 230.569 130.101 230.16 126.898 229.892C123.695 229.623 119.421 229.494 115.25 229.777C111.078 230.061 107.01 230.756 103.341 231.58C99.6716 232.404 96.4009 233.357 92.8665 234.337C89.3321 235.316 85.5327 236.322 81.8892 237.02C78.2457 237.718 74.7584 238.108 71.296 238.319C67.8336 238.531 64.3961 238.565 62.6352 238.531C60.8744 238.497 60.7904 238.396 60.9175 238.3C61.0447 238.205 61.3837 238.114 63.4043 237.581ZM59.4487 231.09C58.134 230.448 55.8369 229.318 53.5008 228.666C51.164 228.014 48.7889 227.838 46.6863 227.984C44.5837 228.131 42.7536 228.598 41.196 229.162C39.6383 229.728 38.3532 230.389 37.6232 230.788C36.8932 231.188 36.7176 231.324 36.7371 231.392C36.7565 231.46 36.9712 231.46 37.9643 231.519C38.9568 231.577 40.7289 231.694 43.4063 231.869C46.0828 232.044 49.6649 232.278 52.3421 232.297C55.0188 232.317 56.7909 232.122 58.1541 232.044C59.5167 231.966 60.4701 232.005 60.7816 231.947C61.0931 231.888 60.7628 231.733 59.4487 231.09ZM121.152 6.04324C121.313 6.75031 121.53 7.52817 121.86 8.12364C122.35 9.00977 123.09 9.49218 123.933 9.70751C124.777 9.92204 125.723 9.8703 126.729 9.5951C127.736 9.31924 128.803 8.82071 129.999 8.31337C131.195 7.80538 132.52 7.28925 133.914 7.09151C135.308 6.89365 136.771 7.01404 138.139 7.36671C139.507 7.71924 140.78 8.30458 142.011 9.25938C143.241 10.2142 144.428 11.5396 145.503 12.417C146.579 13.2943 147.543 13.725 148.738 13.9403C149.935 14.155 151.363 14.155 152.688 13.8884C154.013 13.6214 155.235 13.0884 156 12.7096C156.766 12.3308 157.076 12.1075 157.222 12.0214C157.369 11.9352 157.351 11.987 157.016 12.5636C156.681 13.1403 156.027 14.2411 155.089 15.2826C154.151 16.3235 152.929 17.3038 151.827 18.0008C150.726 18.6979 149.746 19.1111 148.549 19.2059C147.354 19.3002 145.943 19.0767 144.669 18.5519C143.396 18.0264 142.26 17.2008 141.15 16.4695C140.041 15.7382 138.956 15.1016 137.795 14.8176C136.633 14.5338 135.394 14.603 134.086 14.9643C132.779 15.3256 131.402 15.979 130.206 16.6935C129.01 17.4074 127.995 18.1819 126.996 18.6555C125.998 19.1286 125.017 19.3002 124.209 19.3002C123.4 19.3002 122.763 19.1286 122.272 18.9563C121.803 18.7915 121.467 18.6259 121.152 18.1886V29.2615L117.551 30.9739V4.05097C117.309 3.69897 117.167 3.27244 117.167 2.81284C117.167 1.60577 118.144 0.628174 119.351 0.628174C120.559 0.628174 121.536 1.60577 121.536 2.81284C121.536 3.27244 121.394 3.69897 121.152 4.05097V6.04324ZM176.697 28.3544C176.858 29.0616 177.075 29.8395 177.405 30.435C177.895 31.3211 178.635 31.8035 179.478 32.0188C180.321 32.2334 181.267 32.1816 182.274 31.9064C183.281 31.6306 184.348 31.132 185.543 30.6247C186.74 30.1167 188.065 29.6006 189.459 29.4028C190.853 29.205 192.316 29.3254 193.683 29.6779C195.052 30.0306 196.325 30.6159 197.555 31.5707C198.786 32.5254 199.973 33.851 201.048 34.7283C202.124 35.6056 203.088 36.0363 204.283 36.2516C205.479 36.4662 206.908 36.4662 208.233 36.1998C209.558 35.9327 210.78 35.3998 211.545 35.021C212.311 34.6422 212.621 34.4188 212.767 34.3327C212.914 34.2466 212.896 34.2983 212.56 34.875C212.225 35.4516 211.571 36.5523 210.633 37.5939C209.695 38.6348 208.474 39.6151 207.372 40.3122C206.271 41.0092 205.29 41.4223 204.094 41.5172C202.899 41.6114 201.488 41.388 200.214 40.8632C198.941 40.3378 197.805 39.5122 196.695 38.7808C195.585 38.0494 194.501 37.413 193.339 37.129C192.178 36.8451 190.939 36.9143 189.631 37.2756C188.324 37.637 186.947 38.2903 185.751 39.0048C184.555 39.7187 183.54 40.4932 182.541 40.9668C181.543 41.4399 180.562 41.6114 179.753 41.6114C178.945 41.6114 178.308 41.4399 177.817 41.2676C177.347 41.1027 177.012 40.9372 176.697 40.4999V51.5728L173.096 53.2852V26.3622C172.854 26.0103 172.712 25.5838 172.712 25.1242C172.712 23.9171 173.689 22.9395 174.896 22.9395C176.103 22.9395 177.081 23.9171 177.081 25.1242C177.081 25.5838 176.939 26.0103 176.697 26.3622V28.3544ZM161.798 143.98C162.307 144.638 163.231 145.854 163.723 146.531C164.215 147.208 164.277 147.346 164.354 147.4C164.43 147.454 164.523 147.423 166.377 147.485C168.231 147.546 171.847 147.7 176.255 148.039C180.663 148.377 185.864 148.9 190.495 149.516C195.127 150.132 199.189 150.839 201.312 151.208C203.435 151.577 203.62 151.608 203.689 151.593C203.758 151.577 203.713 151.516 203.559 150.939C203.404 150.362 203.143 149.27 203.012 148.685C202.882 148.1 202.882 148.023 202.843 147.969C202.805 147.915 202.728 147.885 200.304 147.462C197.881 147.038 193.111 146.223 188.318 145.539C183.525 144.854 178.709 144.299 174.316 143.936C169.924 143.572 165.955 143.398 163.823 143.294C161.691 143.189 161.395 143.154 161.295 143.186C161.195 143.219 161.288 143.321 161.798 143.98ZM145.708 163.833C141.519 163.022 133.228 161.417 125.326 160.147C117.422 158.876 109.907 157.94 102.713 157.339C95.5189 156.737 88.6452 156.47 82.842 156.657C77.0387 156.844 72.3047 157.486 69.9517 157.807C67.5981 158.128 67.6244 158.128 67.6379 158.101C67.6513 158.074 67.6513 158.021 67.2657 156.68C66.8801 155.339 66.1091 152.71 65.7411 151.379C65.3731 150.047 65.4087 150.011 65.4175 149.994C65.4268 149.976 65.4081 149.976 67.1319 149.87C68.8549 149.765 72.3195 149.554 78.5277 149.809C84.7353 150.064 93.6861 150.785 103.042 152.025C112.398 153.265 122.158 155.023 129.843 156.509C137.528 157.995 143.138 159.209 145.96 159.824C148.783 160.439 148.818 160.457 148.862 160.474C148.906 160.492 148.959 160.51 148.985 160.519C149.012 160.528 149.012 160.528 149.189 161.22C149.365 161.912 149.719 163.295 149.852 163.978C149.985 164.661 149.897 164.644 145.708 163.833ZM208.993 147.98C208.967 147.99 208.956 148.01 208.569 148.673C208.182 149.336 207.417 150.64 207.016 151.302C206.615 151.964 206.578 151.984 206.635 151.993C206.692 152.003 206.845 152.003 213.742 152.003C220.639 152.003 234.281 152.003 241.111 152.003C247.942 152.003 247.961 152.003 247.951 152.003C247.942 152.003 247.903 152.003 248.305 151.309C248.707 150.615 249.549 149.228 249.98 148.545C250.411 147.861 250.43 147.879 250.42 147.901C250.41 147.922 250.371 147.944 243.491 147.955C236.61 147.967 222.889 147.967 216.017 147.967C209.145 147.967 209.124 147.967 209.093 147.968C209.061 147.969 209.019 147.969 208.993 147.98ZM156.94 178.795C157.799 178.369 159.443 177.564 160.639 176.804C161.837 176.044 162.589 175.327 163.008 174.96C163.428 174.593 163.515 174.575 163.638 174.584C163.76 174.593 163.918 174.628 167.291 174.645C170.665 174.662 177.256 174.662 181.286 174.698C185.315 174.732 186.783 174.802 188.873 174.506C190.962 174.208 193.672 173.544 195.961 172.643C198.252 171.743 200.122 170.607 201.093 170.004C202.063 169.4 202.133 169.331 202.115 169.313C202.098 169.296 201.993 169.331 200.288 169.55C198.584 169.768 195.28 170.17 192.282 170.389C189.284 170.607 186.591 170.642 182.562 170.402C178.534 170.162 173.168 169.646 170.478 169.381C167.788 169.116 167.774 169.101 167.936 168.712C168.097 168.323 168.435 167.559 168.611 167.155C168.788 166.75 168.802 166.707 168.831 166.685C168.861 166.662 168.905 166.662 171.998 166.662C175.09 166.662 181.231 166.662 184.485 166.648C187.74 166.633 188.107 166.604 189.01 166.354C189.914 166.104 191.353 165.634 192.829 164.878C194.306 164.121 195.82 163.077 197.399 161.851C198.978 160.624 200.624 159.214 201.607 158.325C202.592 157.436 202.915 157.069 203.106 156.885C203.297 156.702 203.356 156.702 203.4 156.702C203.444 156.702 203.473 156.702 210.753 156.702C218.032 156.702 232.562 156.702 239.833 156.679C247.103 156.657 247.115 156.612 247.121 156.612C247.128 156.612 247.127 156.657 246.401 159.388C245.675 162.117 244.225 167.532 243.486 170.227C242.747 172.921 242.72 172.894 242.704 172.889C242.689 172.884 242.684 172.903 239.994 173.484C237.304 174.066 231.929 175.212 227.478 176.102C223.028 176.99 219.501 177.622 213.889 178.166C208.278 178.71 200.579 179.164 194.357 179.392C188.136 179.62 183.391 179.62 177.195 179.591C170.999 179.561 163.351 179.502 159.565 179.452C155.78 179.401 155.856 179.359 155.93 179.314C156.006 179.269 156.081 179.221 156.94 178.795Z" fill="url(#paint0_linear_1_17)"/>
<defs>
<linearGradient id="paint0_linear_1_17" x1="131" y1="0.400025" x2="131" y2="242.4" gradientUnits="userSpaceOnUse">
<stop stop-color="#FCF0B5"/>
<stop offset="1" stop-color="#AF7C3D"/>
</linearGradient>
</defs>
</svg>
