<svg width="312" height="312" viewBox="0 0 312 312" fill="none" xmlns="http://www.w3.org/2000/svg">
<path d="M165.354 144.234C166.47 142.919 167.449 141.858 168.326 140.714C169.883 138.664 171.045 136.341 171.75 133.865C171.846 133.55 172.134 133.126 171.661 132.975C171.189 132.824 171.202 133.365 171.113 133.66C169.898 137.689 167.603 141.308 164.477 144.125C164.182 144.403 163.858 144.648 163.511 144.857C167.066 140.844 169.045 136.078 170.203 130.927C170.312 130.455 170.696 129.681 170.107 129.558C169.518 129.434 169.661 130.29 169.559 130.736C168.36 135.756 166.525 140.467 163.094 144.433C162.683 144.905 162.244 145.357 161.676 145.967C161.676 145.611 161.676 145.529 161.676 145.481C165.614 139.529 167.258 132.852 167.84 125.846C167.84 125.62 167.895 125.394 167.908 125.161C167.922 124.928 167.908 124.654 167.627 124.606C167.203 124.538 167.258 124.907 167.23 125.147C167.004 126.777 166.854 128.421 166.545 130.051C165.628 135.413 164.162 140.591 161.108 145.186C160.821 145.82 160.342 146.348 159.738 146.693C160.327 144.912 160.909 143.269 161.409 141.598C163.141 135.704 164.101 129.61 164.265 123.469C164.275 123.316 164.275 123.163 164.265 123.01C164.224 122.661 164.422 122.079 163.888 122.086C163.354 122.093 163.573 122.688 163.566 123.017C163.404 130.699 162.017 138.305 159.457 145.549C159.365 146.103 159.081 146.607 158.656 146.974C158.361 146.172 158.697 145.494 158.8 144.823C159.596 139.004 159.976 133.136 159.936 127.263C159.936 124.654 159.936 122.045 159.936 119.435C159.936 119.093 160.101 118.524 159.512 118.566C159.032 118.6 159.238 119.12 159.238 119.429C159.238 124.839 159.293 130.249 159.012 135.66C158.843 139.075 158.51 142.472 158.012 145.851C157.95 146.261 158.053 147.015 157.56 147.015C156.916 147.015 157.122 146.213 157.053 145.789C156.272 140.356 155.869 134.875 155.848 129.386C155.8 126.085 155.848 122.784 155.848 119.483C155.848 119.155 156.094 118.559 155.519 118.559C154.944 118.559 155.156 119.155 155.149 119.504C155.094 127.955 155.026 136.399 156.272 144.782C156.375 145.467 156.492 146.152 156.601 146.837C155.916 146.939 155.957 146.433 155.841 146.152C153.831 140.76 152.519 135.132 151.937 129.407C151.711 127.27 151.643 125.12 151.485 122.976C151.485 122.668 151.663 122.141 151.204 122.12C150.636 122.12 150.794 122.668 150.8 123.01C150.883 126.961 151.286 130.898 152.006 134.783C152.715 138.629 153.767 142.404 155.149 146.063C155.211 146.227 155.362 146.398 155.211 146.618C154.615 146.481 154.423 145.933 154.136 145.522C151.191 141.235 149.711 136.379 148.712 131.345C148.321 129.386 148.081 127.407 147.869 125.421C147.869 125.133 147.986 124.579 147.465 124.647C146.945 124.716 147.184 125.195 147.205 125.517C147.766 132.605 149.383 139.365 153.369 145.378C153.437 145.53 153.49 145.688 153.526 145.851C152.587 145.121 151.763 144.256 151.081 143.282C148.205 139.474 146.568 135.126 145.52 130.516C145.496 130.327 145.462 130.14 145.417 129.955C145.349 129.743 145.294 129.462 145 129.496C144.705 129.53 144.732 129.825 144.753 130.037C144.786 130.342 144.838 130.644 144.911 130.941C146.068 136.091 148.04 140.851 151.581 144.864C148.086 142.1 145.487 138.364 144.109 134.126C143.972 133.715 144.048 132.859 143.424 133.064C142.801 133.27 143.349 133.961 143.479 134.365C144.544 137.714 146.383 140.764 148.849 143.269C149.095 143.522 149.451 143.707 149.533 144.118C145.267 142.447 141.137 136.865 141.048 132.77C140.983 131.806 141.188 130.844 141.641 129.991C142.093 129.137 142.775 128.428 143.609 127.941C143.81 127.852 143.975 127.697 144.076 127.501C144.177 127.306 144.208 127.082 144.164 126.866C144.071 126.034 144.156 125.192 144.411 124.395C144.667 123.598 145.088 122.864 145.648 122.241C146.207 121.618 146.892 121.121 147.657 120.781C148.423 120.442 149.251 120.268 150.088 120.271C150.345 120.304 150.606 120.251 150.829 120.12C151.052 119.988 151.225 119.786 151.321 119.545C152.588 116.984 154.745 115.84 157.574 115.84C160.402 115.84 162.546 117.004 163.82 119.565C163.907 119.787 164.063 119.973 164.266 120.097C164.469 120.22 164.706 120.274 164.943 120.25C168.703 120.346 171.168 123.058 170.97 126.866C170.93 127.064 170.954 127.27 171.039 127.454C171.124 127.637 171.265 127.789 171.442 127.887C173.798 129.448 174.551 131.509 173.894 134.379C173.209 137.351 171.449 139.632 169.223 141.604C168.062 142.657 166.76 143.542 165.354 144.234V144.234Z" fill="white"/>
<path d="M139.822 139.508C139.326 139.386 138.885 139.101 138.569 138.7C133.898 133.625 132.035 127.633 132.644 120.812C132.928 117.362 133.88 114.001 135.446 110.915C135.569 110.676 135.918 110.34 135.528 110.121C135.137 109.902 134.946 110.361 134.843 110.634C132.581 115.074 131.572 120.046 131.925 125.017C132.222 129.365 133.829 133.522 136.535 136.94C135.496 136.507 134.64 135.728 134.11 134.735C130.405 128.372 129.371 121.722 131.768 114.62C131.891 114.257 132.453 113.648 131.816 113.442C131.179 113.237 131.254 114.031 131.131 114.415C129.008 120.442 129.487 126.318 132.179 132.064C132.347 132.398 132.478 132.749 132.569 133.112C130.843 130.827 129.671 128.174 129.145 125.359C128.222 120.919 128.888 116.297 131.028 112.299C132.056 110.252 133.813 108.664 135.952 107.847C136.836 107.512 137.404 106.744 138.171 106.245C139.329 105.477 140.52 105.108 141.856 105.717C143.623 106.518 144.273 108.053 143.637 110.141C143.281 111.135 143.224 112.211 143.472 113.237C143.924 115.024 143.328 116.737 142.596 118.367C141.33 120.949 140.462 123.709 140.02 126.551C139.336 132.543 140.486 137.858 145.328 141.919C145.423 142.023 145.512 142.133 145.595 142.248C145.213 142.234 144.839 142.139 144.497 141.967C144.156 141.796 143.855 141.553 143.616 141.255C138.979 136.563 137.35 130.831 137.938 124.393C138.314 120.914 139.406 117.549 141.144 114.511C141.281 114.264 141.603 113.963 141.253 113.703C140.904 113.442 140.719 113.86 140.568 114.093C136.309 121.791 135.452 131.03 140.719 138.597C141.246 139.351 141.829 140.063 142.465 140.912C141.993 140.819 141.572 140.556 141.281 140.173C137.356 136.447 135.473 131.769 135.048 126.475C134.562 120.312 136.37 114.833 139.842 109.778C139.973 109.587 140.11 109.402 140.233 109.21C140.356 109.018 140.397 108.847 140.192 108.717C140.108 108.669 140.01 108.653 139.916 108.672C139.821 108.69 139.737 108.743 139.678 108.82C139.598 108.903 139.527 108.995 139.466 109.094C133.987 117.237 132.432 125.804 136.726 134.975C137.563 136.61 138.603 138.134 139.822 139.508V139.508Z" fill="white"/>
<path d="M172.599 140.81C172.969 140.337 173.353 139.885 173.709 139.44C178.647 132.749 178.976 125.517 176.202 117.936C175.745 116.672 175.179 115.451 174.51 114.285C174.353 114.011 174.236 113.498 173.825 113.724C173.414 113.95 173.764 114.326 173.914 114.607C175.355 117.159 176.349 119.938 176.852 122.825C177.969 129.818 176.49 136.084 171.442 141.317C171.2 141.641 170.873 141.892 170.497 142.042C170.121 142.192 169.711 142.235 169.312 142.166C169.521 142.069 169.721 141.952 169.908 141.817C174.551 137.872 175.64 132.681 175.051 126.935C174.723 124.141 173.926 121.423 172.695 118.894C171.682 116.703 170.97 114.456 171.839 112.011C172.079 111.327 171.545 110.779 171.408 110.155C171.086 108.745 170.99 107.416 172.195 106.327C172.758 105.762 173.505 105.418 174.3 105.359C175.095 105.3 175.884 105.529 176.524 106.005C177.893 106.93 179.263 107.793 180.674 108.628C183.509 110.292 184.742 113.128 185.557 116.162C187.146 122.01 186.098 127.455 182.886 132.694C182.694 132.133 183.003 131.845 183.133 131.537C184.526 128.451 185.263 125.109 185.297 121.723C185.201 119.121 184.702 116.549 183.818 114.1C183.722 113.813 183.674 113.258 183.235 113.415C182.667 113.6 183.071 114.1 183.181 114.381C185.619 121.387 184.715 128.037 181.126 134.427C180.507 135.464 179.684 136.365 178.708 137.077C178.544 136.605 178.914 136.393 179.085 136.167C184.68 127.907 184.181 119.381 180.215 110.703C180.085 110.423 179.948 109.895 179.53 110.142C179.113 110.388 179.53 110.827 179.66 111.107C182.968 118.23 183.639 125.448 180.441 132.804C179.461 134.975 178.123 136.966 176.483 138.694C176.127 139.111 175.669 139.429 175.154 139.618C175.51 139.166 175.709 138.933 175.901 138.666C181.667 131.037 182.064 122.832 178.476 114.224C177.734 112.452 176.787 110.774 175.654 109.224C175.462 108.957 175.27 108.471 174.894 108.717C174.36 109.06 174.935 109.402 175.113 109.635C178.619 114.73 180.462 120.305 179.955 126.537C179.523 131.804 177.647 136.44 173.791 140.146C173.483 140.447 173.106 140.707 172.805 140.981L172.599 140.81Z" fill="white"/>
<path d="M166.278 144.768C166.396 144.549 166.58 144.373 166.803 144.263C167.027 144.154 167.279 144.118 167.525 144.159C171.448 144.172 175.331 143.37 178.927 141.803C180.516 141.152 182.139 140.556 183.776 140.008C187.138 138.836 190.796 138.824 194.166 139.974C194.453 140.07 194.946 140.529 195.138 139.974C195.33 139.42 194.693 139.454 194.385 139.344C190.525 138.072 186.342 138.186 182.557 139.666C179.523 140.741 176.626 142.193 173.462 142.871C171.668 143.301 169.828 143.504 167.983 143.474C169.106 143.067 170.249 142.72 171.408 142.433C174.593 141.74 177.68 140.654 180.599 139.2C183.33 137.793 186.288 136.877 189.337 136.495C191.443 136.344 193.56 136.522 195.611 137.022C195.926 137.091 196.467 137.461 196.597 136.913C196.727 136.365 196.111 136.434 195.782 136.344C191.388 135.238 186.747 135.678 182.639 137.591C179.9 138.817 177.215 140.276 174.318 141.2C174.147 141.255 173.99 141.426 173.75 141.275C177.707 138.762 181.846 136.546 186.132 134.646C188.993 133.376 192.176 133.017 195.248 133.619C195.529 133.674 195.933 133.913 196.029 133.482C196.124 133.05 195.611 132.989 195.344 132.927C192.47 132.342 189.487 132.609 186.762 133.694C184.377 134.671 182.07 135.828 179.859 137.153C181.331 135.03 184.721 132.838 188.173 131.77C189.822 131.254 191.535 130.97 193.262 130.927C193.597 130.927 194.2 131.119 194.159 130.564C194.118 130.01 193.536 130.277 193.193 130.283C190.119 130.441 187.122 131.303 184.434 132.804C184.091 132.982 183.749 133.139 183.4 133.304C183.4 133.304 183.338 133.304 183.276 133.228C183.649 132.395 184.297 131.716 185.112 131.304C186.5 130.406 188.038 129.764 189.652 129.407C189.933 129.345 190.378 129.311 190.262 128.9C190.146 128.489 189.735 128.667 189.461 128.743C187.866 129.19 186.343 129.859 184.934 130.729C185.345 127.791 189.146 126.236 191.659 127.989C192.116 128.318 192.653 128.517 193.214 128.564C196.008 128.852 197.672 130.653 197.679 133.413C197.685 133.618 197.733 133.819 197.82 134.004C197.907 134.189 198.032 134.354 198.186 134.488C200.021 136.591 199.597 139.063 197.165 140.467C196.922 140.567 196.72 140.746 196.59 140.974C195.905 142.378 195.172 142.741 193.679 142.419C192.186 142.097 190.611 141.481 188.981 141.351C186.473 141.192 183.96 141.553 181.598 142.412C178.517 143.446 175.435 144.556 172.182 144.919C170.216 145.126 168.231 145.075 166.278 144.768Z" fill="white"/>
<path d="M148.725 144.748C144.328 145.556 140.199 144.679 136.11 143.33C133.754 142.549 131.432 141.597 128.926 141.351C126.742 141.138 124.538 141.393 122.461 142.097C121.685 142.44 120.828 142.556 119.988 142.433C119.577 142.337 119.023 142.248 118.899 141.865C118.543 140.735 117.475 140.378 116.742 139.666C115.372 138.296 115.372 136.16 116.742 134.557C116.915 134.414 117.056 134.237 117.157 134.037C117.257 133.836 117.314 133.617 117.324 133.393C117.324 130.653 118.995 128.838 121.796 128.544C122.357 128.495 122.894 128.296 123.351 127.969C125.782 126.284 129.179 127.626 130.2 130.708C128.9 129.95 127.522 129.335 126.091 128.873C125.838 128.787 125.579 128.718 125.317 128.667C125.097 128.633 124.817 128.585 124.741 128.873C124.666 129.16 124.947 129.256 125.159 129.318C125.995 129.592 126.871 129.763 127.673 130.112C129.248 130.797 130.85 131.482 131.782 133.194C131.268 133.297 130.974 132.961 130.645 132.797C128.017 131.348 125.11 130.479 122.118 130.249C121.851 130.236 121.584 130.236 121.317 130.249C121.091 130.249 120.797 130.249 120.803 130.564C120.81 130.879 121.077 130.893 121.31 130.9C122.501 130.897 123.689 131.012 124.858 131.242C128.672 131.973 132.165 133.868 134.857 136.666C134.213 136.81 133.884 136.413 133.487 136.208C130.549 134.612 127.604 133.05 124.2 132.681C122.674 132.487 121.127 132.559 119.625 132.893C119.338 132.961 118.81 132.954 118.941 133.441C119.071 133.927 119.434 133.646 119.714 133.585C122.981 132.959 126.362 133.393 129.364 134.824C133.463 136.68 137.417 138.841 141.192 141.289C139.153 140.674 137.173 139.879 135.275 138.913C132.645 137.659 130.001 136.434 127.09 135.954C124.392 135.53 121.635 135.672 118.995 136.372C118.735 136.434 118.276 136.454 118.386 136.892C118.495 137.331 118.899 137.105 119.16 137.036C124.248 135.667 129.063 136.564 133.658 138.858C137.802 140.913 142.205 142.166 146.821 143.296C145.274 143.577 142.294 143.159 139.76 142.371C136.795 141.447 134.001 140.077 131.022 139.18C127.588 138.118 123.905 138.18 120.509 139.358C120.235 139.447 119.694 139.44 119.824 139.961C119.954 140.481 120.338 140.132 120.598 140.043C124.871 138.529 129.035 139.05 133.172 140.652C135.809 141.68 138.391 142.864 141.178 143.488C143.198 143.959 145.267 144.189 147.342 144.173C147.89 144.152 148.383 144.131 148.725 144.748Z" fill="white"/>
<path d="M161.484 147.419C161.835 147.379 162.189 147.446 162.501 147.609C162.814 147.773 163.07 148.026 163.237 148.337C164.063 149.769 165.076 151.084 166.251 152.247C166.443 152.432 166.648 152.857 166.984 152.535C167.319 152.213 166.984 151.987 166.758 151.768C165.611 150.618 164.593 149.346 163.724 147.974C164.132 147.988 164.533 148.089 164.9 148.271C165.266 148.453 165.589 148.711 165.847 149.028C166.287 149.609 166.79 150.14 167.347 150.61C167.675 150.884 168.031 151.686 168.497 151.151C168.867 150.734 168.093 150.467 167.812 150.165C167.532 149.864 167.018 149.604 166.737 149.001C167.809 149.395 168.822 149.932 169.751 150.597C170.668 151.282 169.942 152.055 169.47 152.384C168.635 153.009 168.027 153.889 167.737 154.891C167.134 156.514 165.182 157.37 163.32 156.945C163.092 156.874 162.847 156.874 162.619 156.946C162.391 157.019 162.191 157.159 162.046 157.349C160.84 158.526 159.221 159.185 157.536 159.185C155.851 159.185 154.232 158.526 153.026 157.349C152.878 157.163 152.678 157.025 152.451 156.953C152.224 156.881 151.981 156.879 151.752 156.945C151.241 157.079 150.707 157.106 150.185 157.023C149.663 156.94 149.164 156.749 148.719 156.463C148.274 156.178 147.893 155.803 147.601 155.362C147.309 154.922 147.111 154.425 147.02 153.905C146.997 153.701 146.922 153.507 146.802 153.342C146.682 153.176 146.521 153.045 146.335 152.959C145.845 152.727 145.445 152.34 145.198 151.857C144.835 151.172 144.904 150.734 145.616 150.364C146.495 149.843 147.411 149.385 148.355 148.994C148.035 149.464 147.639 149.879 147.184 150.22C146.917 150.501 146.219 150.72 146.582 151.138C146.945 151.556 147.349 150.919 147.65 150.672C148.186 150.237 148.667 149.738 149.081 149.186C149.328 148.846 149.645 148.565 150.012 148.361C150.379 148.158 150.786 148.037 151.204 148.008C150.809 148.869 150.267 149.655 149.602 150.33C149.246 150.782 148.828 151.179 148.458 151.617C148.232 151.884 147.677 152.165 148.081 152.535C148.486 152.905 148.725 152.323 148.958 152.083C150.074 150.969 151.036 149.711 151.821 148.344C151.996 148.027 152.262 147.771 152.584 147.606C152.906 147.441 153.27 147.376 153.629 147.419C152.732 149.518 151.626 151.521 150.328 153.398C150.095 153.747 149.458 154.226 149.903 154.542C150.492 154.959 150.65 154.11 150.889 153.774C152.136 151.932 153.212 149.979 154.101 147.939C154.245 147.624 154.266 147.07 154.82 147.255C155.375 147.44 155.108 147.939 155.005 148.309C154.394 150.48 153.669 152.617 152.834 154.713C152.725 154.994 152.403 155.398 152.834 155.61C153.266 155.822 153.341 155.267 153.451 154.987C154.282 152.845 154.989 150.656 155.567 148.433C155.649 148.111 155.567 147.535 156.149 147.624C156.731 147.713 156.464 148.234 156.444 148.57C156.272 151.172 155.855 153.747 155.43 156.315C155.375 156.63 155.081 157.089 155.546 157.206C156.149 157.363 156.026 156.726 156.087 156.425C156.596 153.828 156.948 151.202 157.142 148.563C157.142 148.289 157.012 147.878 157.464 147.837C157.916 147.796 157.786 148.268 157.806 148.522C158.012 151.198 158.375 153.86 158.895 156.493C158.957 156.788 158.895 157.329 159.389 157.178C159.882 157.028 159.601 156.617 159.546 156.302C159.08 153.81 158.744 151.295 158.539 148.768C158.505 148.378 158.163 147.713 158.786 147.59C159.409 147.467 159.313 148.186 159.43 148.576C160.007 150.683 160.693 152.759 161.484 154.795C161.614 155.11 161.607 155.726 162.121 155.555C162.635 155.384 162.251 154.87 162.121 154.589C161.328 152.554 160.642 150.478 160.067 148.371C159.957 147.974 159.532 147.412 160.19 147.2C160.847 146.987 160.834 147.713 161.005 148.076C161.909 150.109 162.996 152.055 164.251 153.891C164.457 154.179 164.614 154.857 165.121 154.5C165.511 154.22 165.039 153.816 164.833 153.521C163.602 151.762 162.528 149.899 161.621 147.953C161.566 147.778 161.52 147.599 161.484 147.419V147.419Z" fill="white"/>
<path d="M161.922 146.816C162.129 146.631 162.376 146.496 162.643 146.422C162.91 146.347 163.191 146.334 163.463 146.385C168.027 146.983 172.259 149.093 175.483 152.377C175.695 152.597 175.901 153.131 176.277 152.802C176.654 152.473 176.188 152.117 175.962 151.877C172.915 148.686 169.114 146.926 164.854 145.988C164.71 145.953 164.559 145.926 164.415 145.885C164.415 145.885 164.374 145.83 164.326 145.762C164.499 145.564 164.728 145.423 164.982 145.357C165.236 145.291 165.504 145.303 165.751 145.392C170.6 146.316 174.976 148.186 178.476 151.802C178.688 152.021 178.928 152.487 179.284 152.103C179.64 151.72 179.126 151.494 178.914 151.261C176.789 149.144 174.234 147.509 171.422 146.467C170.981 146.307 170.557 146.105 170.155 145.864C171.161 145.748 172.134 145.46 173.188 145.823C176.531 146.981 179.626 148.508 181.982 151.261C182.16 151.467 182.352 151.877 182.667 151.556C182.982 151.234 182.667 150.987 182.455 150.761C180.522 148.611 178.083 146.978 175.36 146.008C174.935 145.844 174.503 145.693 173.949 145.488C174.738 145.085 175.651 144.997 176.503 145.241C178.658 145.823 180.666 146.849 182.4 148.254C182.64 148.439 182.914 148.939 183.249 148.563C183.585 148.186 183.064 147.919 182.811 147.72C181.093 146.382 179.136 145.382 177.044 144.775C177.31 144.552 177.629 144.403 177.97 144.342C178.311 144.28 178.663 144.31 178.989 144.426C180.182 144.721 181.319 145.204 182.359 145.857C182.605 146.008 182.914 146.501 183.194 146.001C183.475 145.501 182.934 145.453 182.66 145.275C181.681 144.731 180.657 144.273 179.599 143.906C180.368 143.554 181.226 143.449 182.057 143.603C182.888 143.758 183.651 144.165 184.242 144.769C185.317 145.864 185.427 147.166 184.516 148.878C184.432 149.043 184.383 149.224 184.374 149.409C184.364 149.595 184.394 149.78 184.461 149.953C185.091 152.329 183.201 154.144 180.804 153.453C180.545 153.357 180.268 153.322 179.993 153.352C179.718 153.381 179.454 153.475 179.222 153.624C177.332 154.74 175.113 154.658 173.709 153.103C170.572 149.556 166.532 147.898 161.922 146.816Z" fill="white"/>
<path d="M141.055 145.453C139.704 145.942 138.384 146.514 137.103 147.165C135.465 148.016 133.993 149.153 132.754 150.521C132.508 150.809 131.939 151.172 132.378 151.555C132.816 151.939 132.987 151.295 133.22 151.041C135.726 148.268 138.925 146.693 142.438 145.672C143.253 145.432 144.068 145.741 145.137 145.795C143.828 146.371 142.739 146.816 141.678 147.323C139.628 148.275 137.771 149.596 136.199 151.22C135.959 151.466 135.446 151.754 135.829 152.137C136.213 152.521 136.418 151.966 136.637 151.747C140.158 148.151 144.534 146.268 149.389 145.378C149.985 145.268 149.992 145.282 150.807 145.837C149.306 146.167 147.828 146.594 146.383 147.117C143.638 148.132 141.157 149.752 139.123 151.856C138.897 152.103 138.363 152.411 138.781 152.781C139.199 153.151 139.411 152.541 139.637 152.308C142.881 149.039 147.127 146.951 151.697 146.378C152.191 146.302 152.191 146.316 153.067 146.761C151.759 147.158 150.54 147.48 149.342 147.898C146.466 148.79 143.871 150.411 141.808 152.603C140.021 154.589 137.877 154.849 135.583 153.493C135.395 153.376 135.182 153.306 134.961 153.29C134.74 153.273 134.519 153.31 134.316 153.397C131.747 154.151 129.919 152.411 130.569 149.836C130.623 149.678 130.642 149.51 130.627 149.344C130.612 149.178 130.562 149.016 130.48 148.87C129.583 147.151 129.686 145.85 130.748 144.761C131.339 144.155 132.103 143.746 132.935 143.59C133.767 143.434 134.627 143.54 135.398 143.892C134.301 144.269 133.24 144.744 132.227 145.309C131.98 145.474 131.597 145.631 131.809 145.994C132.021 146.357 132.343 146.028 132.562 145.884C133.566 145.244 134.66 144.759 135.809 144.446C136.161 144.311 136.542 144.266 136.916 144.315C137.29 144.364 137.647 144.505 137.952 144.727C136.376 145.225 134.867 145.915 133.46 146.782C133.068 147.024 132.693 147.292 132.336 147.583C132.049 147.836 131.378 148.035 131.7 148.487C132.021 148.939 132.384 148.357 132.706 148.138C134.307 146.879 136.128 145.926 138.076 145.33C138.554 145.146 139.066 145.063 139.578 145.084C140.09 145.105 140.593 145.231 141.055 145.453Z" fill="white"/>
<path d="M157.56 112.648C155.191 112.653 152.873 111.956 150.9 110.645C148.926 109.334 147.386 107.467 146.473 105.281C145.56 103.095 145.316 100.687 145.771 98.3616C146.226 96.0364 147.359 93.8982 149.029 92.2172C150.699 90.5361 152.829 89.3876 155.151 88.9168C157.473 88.446 159.882 88.6739 162.075 89.5718C164.267 90.4697 166.145 91.9973 167.469 93.9616C168.794 95.9259 169.507 98.2388 169.518 100.608C169.524 102.184 169.22 103.746 168.622 105.204C168.024 106.662 167.145 107.988 166.034 109.107C164.924 110.225 163.604 111.113 162.15 111.721C160.696 112.328 159.136 112.643 157.56 112.648V112.648ZM146.506 100.519C146.479 102.7 147.1 104.839 148.291 106.667C149.481 108.494 151.187 109.927 153.193 110.784C155.199 111.64 157.414 111.882 159.557 111.478C161.7 111.074 163.675 110.043 165.232 108.515C166.788 106.988 167.856 105.032 168.3 102.897C168.744 100.762 168.544 98.5426 167.725 96.5212C166.906 94.4997 165.506 92.767 163.701 91.5425C161.896 90.3181 159.768 89.6571 157.587 89.6434C156.145 89.6271 154.713 89.8958 153.375 90.4341C152.037 90.9723 150.818 91.7695 149.788 92.78C148.759 93.7904 147.939 94.9942 147.376 96.3222C146.812 97.6503 146.517 99.0765 146.506 100.519V100.519Z" fill="white"/>
<path d="M180.996 107.628C179.875 105.806 178.455 104.186 176.798 102.834C176.49 102.601 176.079 102.019 175.777 102.362C175.476 102.704 176.12 102.978 176.387 103.218C177.5 104.195 178.503 105.29 179.38 106.484C176.695 105.293 172.449 100.862 171.743 98.5742C175.291 98.6564 180.414 103.622 180.996 107.628Z" fill="white"/>
<path d="M135.651 106.498C136.58 105.153 137.702 103.951 138.979 102.93C139.158 102.786 139.562 102.649 139.308 102.334C139.055 102.019 138.808 102.334 138.623 102.505C137.084 103.653 135.766 105.071 134.733 106.69C134.514 107.019 134.432 107.478 133.98 107.642C134.459 103.807 139.527 98.8346 143.493 98.5127C141.411 101.773 139.199 104.683 135.651 106.498Z" fill="white"/>
<path d="M157.32 90.6778C159.649 90.6387 161.919 91.414 163.738 92.8701C165.556 94.3261 166.809 96.3713 167.28 98.6527C167.752 100.934 167.411 103.308 166.319 105.366C165.226 107.423 163.449 109.034 161.295 109.921C159.141 110.808 156.745 110.915 154.52 110.224C152.296 109.532 150.382 108.086 149.111 106.134C147.839 104.183 147.288 101.848 147.554 99.5337C147.82 97.2194 148.886 95.0706 150.567 93.4583L151.088 92.9994C151.239 92.8625 151.41 92.7803 151.588 92.9378C151.766 93.0953 151.725 93.3556 151.554 93.5336C151.382 93.7117 151.156 93.8966 150.965 94.0884C149.345 95.7084 148.38 97.8696 148.256 100.157C148.132 102.445 148.858 104.698 150.293 106.483C151.729 108.269 153.773 109.461 156.034 109.831C158.295 110.202 160.613 109.724 162.543 108.489C164.473 107.255 165.88 105.351 166.492 103.144C167.104 100.936 166.879 98.5799 165.861 96.5278C164.842 94.4757 163.101 92.8722 160.973 92.025C158.844 91.1779 156.477 91.1469 154.327 91.9379C153.958 92.068 153.369 92.6228 153.156 92.0338C152.944 91.4448 153.766 91.3969 154.17 91.2325C155.171 90.8348 156.243 90.646 157.32 90.6778V90.6778Z" fill="white"/>
<path d="M159.573 108.669C159.491 108.628 159.313 108.594 159.258 108.491C159.204 108.388 159.258 108.121 159.471 108.046C159.827 107.902 160.197 107.806 160.546 107.649C161.547 107.213 162.443 106.567 163.173 105.756C163.903 104.944 164.451 103.985 164.778 102.944C164.874 102.649 164.854 102.129 165.347 102.3C165.717 102.43 165.491 102.855 165.408 103.115C165.021 104.403 164.323 105.576 163.376 106.531C162.429 107.486 161.262 108.195 159.977 108.594C159.844 108.627 159.709 108.652 159.573 108.669V108.669Z" fill="white"/>
<path d="M201.918 214.946C201.879 214.253 201.574 213.602 201.067 213.127C200.561 212.653 199.891 212.391 199.197 212.396C198.503 212.401 197.837 212.673 197.338 213.156C196.839 213.638 196.544 214.294 196.515 214.987C196.499 215.354 196.559 215.719 196.689 216.062C196.819 216.405 197.017 216.717 197.272 216.981C197.527 217.244 197.832 217.454 198.17 217.596C198.508 217.737 198.872 217.809 199.238 217.806C199.605 217.804 199.967 217.726 200.303 217.579C200.639 217.432 200.941 217.219 201.192 216.951C201.442 216.684 201.636 216.368 201.761 216.023C201.886 215.679 201.939 215.312 201.918 214.946V214.946ZM199.179 211.604C199.862 211.589 200.534 211.779 201.108 212.149C201.682 212.518 202.133 213.052 202.402 213.679C202.671 214.307 202.746 215.001 202.617 215.672C202.488 216.343 202.162 216.96 201.68 217.444C201.198 217.928 200.582 218.257 199.912 218.388C199.242 218.519 198.548 218.447 197.919 218.181C197.29 217.915 196.755 217.466 196.382 216.893C196.01 216.321 195.818 215.65 195.83 214.967C195.822 214.524 195.903 214.084 196.068 213.673C196.233 213.263 196.479 212.889 196.792 212.575C197.104 212.262 197.476 212.014 197.887 211.847C198.297 211.68 198.736 211.598 199.179 211.604" fill="white"/>
<path d="M193.344 166.417V166.616C193.464 166.597 193.585 166.586 193.707 166.581C193.834 166.57 193.962 166.602 194.07 166.67C194.1 166.697 194.125 166.729 194.142 166.766C194.158 166.803 194.166 166.843 194.166 166.883C194.12 167.146 194.051 167.405 193.96 167.657L192.317 173.396C192.782 173.776 193.36 173.993 193.96 174.012C194.483 173.999 194.99 173.832 195.419 173.533C195.929 173.18 196.347 172.71 196.638 172.163C196.95 171.633 197.12 171.032 197.131 170.417C197.154 170.024 197.021 169.637 196.761 169.341C196.642 169.21 196.496 169.106 196.333 169.036C196.17 168.966 195.994 168.933 195.816 168.937C195.539 168.94 195.267 169.008 195.022 169.136C194.697 169.339 194.404 169.588 194.152 169.876L195.234 166.109L193.344 166.417ZM193.817 171.04C193.931 170.597 194.168 170.196 194.501 169.882C194.754 169.626 195.094 169.474 195.453 169.458C195.563 169.456 195.671 169.481 195.768 169.53C195.866 169.579 195.95 169.65 196.015 169.739C196.18 169.97 196.262 170.25 196.248 170.533C196.244 171.112 196.118 171.684 195.878 172.211C195.709 172.684 195.41 173.099 195.015 173.41C194.74 173.624 194.405 173.746 194.056 173.759C193.73 173.738 193.414 173.635 193.138 173.457L193.817 171.04ZM197.665 169.335L197.707 169.54C197.845 169.52 197.984 169.508 198.124 169.506C198.216 169.496 198.309 169.508 198.396 169.54C198.482 169.572 198.561 169.624 198.624 169.691C198.781 170.013 198.863 170.367 198.864 170.725L199.165 174.183C198.927 174.499 198.668 174.798 198.391 175.081C198.186 175.303 197.957 175.5 197.707 175.67C197.676 175.698 197.638 175.717 197.597 175.724C197.575 175.73 197.551 175.73 197.528 175.724C197.493 175.668 197.463 175.608 197.439 175.546C197.421 175.485 197.385 175.431 197.337 175.389C197.285 175.352 197.222 175.335 197.159 175.341C197.086 175.343 197.015 175.361 196.951 175.393C196.886 175.425 196.828 175.47 196.782 175.526C196.725 175.571 196.679 175.628 196.647 175.693C196.615 175.758 196.598 175.83 196.597 175.902C196.6 176.015 196.644 176.122 196.72 176.204C196.803 176.284 196.914 176.328 197.029 176.327C197.276 176.311 197.513 176.226 197.713 176.08C198.17 175.746 198.58 175.352 198.932 174.909C199.727 173.999 200.412 173.17 200.987 172.403C201.41 171.865 201.79 171.295 202.124 170.697C202.309 170.4 202.415 170.061 202.432 169.711C202.441 169.514 202.38 169.32 202.261 169.163C202.211 169.102 202.148 169.053 202.077 169.019C202.006 168.984 201.929 168.966 201.85 168.965C201.789 168.963 201.728 168.975 201.671 168.998C201.614 169.022 201.563 169.057 201.521 169.102C201.477 169.149 201.442 169.205 201.42 169.267C201.398 169.328 201.388 169.393 201.391 169.458C201.384 169.575 201.424 169.691 201.501 169.78C201.566 169.868 201.657 169.935 201.761 169.972C201.832 169.989 201.899 170.019 201.96 170.061C201.994 170.061 202.001 170.115 202.001 170.163C202.011 170.222 202.011 170.282 202.001 170.341C201.901 170.553 201.789 170.759 201.665 170.958C201.371 171.423 201.11 171.807 200.912 172.088C200.501 172.649 200.186 173.06 199.96 173.327L199.727 170.643C199.672 170.108 199.624 169.739 199.583 169.561C199.523 169.351 199.436 169.151 199.323 168.965L197.665 169.335Z" fill="white"/>
<path d="M95.8606 190.312C95.3949 190.524 95.3196 190.996 95.1347 191.312C93.0801 195.037 91.0255 198.763 88.9709 202.488C88.8134 202.776 88.7449 203.256 88.3545 203.235C87.9642 203.214 87.9162 202.742 87.7656 202.447L82.4647 192.133C82.2935 191.805 82.0949 191.49 81.7799 190.949C81.3621 193.921 80.9786 196.647 80.6019 199.366C80.5266 199.9 80.4375 200.427 80.3759 200.961C80.2869 201.763 80.2252 202.564 81.1155 203.269H77.2598C78.9856 201.9 78.7322 200.085 78.9856 198.441C79.6705 194.126 80.2047 189.791 80.8211 185.47C80.869 185.12 80.6841 184.593 81.1635 184.47C81.6429 184.346 81.8004 184.922 81.9785 185.264C84.1015 189.373 86.2201 193.483 88.334 197.592C88.5258 197.948 88.6079 198.393 89.0805 198.646L95.5935 186.887C95.9634 186.202 96.3537 185.559 96.7099 184.881C96.7668 184.718 96.8784 184.58 97.0258 184.49C97.1731 184.4 97.3471 184.364 97.518 184.388C98.0043 184.436 97.9974 184.826 98.0385 185.148C98.5932 189.942 99.1343 194.736 99.7096 199.53C99.8602 200.804 99.7575 202.187 101.271 203.187H96.3058C97.1687 202.468 97.066 201.557 96.9907 200.653C96.6665 197.297 96.3378 193.944 96.0045 190.592C95.97 190.482 95.9217 190.376 95.8606 190.277" fill="white"/>
<path d="M170.442 202.16C171.384 202.191 172.321 202.015 173.187 201.645C174.053 201.274 174.827 200.718 175.455 200.016C176.951 198.324 177.761 196.135 177.725 193.877C177.69 191.619 176.812 189.456 175.264 187.812C174.652 187.175 173.917 186.669 173.103 186.325C172.29 185.981 171.415 185.807 170.532 185.813C169.648 185.818 168.776 186.004 167.967 186.358C167.158 186.713 166.429 187.228 165.826 187.873C164.418 189.406 163.577 191.375 163.444 193.452C163.311 195.53 163.893 197.59 165.093 199.29C165.69 200.161 166.488 200.877 167.418 201.376C168.349 201.875 169.386 202.144 170.442 202.16V202.16ZM170.607 184.353C176.257 184.353 180.736 188.675 180.715 194.078C180.715 199.359 176.113 203.666 170.545 203.666C164.977 203.666 160.464 199.345 160.45 194.024C160.436 188.702 164.922 184.353 170.607 184.36" fill="white"/>
<path d="M224.56 184.853C225.776 184.67 227.01 184.652 228.231 184.799C227.844 185.191 227.551 185.666 227.374 186.188C227.196 186.71 227.138 187.265 227.204 187.812C227.204 192.642 227.204 197.471 227.204 202.297C227.204 202.639 227.436 203.125 226.923 203.29C226.409 203.454 226.238 203.057 225.978 202.783C222.211 198.797 218.449 194.811 214.691 190.825C214.428 190.51 214.186 190.178 213.965 189.832L213.623 190.031V193.763C213.623 195.982 213.623 198.208 213.623 200.427C213.556 200.941 213.614 201.464 213.793 201.95C213.972 202.437 214.266 202.873 214.65 203.221C213.403 203.375 212.142 203.397 210.89 203.29C212.13 202.153 211.87 200.79 211.87 199.496C211.87 194.825 211.87 190.147 211.87 185.47C211.87 185.12 211.671 184.634 212.157 184.463C212.643 184.292 212.842 184.73 213.089 184.997L224.368 196.969L225.183 197.831C225.512 197.688 225.471 197.475 225.471 197.297C225.471 193.919 225.471 190.547 225.471 187.182C225.524 186.751 225.468 186.313 225.309 185.909C225.15 185.505 224.893 185.147 224.56 184.867" fill="white"/>
<path d="M132.802 197.784V187.826C132.802 186.75 132.802 185.689 131.748 184.812C132.998 184.663 134.261 184.647 135.514 184.764C134.384 185.894 134.494 187.182 134.501 188.463C134.501 192.946 134.501 197.434 134.501 201.927C134.501 202.379 134.802 203.03 134.227 203.297C133.651 203.564 133.377 202.906 133.049 202.564C129.346 198.651 125.655 194.731 121.975 190.805C121.711 190.486 121.466 190.152 121.242 189.805L120.899 189.997V193.037C120.899 195.414 120.899 197.79 120.899 200.174C120.899 201.249 120.899 202.304 121.92 203.194C120.638 203.338 119.345 203.375 118.057 203.304C119.29 202.297 119.173 201.133 119.173 199.996C119.173 195.17 119.173 190.337 119.173 185.497C119.173 185.134 119.002 184.634 119.42 184.456C119.838 184.278 120.16 184.737 120.434 185.031C124.228 189.045 128.017 193.065 131.802 197.092C132.035 197.376 132.248 197.675 132.439 197.989L132.802 197.763" fill="white"/>
<path d="M200.932 184.764H204.562C203.439 185.73 203.48 186.86 203.487 188.004C203.487 190.531 203.487 193.058 203.487 195.592C203.487 200.174 200.199 203.646 195.851 203.68C191.502 203.714 188.016 200.324 187.947 195.722C187.947 192.928 187.947 190.127 187.947 187.326C187.947 186.435 187.947 185.531 187.084 184.819H192.043C191.009 185.634 191.002 186.648 191.009 187.689C191.009 190.366 191.009 193.051 191.009 195.736C191.009 198.961 193.282 201.29 196.337 201.31C199.391 201.331 201.686 198.996 201.72 195.79C201.754 192.955 201.72 190.12 201.72 187.284C201.772 186.831 201.727 186.372 201.587 185.937C201.448 185.503 201.218 185.103 200.912 184.764" fill="white"/>
<path d="M151.41 203.263H146.896C147.691 200.009 148.177 196.797 146.403 193.64C145.41 191.873 144.486 190.065 143.534 188.278C142.849 186.963 142.26 185.538 140.657 184.984C140.657 184.895 140.733 184.805 140.767 184.71C142.205 184.71 143.643 184.71 145.075 184.71C145.376 184.71 145.472 184.901 145.287 185.168C145.172 185.371 145.118 185.603 145.13 185.836C145.142 186.069 145.22 186.293 145.355 186.483C146.725 189.058 148.095 191.613 149.533 194.339C150.944 191.634 152.273 189.093 153.574 186.552C153.69 186.319 153.862 185.997 153.786 185.792C153.245 184.292 154.355 184.689 155.053 184.696C155.842 184.598 156.643 184.67 157.402 184.908C155.697 185.593 155.094 186.963 154.409 188.278C153.908 189.397 153.329 190.479 152.677 191.517C150.622 194.435 150.239 197.681 150.533 201.105C150.615 202.023 150.608 202.105 151.41 203.228" fill="white"/>
<path d="M106.545 184.792H111.743C110.688 185.627 110.626 186.606 110.626 187.613V200.489C110.563 200.998 110.628 201.515 110.814 201.993C111.001 202.472 111.303 202.896 111.695 203.228H106.729C107.853 202.249 107.681 201.002 107.681 199.804C107.681 195.695 107.681 191.585 107.681 187.476C107.681 186.504 107.633 185.552 106.565 184.737" fill="white"/>
<path d="M233.251 185.237C232.868 185.227 232.488 185.296 232.132 185.438C231.777 185.581 231.454 185.794 231.184 186.065C230.914 186.336 230.701 186.659 230.56 187.015C230.418 187.37 230.351 187.751 230.361 188.134C230.361 188.905 230.666 189.645 231.211 190.192C231.755 190.739 232.493 191.048 233.265 191.051C234.036 191.035 234.772 190.721 235.317 190.175C235.863 189.628 236.175 188.892 236.189 188.12C236.178 187.349 235.863 186.614 235.313 186.074C234.763 185.534 234.022 185.233 233.251 185.237V185.237ZM233.251 184.367C233.75 184.364 234.244 184.46 234.706 184.649C235.167 184.839 235.587 185.117 235.94 185.469C236.293 185.821 236.573 186.24 236.764 186.701C236.955 187.161 237.053 187.656 237.052 188.154C237.024 189.161 236.604 190.117 235.884 190.82C235.163 191.523 234.196 191.918 233.189 191.921C232.202 191.903 231.262 191.498 230.57 190.794C229.878 190.089 229.491 189.142 229.491 188.154C229.479 187.656 229.568 187.16 229.752 186.697C229.936 186.234 230.213 185.813 230.564 185.459C230.915 185.105 231.334 184.826 231.796 184.639C232.258 184.451 232.753 184.359 233.251 184.367" fill="white"/>
<path d="M116.05 167.8C114.201 167.861 113.236 168.711 113.14 170.334C113.14 171.368 113.735 172.032 114.92 172.334L116.639 172.697C117.941 172.936 118.543 173.436 118.454 174.19C118.454 175.107 117.687 175.559 116.235 175.6C114.783 175.642 113.968 174.916 113.968 173.655H112.873C112.833 174.043 112.892 174.434 113.042 174.793C113.193 175.152 113.431 175.467 113.735 175.71C114.187 176.196 115.023 176.443 116.235 176.443C118.345 176.374 119.44 175.573 119.495 174.039C119.522 173.497 119.347 172.964 119.005 172.543C118.662 172.122 118.176 171.842 117.639 171.758L115.283 171.21C114.598 171.135 114.249 170.786 114.283 170.176C114.283 169.238 114.9 168.752 116.139 168.724C117.379 168.697 118.139 169.341 118.235 170.402H119.276C119.187 168.683 118.105 167.8 116.05 167.772V167.8ZM122.481 168.019V176.333H123.625V168.019H122.481ZM126.912 168.019V176.333H132.288V175.333H128.07V168.019H126.912ZM137.185 172.128L140.089 176.306H141.589L137.993 171.354L141.493 167.992H139.911L135.87 172.039V167.992H134.754V176.306H135.891V173.354L137.185 172.128ZM152.451 172.71C153.485 172.71 153.971 173.21 153.951 174.21C153.951 174.642 153.951 175.059 153.999 175.491C153.998 175.768 154.045 176.044 154.136 176.306H155.574V176.114C155.238 176.039 155.101 175.758 155.156 175.306L155.074 173.806C155.103 173.468 155.022 173.129 154.841 172.841C154.661 172.553 154.391 172.331 154.074 172.21C154.447 172.035 154.758 171.753 154.968 171.398C155.178 171.044 155.277 170.635 155.252 170.224C155.224 168.772 154.311 168.028 152.512 167.992H148.657V176.306H149.793V172.71H152.451ZM152.54 168.902C152.733 168.884 152.928 168.907 153.112 168.969C153.296 169.032 153.465 169.133 153.607 169.266C153.748 169.399 153.86 169.56 153.935 169.74C154.01 169.919 154.045 170.112 154.04 170.306C154.04 171.306 153.485 171.793 152.355 171.758H149.752V168.902H152.54ZM161.881 175.539C159.998 175.463 159.039 174.354 158.977 172.176C159.039 169.957 159.998 168.807 161.881 168.752C163.696 168.868 164.662 170.019 164.792 172.176C164.662 174.313 163.696 175.443 161.881 175.539ZM161.881 167.772C159.306 167.855 157.943 169.334 157.772 172.176C157.923 174.916 159.293 176.338 161.881 176.443C164.361 176.347 165.705 174.925 165.915 172.176C165.744 169.334 164.395 167.855 161.881 167.772ZM174.12 176.306H175.339L172.353 167.992H171.072L167.949 176.306H169.072L169.949 173.895H173.305L174.12 176.306ZM171.62 169.224H171.668L172.887 172.895H170.305L171.62 169.224ZM181.133 176.306C183.345 176.244 184.557 174.813 184.68 172.039C184.55 169.457 183.386 168.122 181.181 167.992H177.756V176.306H181.133ZM180.996 168.902C182.633 168.957 183.482 170.039 183.544 172.128C183.482 174.183 182.667 175.292 181.092 175.347H178.914V168.902H180.996Z" fill="white"/>
<path d="M84.622 222.774C83.9575 222.039 83.3933 221.219 82.9441 220.336C83.7317 218.754 84.1495 216.542 84.1906 213.686H84.7864V213.001H82.2387C82.3483 212.535 82.4579 211.981 82.5743 211.33H81.6086C81.5934 212.695 81.1423 214.02 80.3211 215.11V215.98C80.4719 215.824 80.6345 215.68 80.8073 215.549C80.937 217.208 81.359 218.831 82.0538 220.343C81.5768 221.225 80.9644 222.027 80.2389 222.719V223.678C81.0904 222.956 81.8352 222.117 82.451 221.185C83.083 222.092 83.8109 222.927 84.622 223.678V222.774ZM76.7255 223.589V221.315H78.8692V222.233C78.8692 222.63 78.6432 222.829 78.2186 222.829H77.7323V223.514H78.2733C79.3554 223.514 79.8485 223.096 79.78 222.144V216.665H75.7941V223.589H76.7255ZM73.3012 214.227V217.514C72.8775 217.639 72.4409 217.715 72 217.74V218.651L72.815 218.542C72.9715 218.486 73.1353 218.454 73.3012 218.446V222.171C73.3012 222.569 73.0821 222.754 72.6164 222.712H72.1849V223.473H72.993C73.8628 223.473 74.2806 223.082 74.2395 222.226V218.117L74.5134 218.007C74.7708 217.902 75.0203 217.779 75.2599 217.638V216.871C74.938 217.058 74.5956 217.207 74.2395 217.316V214.227H75.2052V213.467H74.2395V211.255H73.3218V213.467H72.1849V214.227H73.3012ZM76.2804 213.152V214.932H75.2942V215.699H80.0882V214.932H79.2664V213.152H80.0334V212.467H79.2664V211.282H78.3555V212.467H77.1639V211.282H76.253V212.467H75.4312V213.152H76.2804ZM81.6223 215.049H81.1909C81.5107 214.621 81.7861 214.162 82.0127 213.679H83.2591C83.3086 215.564 83.0518 217.444 82.4989 219.247C82.0074 217.894 81.7122 216.478 81.6223 215.042V215.049ZM78.8829 219.309V220.678H76.7187V219.309H78.8829ZM78.8829 217.37V218.658H76.7187V217.37H78.8829ZM78.3966 213.152V214.932H77.205V213.152H78.3966ZM97.3605 223.534C98.9562 223.534 99.7301 222.884 99.689 221.48V216.829H97.7919V211.857H88.7175V212.624H96.6071V216.829H91.7446C90.9159 216.871 90.5187 216.487 90.5598 215.699V213.59H89.4229V215.919C89.3818 217.11 90.0324 217.679 91.3748 217.651H98.5042V221.37C98.5453 222.315 98.0316 222.74 96.9975 222.74H95.3607V223.555L97.3605 223.534ZM97.1961 220.446V219.685H87.6902V220.446H97.1961ZM106.373 213.48H114.167V215.535H115.304V212.72H106.949C107.154 212.289 107.346 211.816 107.544 211.351H106.353C106.156 212.096 105.789 212.786 105.282 213.367C104.775 213.948 104.141 214.404 103.428 214.7V215.35C104.563 215.011 105.587 214.375 106.394 213.508L106.373 213.48ZM108.489 223.534C109.613 223.534 110.167 223.007 110.167 221.856V214.453H109.003V221.986C109.003 222.486 108.715 222.74 108.147 222.74H107.051V223.555L108.489 223.534ZM107.024 215.85H105.887C105.79 218.022 104.863 220.073 103.298 221.582V222.343C105.531 221.041 106.777 218.918 107.024 215.85ZM115.619 221.582C114.056 220.072 113.13 218.021 113.03 215.85H111.9C112.147 218.884 113.393 221.041 115.619 222.343V221.582ZM124.317 217.097V219.418H118.804V220.185H124.317V223.678H125.501V220.185H130.98V219.418H125.501V217.097H129.611V216.336H120.207V217.097H124.317ZM120.255 214.453V212.83H129.549V214.337H130.624V212.07H119.18V214.453H120.255ZM130.754 215.309C128.871 215.104 127.556 214.535 126.803 213.631H125.618C126.405 215.049 128.124 215.823 130.754 215.96V215.309ZM124.2 213.631H122.954C122.269 214.535 120.947 215.104 119.064 215.309V215.994C121.694 215.857 123.413 215.083 124.2 213.665V213.631ZM141.438 219.254H144.897V222.069C144.897 222.575 144.664 222.815 144.212 222.754H143.356V223.514H144.438C145.554 223.514 146.095 223.027 146.054 221.945V211.789H140.377V218.822C140.445 220.808 139.952 222.192 138.87 222.979V223.74C139.709 223.347 140.408 222.707 140.871 221.904C141.334 221.102 141.539 220.177 141.459 219.254H141.438ZM137.384 222.178C138.459 222.178 138.986 221.706 138.945 220.665V212.124H134.788V222.178H137.384ZM144.917 215.85V218.494H141.459V215.85H144.917ZM144.917 212.556V215.145H141.459V212.556H144.917ZM135.836 217.316H137.939V220.74C137.939 221.24 137.719 221.493 137.178 221.493H135.809L135.836 217.316ZM137.939 212.83V216.61H135.836V212.83H137.939ZM155.574 215.905V218.453H149.78V219.213H155.574V221.952C155.615 222.452 155.32 222.692 154.711 222.637H153.786V223.459H155.197C155.413 223.492 155.633 223.475 155.841 223.409C156.049 223.343 156.239 223.229 156.396 223.077C156.552 222.925 156.672 222.739 156.744 222.533C156.817 222.327 156.84 222.107 156.813 221.891V219.192H162.176V218.432H156.813V215.884H160.765V215.124H151.465V215.884L155.574 215.905ZM151.239 214.604V213.234H160.71V214.604H161.738V212.439H156.546V211.255H155.3V212.439H150.095V214.604H151.239ZM170.682 218.199C169.07 218.919 167.355 219.381 165.6 219.569V220.103C167.195 219.98 168.769 219.67 170.291 219.179C170.554 219.243 170.808 219.335 171.052 219.452C169.307 220.388 167.398 220.977 165.429 221.185V221.781C167.583 221.644 169.683 221.054 171.593 220.048C171.699 220.261 171.756 220.495 171.757 220.733C169.762 221.823 167.577 222.52 165.319 222.788V223.329C167.543 223.094 169.716 222.509 171.757 221.596V222.356C171.757 222.76 171.538 222.952 171.106 222.952H169.805V223.637H171.278C172.353 223.678 172.88 223.219 172.839 222.267V220.754C172.88 219.774 172.312 219.124 171.168 218.802C171.565 218.645 171.944 218.445 172.298 218.206H175.435V217.514H167.422V218.199H170.682ZM174.449 215.46C175.346 215.501 175.818 215.09 175.75 214.213V213.405H167.052V215.46H174.449ZM166.607 218.062V216.816H176.243V218.062H177.325V216.145H165.532V218.042L166.607 218.062ZM177.565 212.761V212.111H172.086V211.248H170.785V212.111H165.271V212.72L177.565 212.761ZM177.674 222.699C175.942 222.233 174.818 221.329 174.325 219.959H175.51C176.041 219.963 176.569 219.889 177.078 219.74V219.089C176.48 219.264 175.86 219.356 175.236 219.363H173.243V219.959C173.928 221.692 175.359 222.829 177.674 223.384V222.699ZM168.162 213.953H174.64V214.323C174.64 214.727 174.462 214.919 174.099 214.919H168.162V213.953ZM186.365 215.323V223.678H187.447V222.863H193.063V222.178H190.632V219.795H192.844V219.11H190.632V216.905H192.844V216.145H190.632V213.932H193.008V213.172H190.632V211.44H189.55V213.172H187.762C188.007 212.555 188.206 211.921 188.358 211.275H187.276C187.044 212.828 186.325 214.267 185.221 215.384V216.145C185.642 215.889 186.034 215.591 186.393 215.254L186.365 215.323ZM183.496 212.789V216.514H181.599C182.009 215.606 182.268 214.637 182.366 213.645H181.393C181.355 214.633 181.134 215.606 180.742 216.514V217.275H182.53C182.221 219.009 181.495 220.643 180.414 222.034V222.788C181.255 222.116 181.952 221.282 182.462 220.334C182.973 219.387 183.287 218.346 183.386 217.275H183.496V222.192C183.496 222.699 183.222 222.938 182.681 222.877H182.085V223.637H182.968C183.17 223.668 183.376 223.652 183.57 223.591C183.764 223.529 183.941 223.422 184.087 223.28C184.234 223.138 184.345 222.964 184.412 222.771C184.479 222.579 184.501 222.374 184.475 222.171V217.254H185.612V216.494H184.475V212.72H185.612V211.96H180.914V212.72L183.496 212.789ZM189.55 219.918V222.301H187.447V219.918H189.55ZM189.55 217.007V219.213H187.447V217.007H189.55ZM189.55 214.035V216.247H187.447V214.035H189.55Z" fill="white"/>
<path d="M212.499 212.611V214.453H210.02V223.356H216.609C217.8 223.356 218.382 222.87 218.341 221.788V214.453H215.842V212.611H218.876V211.844H209.63V212.611H212.499ZM217.376 218.617V220.069H210.993V219.048C212.719 218.439 213.527 217.138 213.424 215.158H214.938V217.213C214.896 218.192 215.41 218.651 216.444 218.624L217.376 218.617ZM210.993 220.781H217.376V221.801C217.376 222.343 217.095 222.603 216.444 222.603H210.965L210.993 220.781ZM207.637 223.425C208.241 221.65 208.641 219.811 208.829 217.946H207.904C207.711 219.828 207.25 221.673 206.534 223.425H207.637ZM217.376 217.911H216.78C216.129 217.953 215.821 217.651 215.848 217.001V215.158H217.376V217.911ZM212.513 215.172C212.582 216.72 212.068 217.788 210.993 218.357V215.172H212.513ZM214.938 212.624V214.467H213.465V212.624H214.938ZM208.664 214.09C208.48 213.172 208.132 212.296 207.637 211.501H206.712C207.137 212.316 207.444 213.188 207.623 214.09H208.664ZM208.829 217.343C208.541 216.427 208.174 215.538 207.733 214.686H206.822C207.254 215.528 207.581 216.421 207.794 217.343H208.829ZM231.429 223.294C232.662 223.294 233.258 222.815 233.217 221.719V218.37H229.381V216.261H234.141V215.46H229.381V213.898H228.244V218.329H225.361V223.253L231.429 223.294ZM223.704 221.069C224.078 219.697 224.242 218.277 224.19 216.857V213.234H234.408V212.412H229.436V211.282H228.135V212.412H222.998V217.124C223.032 218.27 222.958 219.416 222.779 220.548C222.611 221.337 222.3 222.089 221.862 222.767V223.678C222.695 222.967 223.33 222.051 223.704 221.021V221.069ZM226.512 219.076H232.134V221.623C232.176 222.233 231.847 222.521 231.169 222.479H226.512V219.076Z" fill="white"/>
<path d="M233.6 188.38C233.682 188.368 233.766 188.374 233.845 188.4C233.924 188.426 233.996 188.47 234.055 188.529C234.113 188.587 234.157 188.659 234.183 188.738C234.209 188.817 234.216 188.901 234.203 188.983C234.203 189.154 234.203 189.319 234.203 189.49C234.202 189.602 234.221 189.713 234.258 189.819H234.819V189.743C234.682 189.709 234.627 189.6 234.648 189.421V188.819C234.657 188.683 234.623 188.549 234.55 188.434C234.478 188.319 234.37 188.231 234.244 188.182C234.394 188.114 234.52 188.001 234.605 187.859C234.689 187.717 234.728 187.552 234.716 187.387C234.716 186.812 234.333 186.511 233.607 186.497H232.073V189.819H232.525V188.38H233.6ZM233.641 186.86C233.719 186.851 233.797 186.859 233.871 186.883C233.945 186.908 234.013 186.948 234.07 187.002C234.127 187.055 234.171 187.121 234.2 187.193C234.229 187.266 234.242 187.344 234.237 187.422C234.237 187.819 234.018 188.017 233.552 188.004H232.504V186.86H233.641Z" fill="white"/>
<path d="M199.494 215.056C199.864 215.056 200.035 215.234 200.028 215.59C200.028 215.741 200.028 215.891 200.028 216.042C200.025 216.14 200.042 216.238 200.076 216.33H200.576V216.268C200.453 216.268 200.405 216.138 200.425 215.98V215.446C200.435 215.326 200.406 215.205 200.342 215.103C200.277 215.001 200.182 214.922 200.069 214.878C200.198 214.817 200.306 214.719 200.38 214.598C200.454 214.476 200.492 214.335 200.487 214.193C200.487 213.679 200.145 213.412 199.501 213.405H198.131V216.35H198.535V215.076L199.494 215.056ZM199.528 213.686C199.597 213.677 199.667 213.683 199.733 213.704C199.799 213.725 199.86 213.76 199.911 213.807C199.962 213.854 200.002 213.912 200.028 213.976C200.054 214.041 200.066 214.11 200.063 214.179C200.063 214.535 199.864 214.713 199.467 214.7H198.528V213.686H199.528Z" fill="white"/>
</svg>
