<svg width="128" height="42" viewBox="0 0 128 42" fill="none" xmlns="http://www.w3.org/2000/svg">
<path d="M11.3956 35.0047C11.7677 34.9903 12.4912 34.9631 13.1386 34.9631C13.7858 34.9631 14.357 34.9903 14.9472 35.0229C15.5373 35.0555 16.1466 35.0937 16.7232 35.0964C17.2998 35.0991 17.8437 35.0664 18.3415 35.0202C18.8392 34.974 19.2906 34.9142 19.5056 34.8842C19.7204 34.8543 19.6986 34.8543 19.6715 34.8516C19.6442 34.8489 19.6116 34.8435 19.2553 34.7673C18.899 34.6912 18.2191 34.5443 17.3134 34.2914C16.4077 34.0384 15.2763 33.6795 14.3434 33.3068C13.4105 32.9342 12.6761 32.5479 12.1376 32.2271C11.5991 31.9061 11.2564 31.6505 11.0878 31.5254C10.9192 31.4002 10.9246 31.4057 11.6236 31.6341C12.3226 31.8626 13.7151 32.314 15.619 32.7982C17.5228 33.2823 19.938 33.7991 22.3042 34.1799C24.6704 34.5607 26.9877 34.8054 29.3484 34.9142C31.7092 35.0229 34.1135 34.9958 35.4679 34.9795C36.8224 34.9631 37.1269 34.9578 37.2874 34.9496C37.4479 34.9414 37.4643 34.9305 37.6655 34.819C37.8668 34.7075 38.2531 34.4953 38.6746 34.1961C39.0962 33.897 39.5531 33.5107 39.9257 33.1381C40.2983 32.7655 40.5866 32.4066 40.8069 32.0693C41.0272 31.732 41.1796 31.4166 41.2584 31.2452C41.3373 31.0739 41.3427 31.0466 41.3373 31.0413C41.3318 31.0358 41.3156 31.0521 40.6193 31.1799C39.923 31.3078 38.5467 31.547 37.1569 31.7266C35.7671 31.9061 34.3638 32.0258 32.8434 32.0612C31.323 32.0965 29.6858 32.0475 27.5126 31.8136C25.3395 31.5797 22.6305 31.1609 20.1637 30.693C17.6969 30.2252 15.4721 29.7085 13.3643 29.1428C11.2564 28.5771 9.26557 27.9623 7.69794 27.4702C6.1302 26.978 4.98586 26.6083 4.00686 26.3005C3.02786 25.9926 2.21417 25.7467 1.69867 25.6049C1.18306 25.4629 0.965495 25.425 0.866152 25.4132C0.766788 25.4014 0.785755 25.4156 0.88035 25.5599C0.974922 25.7041 1.14514 25.9784 1.24687 26.1204C1.3486 26.2622 1.38165 26.2717 1.85469 26.4279C2.32773 26.5839 3.24065 26.8867 4.10157 27.2296C4.96237 27.5725 5.77126 27.9556 6.53988 28.4477C7.30847 28.9395 8.03699 29.5402 8.59756 30.1504C9.15804 30.7606 9.55057 31.3803 9.86986 31.9716C10.1892 32.5628 10.4352 33.1257 10.596 33.5844C10.7568 34.0433 10.8325 34.3981 10.8791 34.6196C10.9255 34.8413 10.9428 34.9297 10.9552 34.9746C10.9674 35.0194 10.9747 35.0205 10.9888 35.0204C11.0027 35.0203 11.0235 35.0191 11.3956 35.0047ZM32.4615 26.0925C32.5442 26.0925 32.6844 26.0963 32.757 26.1007C32.8296 26.1051 32.8347 26.1102 32.8372 26.1127C32.8398 26.1152 32.8398 26.1152 33.007 26.3059C33.1744 26.4966 33.509 26.8779 33.6794 27.0686C33.85 27.2593 33.8562 27.2593 33.855 27.2644C33.8538 27.2694 33.8449 27.2794 33.8025 27.3047C33.7603 27.3299 33.6844 27.3703 33.6396 27.3912C33.5948 27.412 33.5809 27.4132 33.5663 27.412C33.5519 27.4106 33.5367 27.4069 33.3303 27.1878C33.1238 26.9688 32.7261 26.5344 32.5398 26.3154C32.3535 26.0963 32.3789 26.0925 32.4615 26.0925ZM24.2512 28.4243C24.369 28.4566 24.583 28.516 24.698 28.5504C24.8131 28.5847 24.8295 28.5942 24.8457 28.6051C24.8619 28.6159 24.8782 28.6281 25.1148 28.8782C25.3515 29.1284 25.8088 29.6165 26.1132 29.9452C26.4178 30.2739 26.5696 30.4433 26.6447 30.5322C26.72 30.6209 26.7186 30.629 26.6425 30.6311C26.5665 30.6331 26.416 30.6288 26.3325 30.6241C26.2491 30.6192 26.2327 30.6139 25.8783 30.2562C25.5239 29.8985 24.8313 29.1887 24.4769 28.8175C24.1225 28.4462 24.1062 28.4137 24.1089 28.4002C24.1116 28.3866 24.1334 28.3919 24.2512 28.4243ZM22.0614 28.0124C22.1778 28.0414 22.3911 28.0976 22.5048 28.1327C22.6184 28.1677 22.6322 28.1815 22.8906 28.5053C23.149 28.8292 23.652 29.4632 23.9884 29.9054C24.325 30.3475 24.495 30.5978 24.5776 30.7219C24.6604 30.8459 24.6557 30.8436 24.5805 30.8372C24.5052 30.8309 24.3592 30.8206 24.2839 30.8108C24.2086 30.8009 24.2039 30.7917 24.1867 30.7883C24.1695 30.7848 24.1397 30.7872 23.7526 30.3233C23.3654 29.8594 22.6211 28.9292 22.2485 28.4607C21.876 27.9922 21.8752 27.9852 21.8801 27.9821C21.885 27.9789 21.8955 27.9797 21.9105 27.981C21.9254 27.9821 21.9449 27.9835 22.0614 28.0124ZM5.7405 24.6109C6.81693 23.2146 8.94524 20.446 10.0095 19.0682C11.0737 17.6904 11.0737 17.7035 11.0801 17.7554C11.0866 17.8073 11.0997 17.8982 11.0997 17.9501C11.0997 18.002 11.0866 18.0151 10.388 19.4908C9.6892 20.9666 8.30462 23.9052 7.60812 25.3778C6.9115 26.8503 6.903 26.8567 6.82454 26.8298C6.74596 26.8029 6.59743 26.7427 6.52431 26.7115C6.4512 26.6803 6.45334 26.6781 6.45664 26.6696C6.45982 26.661 6.46402 26.6459 6.94613 25.6581C7.42815 24.6704 8.38807 22.7098 8.86804 21.7274C9.34788 20.745 9.34788 20.7406 9.34471 20.7428C9.34142 20.7451 9.33494 20.7536 8.63061 21.6663C7.92628 22.579 6.52419 24.3956 5.82202 25.3061C5.11985 26.2167 5.11769 26.2209 5.10487 26.223C5.09202 26.2253 5.06842 26.2253 4.98179 26.2033C4.89513 26.1814 4.74537 26.1374 4.67055 26.1139C4.5956 26.0904 4.5956 26.0871 4.59888 26.0808C4.60208 26.0743 4.60842 26.0648 4.624 26.048C4.63943 26.0311 4.66396 26.0071 5.7405 24.6109ZM20.5022 12.0316V12.7263C20.7045 12.6863 20.9071 12.6473 21.1099 12.6092V11.9314C21.4266 11.8824 21.7249 11.8412 22.0057 11.8065C22.8757 11.6991 23.5769 11.6543 23.9321 11.6319C24.2873 11.6095 24.2961 11.6095 24.2916 11.6051C24.2872 11.6006 24.2693 11.5917 24.1589 11.4187C24.0485 11.2455 23.8455 10.9083 23.668 10.4785C23.4904 10.0487 23.3381 9.52651 23.2472 8.97888C23.1561 8.43122 23.1264 7.85817 23.1458 7.34346C23.1651 6.82863 23.2338 6.37195 23.3606 5.94069C23.4874 5.50943 23.6724 5.10363 23.762 4.9022C23.8515 4.70065 23.8456 4.70371 23.8456 4.70223C23.8456 4.70065 23.8515 4.69474 23.0652 5.11407C22.2787 5.53329 20.7 6.37795 19.3899 7.17926C18.0797 7.98057 17.0381 8.73861 16.1787 9.47881C15.3191 10.2189 14.6416 10.9411 14.0783 11.7155C13.5148 12.4898 13.0654 13.316 12.8351 13.7483C12.6049 14.1806 12.5937 14.2187 12.5949 14.2322C12.596 14.2456 12.6094 14.2345 12.6218 14.2291C12.6342 14.2235 12.6456 14.2237 13.0094 14.0821C13.3732 13.9404 14.0895 13.6569 15.1565 13.3286C16.2234 13.0004 17.6409 12.6273 18.869 12.3558C19.4552 12.2252 19.9993 12.1192 20.5022 12.0316ZM20.5022 16.5776V16.9624V17.2672C20.7046 17.2527 20.9072 17.2394 21.1099 17.2272V16.9348V16.5505C21.6054 16.5318 22.1069 16.521 22.5834 16.521C23.3902 16.521 24.1252 16.552 24.4885 16.5661C24.8518 16.5802 24.8433 16.5773 24.8165 16.5379C24.7898 16.4984 24.7449 16.4225 24.6787 16.2732C24.6125 16.1239 24.5252 15.9014 24.4575 15.6677C24.3899 15.4339 24.3421 15.189 24.328 14.775C24.314 14.361 24.3336 13.7781 24.4238 13.3543C24.5139 12.9304 24.6744 12.6656 24.7518 12.5347C24.8292 12.4038 24.8237 12.4065 24.6701 12.4249C24.5166 12.4432 24.2154 12.4769 23.7085 12.553C23.2015 12.6291 22.489 12.7473 21.5935 12.9107C20.6979 13.0739 19.6192 13.2824 18.3886 13.5838C17.1579 13.885 15.7752 14.2794 14.7571 14.6032C13.7391 14.927 13.0856 15.1806 12.759 15.3073C12.4323 15.434 12.4323 15.434 12.4028 15.5495C12.3731 15.665 12.3141 15.8958 12.2324 16.345C12.1507 16.7942 12.0466 17.4616 11.9917 17.8044C11.9369 18.1471 11.9315 18.165 11.9433 18.1702C11.955 18.1752 11.984 18.1671 12.3162 18.0582C12.6484 17.9492 13.2839 17.7391 14.2578 17.5089C15.2317 17.2786 16.5439 17.0279 17.5606 16.8703C18.5772 16.7126 19.2983 16.6477 20.0981 16.5999C20.23 16.5925 20.365 16.5847 20.5022 16.5776ZM20.5022 20.8867V21.2717V21.4955C20.606 21.4981 20.7096 21.501 20.8133 21.5041C20.9122 21.5072 21.011 21.5106 21.1099 21.5142V21.2969V20.9116C21.3637 20.9242 21.6186 20.9395 21.8769 20.958C22.857 21.0279 23.886 21.1435 24.4769 21.2173C25.0678 21.291 25.2206 21.3229 25.3065 21.3404C25.3924 21.3579 25.4115 21.3611 25.3972 21.3213C25.3829 21.2815 25.3351 21.1988 25.2842 20.9919C25.2334 20.785 25.1792 20.4542 25.1442 19.9991C25.1092 19.544 25.0932 18.9648 25.1409 18.5209C25.1887 18.0769 25.3001 17.7682 25.351 17.6139C25.402 17.4596 25.3924 17.4596 25.3398 17.4596C25.2874 17.4596 25.1919 17.4596 24.5554 17.4755C23.9189 17.4914 22.7416 17.5232 21.5816 17.5853C20.4216 17.6473 19.2792 17.7396 18.1574 17.8829C17.0356 18.0261 15.9344 18.2201 14.8859 18.4461C13.8373 18.672 12.8412 18.9298 12.3431 19.0587C11.8451 19.1875 11.8451 19.1875 11.8404 19.1955C11.8356 19.2035 11.8259 19.2193 11.7608 19.6076C11.6955 19.9958 11.5745 20.7564 11.5227 21.1385C11.4708 21.5205 11.488 21.5241 11.5071 21.5224C11.5262 21.5206 11.5472 21.5137 11.7932 21.4562C12.0392 21.3988 12.5102 21.2908 13.2087 21.1892C13.9073 21.0874 14.8333 20.9919 15.8422 20.9347C16.851 20.8774 17.9425 20.8583 18.954 20.8609C19.4869 20.8629 19.9967 20.8693 20.5022 20.8867ZM20.5022 25.3717V25.7618V26.1354C20.7049 26.17 20.9074 26.2056 21.1099 26.2417V25.8631V25.4728C21.2723 25.5005 21.4405 25.5297 21.6162 25.5607C22.7762 25.7651 24.2567 26.0453 25.0124 26.1857C25.7682 26.3259 25.7988 26.3262 25.7696 26.2107C25.7405 26.095 25.6513 25.8633 25.5756 25.5781C25.4999 25.2929 25.4374 24.9543 25.3988 24.5428C25.3602 24.1313 25.3453 23.6471 25.378 23.2654C25.4107 22.8836 25.4909 22.6043 25.5384 22.4602C25.586 22.3161 25.6008 22.3073 25.3869 22.2716C25.173 22.236 24.7303 22.1735 23.9505 22.0963C23.1707 22.0191 22.0537 21.927 20.8015 21.8884C19.5493 21.8498 18.1619 21.8645 16.9499 21.9136C15.7377 21.9626 14.7009 22.0457 13.8141 22.1558C12.9273 22.2657 12.1906 22.4023 11.8163 22.4736C11.4419 22.5449 11.4301 22.5509 11.4227 22.5568C11.4152 22.5627 11.4122 22.5687 11.4107 22.6757C11.4093 22.7826 11.4093 22.9906 11.4292 23.3713C11.4492 23.7519 11.4892 24.3053 11.5047 24.5776C11.5203 24.8499 11.5114 24.8409 11.5048 24.8365C11.4981 24.8321 11.4936 24.8321 11.7024 24.8144C11.9111 24.7966 12.333 24.7611 13.0503 24.7544C13.7676 24.7477 14.7802 24.77 15.784 24.8322C16.7876 24.8943 17.7825 24.9964 18.6996 25.1119C19.2962 25.1879 19.8608 25.2674 20.5022 25.3717ZM21.1099 27.7999C20.9076 27.7697 20.7049 27.7406 20.5022 27.7125V29.9351H21.1099V27.7999ZM30.3868 25.7643C30.2167 25.7513 30.0463 25.7391 29.8758 25.7281V28.2529H30.4835V25.7718C30.4513 25.7693 30.4191 25.7668 30.3868 25.7643ZM30.4835 24.2956V24.0072C31.0231 24.0437 31.5727 24.0912 32.0884 24.1484C32.9078 24.2392 33.6416 24.3545 34.101 24.4314C34.5606 24.5082 34.7458 24.5467 34.8383 24.5642C34.931 24.5816 34.931 24.5782 34.8837 24.4507C34.8366 24.3231 34.7422 24.0715 34.6985 23.7257C34.6549 23.3797 34.6618 22.9394 34.7073 22.569C34.7528 22.1986 34.8366 21.8981 34.8785 21.7392C34.9205 21.5801 34.9205 21.5627 34.9257 21.5471C34.931 21.5313 34.9415 21.5173 34.4418 21.4946C33.9422 21.4719 32.9323 21.4404 32.0465 21.4369C31.1607 21.4334 30.3991 21.4579 29.5903 21.5296C28.7816 21.6011 27.9258 21.72 27.4093 21.802C26.8928 21.8839 26.7157 21.9291 26.6287 21.9517C26.5419 21.9743 26.5454 21.9743 26.6522 22.2836C26.7591 22.5928 26.9693 23.2114 27.0796 23.5294C27.19 23.8473 27.2003 23.8647 27.2099 23.8751C27.2195 23.8856 27.2281 23.889 27.2412 23.8926C27.2544 23.8962 27.2718 23.9001 27.6421 23.9054C28.0125 23.9108 28.7358 23.9178 29.55 23.9545C29.6565 23.9605 29.7652 23.9652 29.8758 23.9705V24.259V24.479C29.9524 24.4847 30.029 24.4908 30.1055 24.4971C30.2316 24.5076 30.3576 24.5187 30.4835 24.5305V24.2956ZM30.4835 20.9315V20.643L30.6755 20.6368C31.3598 20.6169 32.0319 20.623 32.6187 20.6428C33.2056 20.6625 33.7072 20.6959 34.0371 20.7187C34.3671 20.7416 34.5253 20.7537 34.6043 20.7598C34.6833 20.7659 34.6833 20.7659 34.6362 20.6685C34.5891 20.5712 34.4948 20.3767 34.4401 20.1243C34.3854 19.8719 34.3701 19.5618 34.3902 19.2793C34.4103 18.9967 34.4656 18.7416 34.529 18.551C34.5924 18.3602 34.6635 18.2339 34.7026 18.1649C34.7418 18.0959 34.7486 18.0843 34.7567 18.0751C34.7647 18.0659 34.7739 18.0591 34.2277 18.0844C33.6817 18.1097 32.5803 18.1671 31.633 18.2522C30.6856 18.3372 29.8923 18.4499 29.2312 18.565C28.5702 18.6799 28.0414 18.7971 27.5607 18.9258C27.0802 19.0546 26.6479 19.1949 26.4317 19.2662C26.2156 19.3374 26.2156 19.3398 26.2168 19.3456C26.2179 19.3513 26.2203 19.3605 26.2716 19.6475C26.3229 19.9346 26.4233 20.4995 26.4746 20.7835C26.5261 21.0674 26.5284 21.0706 26.5397 21.0711C26.5511 21.0715 26.5715 21.0693 26.9161 21.015C27.2608 20.9606 27.9297 20.8541 28.6124 20.7781C29.0301 20.731 29.4539 20.6961 29.8758 20.6716V20.9604V21.2171C30.0785 21.2021 30.281 21.1899 30.4835 21.1802V20.9315ZM30.4835 17.8192V17.5293C31.0332 17.471 31.5687 17.4326 32.0654 17.4063C32.673 17.3743 33.2224 17.3608 33.5582 17.354C33.894 17.3472 34.0163 17.3472 34.0746 17.3452C34.1328 17.3432 34.127 17.3393 34.0931 17.2083C34.0591 17.0773 33.9969 16.8192 33.9814 16.5134C33.9659 16.2076 33.9969 15.8544 34.0541 15.5573C34.1115 15.2603 34.1949 15.0196 34.2735 14.8478C34.3522 14.676 34.4259 14.5731 34.4667 14.5178C34.5075 14.4624 34.5153 14.4547 34.1202 14.5012C33.7252 14.5478 32.9273 14.6487 32.0537 14.8021C31.1802 14.9554 30.2309 15.1613 29.4311 15.369C28.6312 15.5766 27.981 15.7864 27.414 15.994C26.8472 16.2017 26.3638 16.4076 26.1144 16.5143C25.8649 16.621 25.8495 16.6289 25.8416 16.6376C25.8339 16.6464 25.8339 16.656 25.8795 16.8754C25.9252 17.0948 26.0164 17.5239 26.0717 17.8277C26.1271 18.1315 26.1465 18.31 26.1581 18.3984C26.1698 18.4867 26.1736 18.4847 26.1843 18.4789C26.195 18.4731 26.2125 18.4633 26.2387 18.4537C26.2649 18.4439 26.2998 18.4343 26.6035 18.3391C26.9074 18.244 27.4801 18.0634 28.112 17.9159C28.6712 17.7829 29.2753 17.6838 29.8758 17.6015V17.8923V18.1694C30.0781 18.1395 30.2807 18.1118 30.4835 18.0861V17.8192ZM29.8758 14.9603C30.0777 14.9115 30.2804 14.8646 30.4835 14.8195V14.3015L30.6693 14.2637C31.6039 14.0762 32.4923 13.9428 33.0058 13.8722C33.5192 13.8016 33.6579 13.7938 33.7323 13.7875C33.8068 13.781 33.8171 13.7759 33.7573 13.6958C33.6976 13.6158 33.5679 13.4609 33.4219 13.1852C33.2759 12.9094 33.1137 12.5128 33.013 12.1043C32.9124 11.6957 32.8734 11.2751 32.8778 10.8636C32.8823 10.452 32.9305 10.0494 32.9966 9.73998C33.0626 9.43057 33.1467 9.21426 33.2564 9.00703C33.366 8.7997 33.5012 8.60145 33.5762 8.49481C33.6514 8.3882 33.6665 8.37311 33.662 8.37162C33.6574 8.37027 33.6334 8.38206 33.0116 8.72759C32.3896 9.073 31.17 9.75202 30.1696 10.3934C29.1692 11.0348 28.3881 11.6386 27.7016 12.2695C27.0152 12.9003 26.4234 13.5582 26.0299 14.0405C25.6363 14.5226 25.4411 14.8289 25.3404 14.9972C25.2398 15.1655 25.2338 15.1955 25.2247 15.2376C25.2158 15.2796 25.2038 15.3338 25.2248 15.4344C25.2458 15.535 25.3 15.6822 25.3375 15.7604C25.3751 15.8384 25.3961 15.8475 25.4274 15.8471C25.4589 15.8466 25.5005 15.8368 25.8932 15.683C26.2859 15.5293 27.0297 15.2316 27.8918 14.962C28.5126 14.7684 29.1943 14.5894 29.8758 14.4336V14.9603ZM38.2428 19.1816C38.2428 19.8839 37.6775 20.454 36.9772 20.4619V20.5119C37.6755 20.5197 38.2394 21.0865 38.2428 21.7858H38.3158C38.3192 21.0865 38.8831 20.5197 39.5814 20.5119V20.4619C38.881 20.454 38.3158 19.8839 38.3158 19.1816H38.2428ZM36.1626 40.5878C35.8217 40.4978 35.197 40.3329 34.4899 40.0804C33.7829 39.8281 32.9933 39.4884 32.2919 39.2034C31.5905 38.9185 30.9771 38.6883 30.3619 38.545C29.7469 38.4019 29.1297 38.3453 28.6083 38.3258C28.0869 38.3063 27.661 38.3236 27.2155 38.3801C26.7702 38.4366 26.3052 38.5322 25.8529 38.7001C25.4006 38.8682 24.9611 39.1086 24.6855 39.2495C24.41 39.3904 24.2985 39.432 24.4227 39.4182C24.547 39.4045 24.9069 39.3354 25.4475 39.2901C25.9881 39.2448 26.7094 39.223 27.4132 39.2708C28.1172 39.3186 28.8038 39.4361 29.423 39.575C30.0422 39.7141 30.5941 39.8749 31.1906 40.0403C31.787 40.2056 32.4283 40.3753 33.0431 40.4931C33.658 40.6109 34.2465 40.6767 34.8308 40.7123C35.4151 40.7481 35.9952 40.7539 36.2924 40.7481C36.5895 40.7424 36.6037 40.7253 36.5823 40.7091C36.5608 40.693 36.5036 40.6778 36.1626 40.5878ZM27.6262 41.1546C27.2691 41.0413 26.6568 40.8522 26.1371 40.7388C24.9054 40.4702 22.6216 40.4702 21.39 40.7388C20.8703 40.8522 20.258 41.0413 19.9008 41.1546C19.5436 41.268 19.4415 41.3057 19.7364 41.3189C20.0312 41.3322 20.7228 41.3209 21.5994 41.3227C23.0482 41.326 24.4788 41.326 25.9277 41.3227C26.8043 41.3209 27.4959 41.3322 27.7906 41.3189C28.0856 41.3057 27.9835 41.268 27.6262 41.1546ZM36.8301 39.4924C37.052 39.3839 37.4397 39.1933 37.8339 39.0833C38.2282 38.9732 38.6291 38.9436 38.9839 38.9682C39.3387 38.993 39.6476 39.0718 39.9104 39.1671C40.1733 39.2624 40.3902 39.3741 40.5134 39.4414C40.6366 39.5088 40.6662 39.5318 40.6629 39.5432C40.6596 39.5548 40.6234 39.5548 40.4558 39.5647C40.2883 39.5746 39.9892 39.5942 39.5374 39.6238C39.0858 39.6534 38.4812 39.6928 38.0294 39.6961C37.5777 39.6994 37.2786 39.6664 37.0486 39.6533C36.8187 39.6402 36.6578 39.6468 36.6052 39.6369C36.5526 39.627 36.6084 39.6008 36.8301 39.4924ZM44.6459 37.3745C44.4364 37.2928 44.0716 37.1493 43.787 37.0733C43.5025 36.9973 43.2983 36.9887 43.055 37.019C42.8118 37.0494 42.5295 37.1189 42.2319 37.2188C41.9344 37.3187 41.6216 37.4491 41.2785 37.5034C40.9353 37.5578 40.5617 37.536 40.0752 37.4556C39.5888 37.3753 38.9892 37.2362 38.2833 37.0255C37.5775 36.8148 36.7652 36.5326 36.1852 36.3544C35.6053 36.1763 35.2578 36.1024 34.8864 36.0612C34.515 36.02 34.1196 36.0112 33.6375 36.0872C33.1554 36.1633 32.5863 36.3241 32.128 36.4543C31.6698 36.5847 31.3223 36.6846 30.9357 36.7324C30.5491 36.7802 30.1234 36.7758 29.7455 36.767C29.3676 36.7584 29.0374 36.7454 28.5856 36.6629C28.1339 36.5803 27.5605 36.4283 26.9849 36.2545C26.4093 36.0807 25.8316 35.8853 25.3472 35.7614C24.3119 35.4969 23.2152 35.4969 22.1798 35.7614C21.6955 35.8853 21.1177 36.0807 20.5422 36.2545C19.9666 36.4283 19.3932 36.5803 18.9415 36.6629C18.4897 36.7454 18.1595 36.7584 17.7816 36.767C17.4037 36.7758 16.978 36.7802 16.5914 36.7324C16.2048 36.6846 15.8573 36.5847 15.399 36.4543C14.9408 36.3241 14.3717 36.1633 13.8896 36.0872C13.4074 36.0112 13.012 36.02 12.6406 36.0612C12.2692 36.1024 11.9218 36.1763 11.3419 36.3544C10.7619 36.5326 9.94958 36.8148 9.24377 37.0255C8.53784 37.2362 7.93832 37.3753 7.45187 37.4556C6.96533 37.536 6.59176 37.5578 6.24862 37.5034C5.90548 37.4491 5.59267 37.3187 5.29516 37.2188C4.99756 37.1189 4.71528 37.0494 4.47207 37.019C4.22874 36.9887 4.02456 36.9973 3.74002 37.0733C3.45547 37.1493 3.09066 37.2928 2.88115 37.3745C2.67166 37.4562 2.6175 37.4765 2.66383 37.4965C2.71003 37.5165 2.85651 37.5364 3.25597 37.6234C3.65532 37.7105 4.30754 37.8648 4.87844 37.9566C5.44925 38.0485 5.93865 38.0782 6.56121 38.0716C7.18368 38.065 7.93911 38.0223 8.60269 37.9319C9.26625 37.8416 9.83784 37.7036 10.4768 37.5705C11.1157 37.4375 11.822 37.3093 12.3249 37.248C12.8277 37.1868 13.1271 37.1924 13.5356 37.2443C13.944 37.2961 14.4615 37.3944 14.928 37.4756C15.3946 37.5568 15.8101 37.621 16.2011 37.6455C16.5921 37.6702 16.9586 37.6551 17.2835 37.6192C17.6083 37.5833 17.8916 37.5265 18.3242 37.4736C18.7567 37.4208 19.3384 37.3717 19.7409 37.3395C20.1431 37.3075 20.366 37.2924 20.7104 37.2287C21.0548 37.1651 21.5206 37.053 21.9968 36.9687C23.3652 36.7266 24.1619 36.7266 25.5303 36.9687C26.0065 37.053 26.4723 37.1651 26.8166 37.2287C27.161 37.2924 27.3839 37.3075 27.7862 37.3395C28.1886 37.3717 28.7703 37.4208 29.2028 37.4736C29.6354 37.5265 29.9188 37.5833 30.2436 37.6192C30.5685 37.6551 30.935 37.6702 31.326 37.6455C31.717 37.621 32.1325 37.5568 32.599 37.4756C33.0656 37.3944 33.583 37.2961 33.9915 37.2443C34.4 37.1924 34.6994 37.1868 35.2022 37.248C35.7051 37.3093 36.4114 37.4375 37.0503 37.5705C37.6892 37.7036 38.2608 37.8416 38.9244 37.9319C39.588 38.0223 40.3434 38.065 40.9659 38.0716C41.5884 38.0782 42.0778 38.0485 42.6486 37.9566C43.2196 37.8648 43.8718 37.7105 44.2711 37.6234C44.6706 37.5364 44.817 37.5165 44.8633 37.4965C44.9096 37.4765 44.8554 37.4562 44.6459 37.3745ZM11.3645 40.5878C11.7053 40.4978 12.3301 40.3329 13.0371 40.0804C13.7442 39.8281 14.5338 39.4884 15.2352 39.2034C15.9366 38.9185 16.5499 38.6883 17.1651 38.545C17.7802 38.4019 18.3974 38.3453 18.9188 38.3258C19.4402 38.3063 19.8661 38.3236 20.3115 38.3801C20.7569 38.4366 21.2219 38.5322 21.6742 38.7001C22.1265 38.8682 22.566 39.1086 22.8416 39.2495C23.1171 39.3904 23.2286 39.432 23.1043 39.4182C22.9801 39.4045 22.6202 39.3354 22.0796 39.2901C21.539 39.2448 20.8177 39.223 20.1139 39.2708C19.4099 39.3186 18.7232 39.4361 18.1041 39.575C17.4849 39.7141 16.9329 39.8749 16.3365 40.0403C15.74 40.2056 15.0988 40.3753 14.484 40.4931C13.8691 40.6109 13.2806 40.6767 12.6963 40.7123C12.112 40.7481 11.5319 40.7539 11.2347 40.7481C10.9375 40.7424 10.9234 40.7253 10.9448 40.7091C10.9663 40.693 11.0235 40.6778 11.3645 40.5878ZM10.6969 39.4924C10.4751 39.3839 10.0874 39.1933 9.69318 39.0833C9.29883 38.9732 8.89801 38.9436 8.54317 38.9682C8.18835 38.993 7.8795 39.0718 7.61664 39.1671C7.35376 39.2624 7.1369 39.3741 7.01371 39.4414C6.89051 39.5088 6.86088 39.5318 6.86416 39.5432C6.86745 39.5548 6.90367 39.5548 7.07126 39.5647C7.23876 39.5746 7.53782 39.5942 7.98965 39.6238C8.44133 39.6534 9.04585 39.6928 9.49765 39.6961C9.94936 39.6994 10.2484 39.6664 10.4785 39.6533C10.7084 39.6402 10.8693 39.6468 10.9219 39.6369C10.9744 39.627 10.9187 39.6008 10.6969 39.4924ZM21.1099 1.51384C21.1371 1.63317 21.1737 1.76444 21.2293 1.86493C21.3121 2.01447 21.4369 2.09588 21.5792 2.13222C21.7216 2.16842 21.8812 2.15969 22.0511 2.11325C22.2211 2.0667 22.401 1.98256 22.6028 1.89695C22.8047 1.81122 23.0284 1.72412 23.2635 1.69075C23.4988 1.65736 23.7456 1.67767 23.9765 1.73719C24.2075 1.79668 24.4223 1.89546 24.63 2.05659C24.8376 2.21772 25.0379 2.44141 25.2194 2.58946C25.4009 2.73752 25.5636 2.8102 25.7653 2.84654C25.9672 2.88277 26.2083 2.88277 26.4318 2.83779C26.6555 2.79272 26.8616 2.70278 26.9908 2.63886C27.1201 2.57493 27.1724 2.53724 27.197 2.5227C27.2218 2.50817 27.2188 2.5169 27.1622 2.61422C27.1056 2.71153 26.9953 2.8973 26.837 3.07306C26.6787 3.24872 26.4725 3.41415 26.2866 3.53179C26.1007 3.64943 25.9353 3.71916 25.7334 3.73515C25.5316 3.75106 25.2935 3.71335 25.0786 3.62479C24.8637 3.53611 24.6721 3.39678 24.4847 3.27336C24.2975 3.14994 24.1145 3.04252 23.9185 2.9946C23.7225 2.94669 23.5133 2.95837 23.2926 3.01935C23.072 3.08033 22.8397 3.19058 22.6378 3.31117C22.436 3.43164 22.2647 3.56235 22.0962 3.64227C21.9278 3.7221 21.7622 3.75106 21.6257 3.75106C21.4893 3.75106 21.3817 3.7221 21.2989 3.69303C21.2197 3.66522 21.163 3.63727 21.1099 3.56347V5.43212L20.5022 5.7211V1.17763C20.4613 1.11823 20.4374 1.04625 20.4374 0.968686C20.4374 0.764983 20.6023 0.600006 20.806 0.600006C21.0097 0.600006 21.1747 0.764983 21.1747 0.968686C21.1747 1.04625 21.1508 1.11823 21.1099 1.17763V1.51384ZM30.4835 5.27905C30.5108 5.39839 30.5473 5.52966 30.603 5.63015C30.6858 5.7797 30.8105 5.8611 30.9528 5.89744C31.0952 5.93365 31.2549 5.92492 31.4247 5.87848C31.5947 5.83192 31.7747 5.74779 31.9765 5.66217C32.1783 5.57644 32.402 5.48934 32.6372 5.45597C32.8725 5.42258 33.1193 5.4429 33.3502 5.50239C33.5811 5.56191 33.7959 5.66069 34.0036 5.82182C34.2113 5.98292 34.4116 6.20663 34.593 6.35469C34.7746 6.50275 34.9372 6.57542 35.139 6.61176C35.3409 6.64797 35.5819 6.64797 35.8055 6.60301C36.0292 6.55794 36.2353 6.468 36.3645 6.40408C36.4937 6.34015 36.546 6.30246 36.5707 6.28793C36.5954 6.27339 36.5925 6.28212 36.5358 6.37944C36.4793 6.47676 36.3689 6.6625 36.2106 6.83828C36.0523 7.01395 35.8461 7.17938 35.6603 7.29701C35.4744 7.41465 35.3089 7.48435 35.1071 7.50038C34.9053 7.51626 34.6672 7.47857 34.4522 7.39001C34.2374 7.30133 34.0457 7.16201 33.8584 7.03859C33.6712 6.91515 33.4881 6.80775 33.2921 6.75982C33.0961 6.71192 32.887 6.72359 32.6663 6.78457C32.4456 6.84555 32.2133 6.95581 32.0114 7.07639C31.8097 7.19686 31.6383 7.32757 31.4698 7.40749C31.3014 7.48733 31.1359 7.51626 30.9994 7.51626C30.8629 7.51626 30.7554 7.48733 30.6726 7.45825C30.5933 7.43042 30.5367 7.4025 30.4835 7.32869V9.19734L29.8758 9.48633V4.94283C29.835 4.88345 29.811 4.81147 29.811 4.73391C29.811 4.53021 29.976 4.36523 30.1797 4.36523C30.3834 4.36523 30.5484 4.53021 30.5484 4.73391C30.5484 4.81147 30.5244 4.88345 30.4835 4.94283V5.27905ZM27.9692 24.7918C28.0551 24.9029 28.211 25.108 28.294 25.2223C28.3771 25.3366 28.3876 25.3598 28.4005 25.3689C28.4135 25.378 28.4291 25.3729 28.7419 25.3834C29.0549 25.3937 29.6651 25.4196 30.4089 25.4768C31.1529 25.5339 32.0306 25.6221 32.8122 25.726C33.5937 25.8299 34.2793 25.9493 34.6375 26.0116C34.9959 26.0739 35.0271 26.0791 35.0387 26.0766C35.0504 26.0739 35.0427 26.0635 35.0167 25.9662C34.9907 25.8688 34.9466 25.6845 34.9245 25.5858C34.9024 25.4871 34.9024 25.4741 34.896 25.465C34.8895 25.4559 34.8764 25.4508 34.4674 25.3794C34.0586 25.308 33.2536 25.1703 32.4447 25.0549C31.6359 24.9393 30.8232 24.8457 30.0818 24.7844C29.3406 24.723 28.6708 24.6937 28.3109 24.6761C27.9511 24.6584 27.9012 24.6523 27.8843 24.6579C27.8674 24.6635 27.8832 24.6806 27.9692 24.7918ZM25.2539 28.1422C24.547 28.0053 23.1478 27.7345 21.8142 27.5201C20.4805 27.3057 19.2122 27.1478 17.9981 27.0463C16.7841 26.9446 15.6241 26.8996 14.6448 26.9311C13.6654 26.9627 12.8665 27.071 12.4694 27.1252C12.0722 27.1793 12.0767 27.1793 12.0789 27.1749C12.0812 27.1704 12.0812 27.1613 12.0161 26.935C11.9511 26.7087 11.8209 26.2652 11.7588 26.0405C11.6967 25.8156 11.7027 25.8096 11.7042 25.8067C11.7058 25.8037 11.7026 25.8037 11.9935 25.7859C12.2843 25.7681 12.869 25.7325 13.9167 25.7756C14.9643 25.8186 16.4748 25.9402 18.0537 26.1495C19.6325 26.3587 21.2796 26.6554 22.5766 26.9063C23.8735 27.157 24.8201 27.3618 25.2965 27.4657C25.7728 27.5695 25.7788 27.5724 25.7862 27.5754C25.7936 27.5783 25.8026 27.5814 25.807 27.5829C25.8114 27.5844 25.8114 27.5844 25.8413 27.7012C25.8711 27.8179 25.9307 28.0514 25.9532 28.1667C25.9757 28.282 25.9608 28.279 25.2539 28.1422ZM35.9338 25.4668C35.9294 25.4686 35.9275 25.4719 35.8622 25.5838C35.7969 25.6956 35.6679 25.9158 35.6002 26.0275C35.5325 26.1392 35.5262 26.1425 35.5358 26.1441C35.5455 26.1457 35.5712 26.1457 36.7352 26.1457C37.8992 26.1457 40.2013 26.1457 41.354 26.1457C42.5067 26.1457 42.51 26.1457 42.5083 26.1457C42.5067 26.1457 42.5002 26.1457 42.568 26.0286C42.6359 25.9116 42.778 25.6775 42.8506 25.5622C42.9234 25.4467 42.9266 25.4499 42.9249 25.4535C42.9233 25.457 42.9167 25.4608 41.7556 25.4627C40.5945 25.4647 38.2788 25.4647 37.1191 25.4647C35.9595 25.4647 35.9559 25.4647 35.9506 25.4648C35.9453 25.465 35.9382 25.465 35.9338 25.4668ZM27.1493 30.6672C27.2943 30.5953 27.5717 30.4595 27.7737 30.3312C27.9759 30.2029 28.1027 30.0818 28.1734 30.0199C28.2443 29.9579 28.259 29.955 28.2797 29.9565C28.3004 29.958 28.3269 29.9638 28.8963 29.9668C29.4657 29.9697 30.5779 29.9697 31.2579 29.9757C31.938 29.9816 32.1857 29.9934 32.5383 29.9433C32.8908 29.8931 33.3482 29.7809 33.7346 29.629C34.1211 29.4771 34.4368 29.2853 34.6005 29.1836C34.7643 29.0817 34.7761 29.07 34.7731 29.067C34.7702 29.0641 34.7524 29.07 34.4647 29.1069C34.1771 29.1437 33.6196 29.2116 33.1136 29.2485C32.6077 29.2853 32.1533 29.2912 31.4733 29.2507C30.7935 29.2102 29.8881 29.1231 29.4341 29.0784C28.9802 29.0336 28.9778 29.0313 29.005 28.9656C29.0323 28.8999 29.0893 28.7709 29.119 28.7028C29.1488 28.6345 29.1513 28.6271 29.1562 28.6234C29.1612 28.6197 29.1687 28.6197 29.6905 28.6197C30.2124 28.6197 31.2487 28.6196 31.7979 28.6172C32.3471 28.6147 32.4091 28.6098 32.5616 28.5676C32.7141 28.5254 32.9569 28.4461 33.2061 28.3185C33.4553 28.1908 33.7107 28.0147 33.9771 27.8077C34.2437 27.6007 34.5214 27.3627 34.6874 27.2127C34.8535 27.0627 34.9081 27.0007 34.9403 26.9697C34.9725 26.9387 34.9825 26.9387 34.9899 26.9387C34.9974 26.9387 35.0023 26.9387 36.2307 26.9387C37.4592 26.9387 39.9112 26.9387 41.1382 26.9349C42.3652 26.9312 42.3671 26.9236 42.3682 26.9236C42.3693 26.9236 42.3693 26.9312 42.2467 27.392C42.1243 27.8526 41.8795 28.7665 41.7547 29.2212C41.63 29.6759 41.6256 29.6713 41.6228 29.6705C41.6202 29.6696 41.6194 29.6728 41.1655 29.7709C40.7115 29.8691 39.8044 30.0625 39.0533 30.2126C38.3023 30.3626 37.7072 30.4692 36.7601 30.561C35.8131 30.6527 34.5139 30.7295 33.4639 30.768C32.414 30.8063 31.6132 30.8063 30.5676 30.8014C29.5219 30.7965 28.2313 30.7865 27.5924 30.778C26.9536 30.7694 26.9664 30.7624 26.979 30.7548C26.9917 30.7472 27.0045 30.739 27.1493 30.6672Z" fill="url(#paint0_linear_10_72)"/>
<path d="M55.7435 13.4743C56.2461 13.6991 56.7487 13.9273 57.2513 14.1588C57.7537 14.3904 58.2067 14.6649 58.6101 14.9822C59.0135 15.2998 59.3407 15.6801 59.592 16.1233C59.8433 16.5664 59.969 17.1186 59.969 17.78C59.969 18.3092 59.8565 18.8119 59.6318 19.2881C59.4069 19.7643 59.0763 20.1842 58.6399 20.548C58.2034 20.9119 57.6677 21.2029 57.033 21.4211C56.3982 21.6394 55.6773 21.7486 54.8706 21.7486C53.9977 21.7486 53.2505 21.6559 52.6289 21.4707C52.0073 21.2855 51.4948 21.0771 51.0915 20.8457C50.6881 20.6142 50.3939 20.3894 50.2087 20.1711C50.0236 19.9528 49.9309 19.8106 49.9309 19.7445C49.9309 19.6387 49.9442 19.4965 49.9707 19.3178C49.9971 19.1392 50.0335 18.9474 50.0798 18.7424C50.126 18.5374 50.1822 18.3356 50.2484 18.1373C50.3145 17.9388 50.3872 17.7602 50.4666 17.6015C50.4798 17.575 50.5658 17.5486 50.7244 17.5221C50.8832 17.4956 51.0585 17.4726 51.2502 17.4526C51.4419 17.4328 51.6304 17.4163 51.8156 17.4031C52.0007 17.3898 52.1263 17.3832 52.1924 17.3832C52.1661 17.4627 52.1528 17.5286 52.1528 17.5817C52.1528 17.6346 52.1528 17.7008 52.1528 17.78C52.1793 18.587 52.3976 19.2352 52.8075 19.7246C53.2174 20.2141 53.8919 20.4587 54.831 20.4587C55.2807 20.4587 55.6542 20.3959 55.9518 20.2703C56.2494 20.1446 56.4841 19.9859 56.656 19.794C56.8279 19.6022 56.9469 19.3905 57.0131 19.1592C57.0792 18.9276 57.1123 18.706 57.1123 18.4944C57.1123 18.0975 57.0429 17.7701 56.9039 17.5122C56.7651 17.2543 56.5635 17.0261 56.299 16.8277C56.0344 16.6292 55.7138 16.4474 55.3367 16.282C54.9599 16.1166 54.54 15.9282 54.0771 15.7165C53.6275 15.5048 53.1711 15.2833 52.7083 15.0517C52.2454 14.8202 51.832 14.5358 51.4684 14.1985C51.1047 13.8612 50.8072 13.4577 50.5757 12.9882C50.3442 12.5186 50.2285 11.9398 50.2285 11.2519C50.2285 10.7362 50.3343 10.2499 50.546 9.79356C50.7575 9.33718 51.0716 8.93706 51.4882 8.59305C51.9049 8.24919 52.414 7.97465 53.0158 7.76964C53.6174 7.56464 54.3151 7.46207 55.1086 7.46207C55.8492 7.46207 56.494 7.52821 57.0429 7.66051C57.5917 7.79281 58.048 7.95483 58.4117 8.14657C58.7753 8.3385 59.0498 8.54351 59.2349 8.76177C59.4201 8.98004 59.5128 9.16861 59.5128 9.32727C59.5128 9.55209 59.4631 9.83318 59.3639 10.1705C59.2646 10.5078 59.1357 10.8287 58.9771 11.1329C58.9638 11.1594 58.8713 11.1891 58.6993 11.2222C58.5274 11.2553 58.339 11.285 58.1339 11.3115C57.9289 11.3379 57.7273 11.3611 57.5289 11.3809C57.3305 11.4007 57.1982 11.4108 57.1321 11.4108C57.1453 11.3446 57.1553 11.2586 57.162 11.1527C57.1685 11.0469 57.1719 10.961 57.1719 10.8948C57.1719 10.6831 57.1453 10.4549 57.0925 10.2103C57.0396 9.96549 56.9404 9.73408 56.7948 9.51582C56.6494 9.29755 56.4378 9.11556 56.1601 8.97012C55.8823 8.82456 55.5187 8.75186 55.069 8.75186C54.6591 8.75186 54.3185 8.81466 54.0474 8.94041C53.7762 9.06603 53.5679 9.22806 53.4224 9.42651C53.277 9.62496 53.1745 9.8399 53.115 10.0714C53.0554 10.3028 53.0257 10.5179 53.0257 10.7162C53.0257 11.0866 53.095 11.4041 53.234 11.6687C53.3729 11.9333 53.5646 12.1714 53.8093 12.3829C54.0539 12.5947 54.3416 12.7864 54.6722 12.9584C55.0029 13.1304 55.3599 13.3024 55.7435 13.4743ZM68.4201 7.46207C69.478 7.46207 70.4402 7.63079 71.3064 7.9681C72.1728 8.30543 72.9134 8.78158 73.5283 9.39678C74.1434 10.0118 74.6194 10.7592 74.9567 11.639C75.2939 12.5186 75.4625 13.5074 75.4625 14.6053C75.4625 15.69 75.2939 16.6755 74.9567 17.5617C74.6194 18.4481 74.1434 19.1988 73.5283 19.814C72.9134 20.429 72.1728 20.9052 71.3064 21.2425C70.4402 21.5798 69.478 21.7486 68.4201 21.7486C67.362 21.7486 66.3998 21.5798 65.5336 21.2425C64.6673 20.9052 63.9266 20.429 63.3118 19.814C62.6967 19.1988 62.2206 18.4481 61.8834 17.5617C61.5461 16.6755 61.3776 15.69 61.3776 14.6053C61.3776 13.5074 61.5461 12.5186 61.8834 11.639C62.2206 10.7592 62.6967 10.0118 63.3118 9.39678C63.9266 8.78158 64.6673 8.30543 65.5336 7.9681C66.3998 7.63079 67.362 7.46207 68.4201 7.46207ZM68.4201 20.4587C69.2797 20.4587 69.9641 20.267 70.4733 19.8833C70.9824 19.4997 71.3693 19.0169 71.6337 18.4348C71.8983 17.8529 72.0702 17.2179 72.1496 16.53C72.229 15.8421 72.2686 15.2005 72.2686 14.6053C72.2686 13.9968 72.229 13.3487 72.1496 12.6608C72.0702 11.9729 71.8983 11.3379 71.6337 10.756C71.3693 10.1738 70.9824 9.69431 70.4733 9.31737C69.9641 8.94041 69.2797 8.75186 68.4201 8.75186C67.5604 8.75186 66.8759 8.94361 66.3668 9.32727C65.8576 9.71091 65.4708 10.1937 65.2063 10.7758C64.9417 11.3577 64.7698 11.9927 64.6904 12.6806C64.6112 13.3685 64.5714 14.0101 64.5714 14.6053C64.5714 15.2005 64.6112 15.8421 64.6904 16.53C64.7698 17.2179 64.9417 17.8529 65.2063 18.4348C65.4708 19.0169 65.8576 19.4997 66.3668 19.8833C66.8759 20.267 67.5604 20.4587 68.4201 20.4587ZM86.314 18.4944C86.3802 18.4944 86.4727 18.501 86.5917 18.5143C86.7107 18.5275 86.8265 18.544 86.9388 18.5638C87.0513 18.5838 87.1471 18.6101 87.2265 18.6432C87.3059 18.6763 87.3456 18.706 87.3456 18.7325C87.3456 18.9177 87.3422 19.136 87.3356 19.3873C87.3289 19.6387 87.3158 19.8932 87.2959 20.1513C87.2761 20.4092 87.2563 20.6605 87.2364 20.9052C87.2166 21.15 87.1935 21.3649 87.167 21.5501H76.871C76.8447 21.5501 76.8215 21.4774 76.8017 21.3318C76.7819 21.1863 76.772 21.1003 76.772 21.0739C76.772 21.0341 76.848 21.0044 77.0001 20.9846C77.1522 20.9648 77.3174 20.9218 77.496 20.8556C77.6746 20.7895 77.8398 20.6837 77.9919 20.5381C78.144 20.3926 78.22 20.1743 78.22 19.8833V9.32727C78.22 9.03631 78.144 8.81802 77.9919 8.67246C77.8398 8.5269 77.6746 8.42111 77.496 8.35496C77.3174 8.28881 77.1522 8.24583 77.0001 8.22599C76.848 8.20617 76.772 8.17645 76.772 8.13667C76.772 8.1103 76.7819 8.02433 76.8017 7.87877C76.8215 7.73321 76.8447 7.66051 76.871 7.66051H82.4653C82.4786 7.66051 82.4919 7.68368 82.5051 7.73001C82.5182 7.7762 82.5283 7.82588 82.5348 7.87877C82.5414 7.93166 82.5481 7.98455 82.5546 8.03744C82.5613 8.09048 82.5645 8.12356 82.5645 8.13667C82.5645 8.17645 82.4885 8.20282 82.3364 8.21608C82.1843 8.22937 82.019 8.27235 81.8405 8.34505C81.6619 8.41791 81.4966 8.5269 81.3445 8.67246C81.1924 8.81802 81.1164 9.03631 81.1164 9.32727V20.3397H84.7864C85.0774 20.3397 85.3122 20.2438 85.4906 20.0521C85.6692 19.8601 85.8148 19.6486 85.9271 19.4171C86.0396 19.1855 86.1222 18.9739 86.175 18.7821C86.2281 18.5903 86.2742 18.4944 86.314 18.4944ZM101.53 7.66051C101.556 7.66051 101.579 7.73321 101.599 7.87877C101.619 8.02433 101.629 8.1103 101.629 8.13667C101.629 8.17645 101.553 8.20617 101.401 8.22599C101.249 8.24583 101.077 8.28881 100.885 8.35496C100.693 8.42111 100.521 8.5269 100.369 8.67246C100.217 8.81802 100.141 9.03631 100.141 9.32727V16.7482C100.141 18.3225 99.698 19.5494 98.8119 20.429C97.9259 21.3086 96.6628 21.7486 95.0228 21.7486C94.0309 21.7486 93.1581 21.6262 92.4042 21.3814C91.6504 21.1367 91.0222 20.806 90.5196 20.3894C90.017 19.9727 89.6368 19.4866 89.3789 18.931C89.1211 18.3754 88.992 17.78 88.992 17.1452V9.32727C88.992 9.03631 88.9193 8.81802 88.7739 8.67246C88.6284 8.5269 88.4664 8.42111 88.2878 8.35496C88.1093 8.28881 87.944 8.24583 87.7919 8.22599C87.6398 8.20617 87.5638 8.17645 87.5638 8.13667C87.5638 8.1103 87.5737 8.02433 87.5935 7.87877C87.6133 7.73321 87.6365 7.66051 87.663 7.66051H93.3168C93.33 7.66051 93.3433 7.68368 93.3564 7.73001C93.3696 7.7762 93.3795 7.82588 93.3862 7.87877C93.3928 7.93166 93.3994 7.98455 93.4061 8.03744C93.4126 8.09048 93.416 8.12356 93.416 8.13667C93.416 8.17645 93.3399 8.20282 93.1878 8.21608C93.0358 8.22937 92.8704 8.27235 92.6918 8.34505C92.5133 8.41791 92.348 8.5269 92.1959 8.67246C92.0438 8.81802 91.9678 9.03631 91.9678 9.32727V17.1452C91.9678 17.4494 91.9975 17.7899 92.0571 18.167C92.1165 18.544 92.2522 18.9011 92.4637 19.2384C92.6753 19.5757 92.9829 19.8601 93.3862 20.0917C93.7896 20.3232 94.335 20.4389 95.0228 20.4389C95.6048 20.4389 96.104 20.343 96.5207 20.1513C96.9372 19.9594 97.2811 19.6948 97.5522 19.3575C97.8233 19.0201 98.0217 18.6299 98.1473 18.1868C98.273 17.7437 98.3358 17.2642 98.3358 16.7482V9.32727C98.3358 9.03631 98.2598 8.81802 98.1077 8.67246C97.9556 8.5269 97.7903 8.42111 97.6117 8.35496C97.4332 8.28881 97.2678 8.24583 97.1158 8.22599C96.9637 8.20617 96.8876 8.17645 96.8876 8.13667C96.8876 8.1103 96.9009 8.02433 96.9273 7.87877C96.9538 7.73321 96.9736 7.66051 96.9868 7.66051H101.53ZM110.417 14.3076L114.166 20.0222C114.365 20.2735 114.567 20.4621 114.772 20.5877C114.976 20.7135 115.165 20.806 115.337 20.8656C115.509 20.925 115.648 20.9648 115.754 20.9846C115.859 21.0044 115.912 21.0341 115.912 21.0739C115.912 21.1003 115.902 21.1863 115.882 21.3318C115.863 21.4774 115.839 21.5501 115.813 21.5501H109.762C109.749 21.5501 109.729 21.4774 109.703 21.3318C109.676 21.1863 109.663 21.1003 109.663 21.0739C109.663 21.0341 109.759 21.0078 109.951 20.9945C110.143 20.9812 110.331 20.945 110.516 20.8854C110.701 20.8259 110.847 20.7234 110.953 20.5778C111.058 20.4324 111.019 20.2206 110.834 19.9429L108.394 16.2324L105.934 19.8635C105.735 20.1545 105.679 20.3761 105.765 20.5282C105.851 20.6803 105.987 20.7895 106.172 20.8556C106.357 20.9218 106.542 20.9648 106.727 20.9846C106.912 21.0044 107.005 21.0341 107.005 21.0739C107.005 21.0872 107.002 21.1201 106.995 21.1731C106.988 21.226 106.982 21.2789 106.975 21.3318C106.969 21.3847 106.959 21.4344 106.945 21.4806C106.932 21.5269 106.919 21.5501 106.906 21.5501H102.145C102.118 21.5501 102.095 21.4774 102.075 21.3318C102.055 21.1863 102.045 21.1003 102.045 21.0739C102.045 21.0341 102.105 21.0044 102.224 20.9846C102.343 20.9648 102.492 20.9218 102.67 20.8556C102.849 20.7895 103.047 20.6837 103.265 20.5381C103.484 20.3926 103.692 20.1743 103.89 19.8833L107.402 14.7244L103.771 9.18842C103.573 8.93705 103.371 8.74852 103.166 8.62292C102.961 8.49718 102.773 8.40465 102.601 8.34505C102.429 8.28561 102.29 8.24583 102.184 8.22599C102.078 8.20617 102.026 8.17645 102.026 8.13667C102.026 8.1103 102.035 8.02433 102.055 7.87877C102.075 7.73321 102.098 7.66051 102.125 7.66051H108.116C108.129 7.66051 108.142 7.68368 108.156 7.73001C108.169 7.7762 108.179 7.82588 108.185 7.87877C108.192 7.93166 108.199 7.98455 108.205 8.03744C108.212 8.09048 108.215 8.12356 108.215 8.13667C108.215 8.17645 108.122 8.20282 107.937 8.21608C107.752 8.22937 107.57 8.26565 107.392 8.32525C107.213 8.38484 107.078 8.48726 106.985 8.63282C106.893 8.77823 106.932 8.98994 107.104 9.26768L109.425 12.7997L111.786 9.34709C111.984 9.05612 112.04 8.83447 111.955 8.68236C111.869 8.53024 111.73 8.42111 111.538 8.35496C111.346 8.28881 111.158 8.24583 110.973 8.22599C110.787 8.20617 110.695 8.17645 110.695 8.13667C110.695 8.1103 110.708 8.02433 110.734 7.87877C110.761 7.73321 110.781 7.66051 110.794 7.66051H115.515C115.542 7.66051 115.565 7.73321 115.585 7.87877C115.605 8.02433 115.615 8.1103 115.615 8.13667C115.615 8.17645 115.558 8.20617 115.446 8.22599C115.334 8.24583 115.188 8.28881 115.01 8.35496C114.831 8.42111 114.636 8.5269 114.424 8.67246C114.213 8.81802 114.008 9.03631 113.809 9.32727L110.417 14.3076ZM126.168 18.4944C126.235 18.4944 126.327 18.501 126.446 18.5143C126.565 18.5275 126.681 18.544 126.793 18.5638C126.906 18.5838 127.002 18.6101 127.081 18.6432C127.16 18.6763 127.2 18.706 127.2 18.7325C127.2 18.9177 127.197 19.1425 127.19 19.4072C127.184 19.6718 127.17 19.9396 127.151 20.2107C127.131 20.4819 127.111 20.7398 127.091 20.9846C127.071 21.2292 127.048 21.4178 127.022 21.5501H116.666C116.64 21.5501 116.617 21.4774 116.597 21.3318C116.577 21.1863 116.567 21.1003 116.567 21.0739C116.567 21.0341 116.643 21.0044 116.795 20.9846C116.947 20.9648 117.112 20.9218 117.291 20.8556C117.47 20.7895 117.635 20.6837 117.787 20.5381C117.939 20.3926 118.015 20.1743 118.015 19.8833V9.32727C118.015 9.03631 117.939 8.81802 117.787 8.67246C117.635 8.5269 117.47 8.42111 117.291 8.35496C117.112 8.28881 116.947 8.24583 116.795 8.22599C116.643 8.20617 116.567 8.17645 116.567 8.13667C116.567 8.1103 116.577 8.02433 116.597 7.87877C116.617 7.73321 116.64 7.66051 116.666 7.66051H126.625C126.651 7.79281 126.674 7.98135 126.694 8.22599C126.714 8.4708 126.734 8.7287 126.754 8.99985C126.774 9.27104 126.787 9.53899 126.793 9.80347C126.8 10.0681 126.803 10.2929 126.803 10.4781C126.803 10.5046 126.764 10.5343 126.684 10.5674C126.605 10.6005 126.509 10.627 126.397 10.6468C126.284 10.6666 126.168 10.6831 126.049 10.6964C125.93 10.7096 125.838 10.7162 125.772 10.7162C125.732 10.7162 125.686 10.6237 125.633 10.4384C125.58 10.2533 125.497 10.0514 125.385 9.83318C125.273 9.61504 125.127 9.41324 124.948 9.22805C124.77 9.04286 124.535 8.95032 124.244 8.95032H120.911V13.772H122.756C123.193 13.772 123.53 13.7091 123.768 13.5834C124.006 13.4577 124.185 13.3188 124.304 13.1667C124.423 13.0146 124.502 12.8757 124.542 12.75C124.581 12.6244 124.621 12.5616 124.661 12.5616C124.687 12.5616 124.73 12.5649 124.79 12.5715C124.849 12.578 124.915 12.5879 124.988 12.6012C125.061 12.6145 125.124 12.6277 125.177 12.641C125.23 12.6541 125.256 12.6674 125.256 12.6806V16.153C125.256 16.1663 125.23 16.1794 125.177 16.1927C125.124 16.2059 125.061 16.2192 124.988 16.2324C124.915 16.2456 124.849 16.2555 124.79 16.2622C124.73 16.2687 124.687 16.2721 124.661 16.2721C124.621 16.2721 124.581 16.2093 124.542 16.0835C124.502 15.9579 124.423 15.819 124.304 15.6669C124.185 15.5147 124.006 15.3758 123.768 15.2502C123.53 15.1245 123.193 15.0617 122.756 15.0617H120.911V20.2603H124.641C124.932 20.2603 125.167 20.1678 125.345 19.9826C125.524 19.7974 125.669 19.5957 125.782 19.3774C125.894 19.1592 125.977 18.9573 126.03 18.7721C126.083 18.587 126.129 18.4944 126.168 18.4944Z" fill="#2C2216"/>
<path d="M71.871 28.1085V29.1669H73.2814V34.4573H74.3394V29.1669H75.7514V28.1085H71.871ZM83.1201 28.1085C81.3667 28.1085 79.9457 29.53 79.9457 31.2837C79.9457 33.0375 81.3667 34.4588 83.1201 34.4588C84.8734 34.4588 86.2946 33.0375 86.2946 31.2837C86.2914 29.53 84.8719 28.11 83.1201 28.1085ZM83.1201 33.4005C81.9511 33.4005 81.0037 32.4529 81.0037 31.2837C81.0037 30.1146 81.9511 29.1669 83.1201 29.1669C84.289 29.1669 85.2364 30.1146 85.2364 31.2837C85.2349 32.4529 84.2875 33.3989 83.1201 33.4005ZM94.5923 28.1085V32.1144C94.5923 32.8267 94.0154 33.4051 93.3018 33.4051C92.5896 33.4051 92.0128 32.8267 92.0128 32.1144V28.1085H90.9548V32.1144C90.9548 33.4112 92.0052 34.4634 93.3018 34.4634C94.5999 34.4634 95.6503 33.4112 95.6503 32.1144V28.1085H94.5923ZM103.414 31.7745C104.345 31.5852 104.98 30.7206 104.885 29.7746C104.791 28.8301 103.996 28.11 103.045 28.1085H100.312V34.4558H101.37V31.8129H102.156L103.976 34.4573H105.26L103.414 31.7745ZM101.37 30.7544V29.1669H103.045C103.334 29.1576 103.607 29.3053 103.754 29.5561C103.902 29.8053 103.902 30.1146 103.754 30.3653C103.607 30.6145 103.334 30.7637 103.045 30.7529L101.37 30.7544Z" fill="#E7C87F"/>
<defs>
<linearGradient id="paint0_linear_10_72" x1="22.7718" y1="0.561504" x2="22.7718" y2="41.401" gradientUnits="userSpaceOnUse">
<stop stop-color="#FCF0B5"/>
<stop offset="1" stop-color="#AF7C3D"/>
</linearGradient>
</defs>
</svg>
