<svg width="420" height="129" viewBox="0 0 420 129" fill="none" xmlns="http://www.w3.org/2000/svg">
<path d="M217.977 72.9596L217.977 45.283C215.457 48.2156 211.288 52.3396 207.508 55.5472L207.508 72.9596C207.508 75.9838 204.89 76.3504 204.309 77.1752L221.273 77.1752C220.692 76.3504 217.977 75.9838 217.977 72.9596ZM197.038 69.8437L197.038 63.4286C194.227 65.5364 191.028 68.1941 187.441 71.6765L186.471 72.593V77.1752L200.237 74.1509C199.655 73.3261 197.038 72.9596 197.038 69.8437ZM217.977 42.2588V35.9353L204.309 39.0512C204.89 39.876 207.508 40.2426 207.508 43.2668V52.6146C205.472 54.5391 203.533 56.1887 201.691 57.3801C200.14 58.4798 198.686 59.4879 197.038 60.6792L197.038 48.2156C197.038 40.2426 190.349 35.2022 179.976 35.2022C173.384 35.2022 169.216 37.2183 164.757 42.8086L170.379 45.0997C171.349 41.434 173.772 35.9353 179.201 35.9353C185.114 35.9353 186.471 39.876 186.471 42.9003C186.471 42.9003 186.374 43.3585 186.374 43.5418C186.181 46.9326 183.175 48.3073 177.65 50.5067C171.155 53.0728 162.333 56.5553 162.333 65.7197C162.333 72.6846 166.889 78 173.578 78C179.201 78 184.242 73.6011 186.471 70.8517C193.063 64.5283 198.104 60.9542 202.273 58.1132C206.926 54.9057 214.972 47.1159 218.074 43.3585C224.376 35.9353 229.804 39.0512 231.743 43.6334L238.238 39.7844C234.845 33.7358 225.733 32.9111 217.977 42.2588ZM186.471 69.752C180.752 75.9838 172.803 75.3423 172.803 64.2534C172.803 59.8544 174.742 54.6307 179.201 51.8814C183.272 49.3154 185.502 47.9407 186.471 46.1995L186.471 69.752Z" fill="#456444"/>
<path d="M304.514 35.2022C299.182 35.2022 295.401 37.4016 291.233 42.9003L291.233 10L277.564 13.0243C278.146 13.9407 280.763 14.3073 280.763 17.3315L280.763 52.8895C278.727 54.6307 276.691 56.1887 274.946 57.3801C273.395 58.4798 271.941 59.4879 270.293 60.6792L270.293 48.2156C270.293 40.2426 263.604 35.2022 253.232 35.2022C246.64 35.2022 242.471 37.2183 238.012 42.8086L243.634 45.0997C244.604 41.434 247.027 35.9353 252.456 35.9353C258.369 35.9353 259.63 39.876 259.727 42.9003C259.727 42.9003 259.63 43.3585 259.63 43.5418C259.436 46.9326 256.431 48.3073 250.905 50.5067C244.41 53.0728 235.588 56.5553 235.588 65.7197C235.588 72.6846 240.144 78 246.833 78C252.456 78 257.497 73.6011 259.727 70.8517C266.319 64.5283 271.36 60.9542 275.528 58.1132C280.181 54.9057 284.253 51.973 291.233 44.0916C295.595 38.7763 300.539 37.5849 304.514 39.6011C310.039 42.3504 311.881 47.7574 311.881 56.6469C311.881 67.5526 309.07 77.2668 300.151 77.2668C295.983 77.2668 293.074 75.0674 291.233 71.5849L291.233 45.9245C286.967 50.5984 283.865 53.531 280.763 55.8221V77.2668L287.452 74.3342C291.136 76.6253 295.498 78 300.151 78C312.657 78 322.739 68.3774 322.739 56.6469C322.739 44.8248 314.208 35.2022 304.514 35.2022ZM259.727 69.752C254.007 75.9838 246.058 75.3423 246.058 64.2534C246.058 59.8544 247.997 54.6307 252.456 51.8814C256.528 49.3154 258.757 47.9407 259.727 46.1995L259.727 69.752ZM270.293 69.8437V63.4286C267.482 65.5364 264.283 68.1941 260.696 71.6765L259.727 72.593V77.1752L273.492 74.1509C272.911 73.3261 270.293 72.9596 270.293 69.8437Z" fill="#456444"/>
<path d="M323.801 77.1752L340.766 77.1752C340.087 76.3504 337.47 75.9838 337.47 72.9596L337.47 36.027L323.801 39.0512C324.383 39.876 327 40.2426 327 43.3585L327 72.9596C327 75.9838 324.383 76.3504 323.801 77.1752ZM332.235 32.1779C335.822 32.1779 338.73 29.4286 338.73 26.0377C338.73 22.6469 335.822 19.9892 332.235 19.9892C328.648 19.9892 325.74 22.6469 325.74 26.0377C325.74 29.4286 328.648 32.1779 332.235 32.1779Z" fill="#456444"/>
<path d="M362.792 75.159C355.328 72.7763 353.195 64.1617 353.195 56.5553C353.195 45.6496 356.879 35.9353 364.925 35.9353C369.481 36.027 372.68 40.3342 373.456 44.0916L379.078 41.8922C375.879 37.4016 370.257 35.2022 364.925 35.2022C352.419 35.2022 342.337 44.8248 342.337 56.5553C342.337 68.3774 352.419 78 364.925 78C371.42 78 377.43 75.6172 380.726 71.31C375.976 74.9757 368.996 77.1752 362.792 75.159Z" fill="#456444"/>
<path d="M417.333 74.1509C416.751 73.3261 414.134 72.9596 414.134 69.8437L414.134 48.2156C414.134 40.2426 407.445 35.2022 397.072 35.2022C390.48 35.2022 386.312 37.2183 381.852 42.8086L387.475 45.0997C388.444 41.434 390.868 36.027 396.297 36.027C402.21 36.027 403.47 39.876 403.567 42.9003C403.567 42.9003 403.47 43.3585 403.47 43.5418C403.276 46.9326 400.271 48.3073 394.746 50.5067C388.251 53.0728 379.429 56.5553 379.429 65.7197C379.429 72.6846 383.985 78 390.674 78C396.297 78 401.338 73.6011 403.567 70.8517V77.1752L417.333 74.1509ZM389.899 64.2534C389.899 59.8544 391.837 54.6307 396.297 51.8814C400.368 49.3154 402.598 47.9407 403.567 46.1995L403.567 69.752C397.848 75.9838 389.899 75.3423 389.899 64.2534Z" fill="#456444"/>
<path d="M171.262 110C176.603 110 180.163 106.058 180.163 100C180.163 93.942 176.603 90 171.262 90C165.893 90 162.333 93.942 162.333 100C162.333 106.058 165.893 110 171.262 110ZM171.262 108C166.681 108 164.522 105.391 164.522 100C164.522 94.6087 166.681 92 171.262 92C175.844 92 177.974 94.6087 177.974 100C177.974 105.391 175.844 108 171.262 108Z" fill="#456444"/>
<path d="M191.417 109.71V101.797H194.247C196.786 101.797 197.808 102.58 198.77 104.261L201.922 109.71H204.344L200.988 103.884C200.317 102.696 199.5 101.884 198.274 101.507V101.333C201.776 101.246 204.081 99.2464 204.081 95.942C204.081 92.3478 201.338 90.2899 197.311 90.2899L189.345 90.2899L189.345 109.71L191.417 109.71ZM191.417 92.1739H197.632C200.638 92.1739 201.98 93.4203 201.98 96.087C201.98 98.8406 200.638 100.029 197.632 100.029H191.417L191.417 92.1739Z" fill="#456444"/>
<path d="M215.078 109.71L215.078 90.2899H213.006L213.006 109.71H215.078Z" fill="#456444"/>
<path d="M238.4 109.71V107.826L227.311 107.826L227.311 100.899L237.962 100.899V98.9855L227.311 98.9855V92.1739L238.4 92.1739V90.2899L225.239 90.2899L225.239 109.71L238.4 109.71Z" fill="#456444"/>
<path d="M249.575 109.71L249.575 93.7971H249.721L260.606 109.71H262.882V90.2899H260.781V106.261H260.606L249.75 90.2899L247.503 90.2899L247.503 109.71H249.575Z" fill="#456444"/>
<path d="M279.833 109.71V92.1739L286.778 92.1739V90.2899L270.845 90.2899V92.1739L277.761 92.1739V109.71H279.833Z" fill="#456444"/>
<path d="M314.758 109.71V92.1739L321.703 92.1739V90.2899L305.77 90.2899V92.1739L312.686 92.1739V109.71H314.758Z" fill="#456444"/>
<path d="M337.095 110C342.435 110 345.995 106.058 345.995 100C345.995 93.942 342.435 90 337.095 90C331.725 90 328.165 93.942 328.165 100C328.165 106.058 331.725 110 337.095 110ZM337.095 108C332.513 108 330.354 105.391 330.354 100C330.354 94.6087 332.513 92 337.095 92C341.676 92 343.806 94.6087 343.806 100C343.806 105.391 341.676 108 337.095 108Z" fill="#456444"/>
<path d="M363.231 110C368.163 110 371.314 107.13 371.314 102.058V90.2899H369.213V102.058C369.213 106.203 367.463 108 363.231 108C358.942 108 357.22 106.203 357.22 102.058V90.2899L355.119 90.2899V102.058C355.119 107.13 358.241 110 363.231 110Z" fill="#456444"/>
<path d="M383.503 109.71V101.797H386.334C388.872 101.797 389.894 102.58 390.857 104.261L394.008 109.71H396.43L393.075 103.884C392.403 102.696 391.586 101.884 390.361 101.507V101.333C393.862 101.246 396.168 99.2464 396.168 95.942C396.168 92.3478 393.425 90.2899 389.398 90.2899L381.431 90.2899V109.71L383.503 109.71ZM383.503 92.1739H389.719C392.724 92.1739 394.067 93.4203 394.067 96.087C394.067 98.8406 392.724 100.029 389.719 100.029L383.503 100.029V92.1739Z" fill="#456444"/>
<path d="M412.417 110C417.028 110 419.333 107.623 419.333 104.667C419.333 101.623 417.407 100.116 414.168 99.3913L410.783 98.6087C407.923 97.942 406.843 97.3043 406.843 95.1014C406.843 92.9855 408.448 91.913 411.688 91.913C415.539 91.913 416.94 93.6232 416.94 96.2899V96.6087H419.012V96.2319C419.012 93.0725 416.794 90 411.717 90C407.077 90 404.742 92.4348 404.742 95.2464C404.742 98.3768 406.843 99.7681 409.908 100.406L413.293 101.159C416.24 101.797 417.232 102.609 417.232 104.783C417.232 107.014 415.715 108.087 412.475 108.087C408.127 108.087 406.698 106.406 406.698 103.71V103.391L404.626 103.391V103.826C404.626 107.159 406.989 110 412.417 110Z" fill="#456444"/>
<path fill-rule="evenodd" clip-rule="evenodd" d="M145.303 63.1322C145.359 62.1149 145.387 61.0903 145.387 60.0591C145.387 29.4437 120.568 4.625 89.9527 4.625C59.3372 4.625 34.5186 29.4437 34.5186 60.0591C34.5186 90.6745 59.3372 115.493 89.9527 115.493C99.6908 115.493 108.842 112.982 116.795 108.572L114.06 104.156L117.829 97.818L121.598 104.156L120.087 106.595C133.496 97.8939 142.908 83.5549 144.964 66.9361L118.906 65.2626C128.191 55.7612 138.879 59.3685 145.303 63.1322ZM116.058 63.1467C115.805 43.2277 92.1703 43.0254 92.1703 43.0254L116.058 63.1467ZM116.273 65.9508C97.1607 71.352 103.083 94.3072 103.083 94.3072L116.273 65.9508ZM118.905 65.9508C138.018 71.352 132.096 94.3072 132.096 94.3072L118.905 65.9508ZM118.775 63.1467C119.029 43.2277 142.663 43.0254 142.663 43.0254L118.775 63.1467ZM115.988 65.2626C101.585 50.5233 83.8047 67.3295 83.8047 67.3295L115.988 65.2626ZM117.829 84.8551L121.598 91.1932L117.829 97.2779L114.06 91.1932L117.829 84.8551ZM117.829 71.8921L121.598 78.2303L117.829 84.3149L114.06 78.2303L117.829 71.8921Z" fill="#456444"/>
<path d="M1.7207 125.907C2.57747 121.043 10.8133 41.5101 14.8241 2.35156C43.2989 34.1296 78.7663 83.4602 64.403 117.647C8.7134 109.387 4.68157 123.957 1.7207 125.907Z" fill="#456444"/>
<path fill-rule="evenodd" clip-rule="evenodd" d="M14.0593 0L15.5684 1.6842C29.83 17.6003 45.8789 37.9501 56.5659 58.6371C67.2286 79.2773 72.6865 100.512 65.3245 118.035L65.0238 118.751L64.2558 118.637C36.4729 114.516 21.7291 116.117 13.6119 118.895C9.57175 120.277 7.16833 121.953 5.6043 123.373C4.81611 124.088 4.22935 124.749 3.72916 125.316C3.70234 125.346 3.67542 125.377 3.64842 125.407C3.21099 125.903 2.74964 126.427 2.27034 126.743L0.333008 128.019L0.735418 125.734C1.1558 123.347 3.4235 102.307 6.09468 76.8854C8.76196 51.5004 11.8235 21.8284 13.8289 2.24965L14.0593 0ZM1.7207 125.907C2.06986 125.677 2.43346 125.272 2.89535 124.749C2.91522 124.727 2.93527 124.704 2.95551 124.681C6.4544 120.719 15.563 110.403 64.403 117.647C78.6151 83.8202 44.0399 35.1669 15.7255 3.36123C15.4242 3.02275 15.124 2.68619 14.8241 2.35156C14.7787 2.79513 14.7323 3.24385 14.6858 3.69761C10.8669 40.9633 3.50538 112.042 1.9435 124.315C1.84547 125.085 1.77073 125.623 1.7207 125.907Z" fill="#456444"/>
<path d="M2.84394 116.595C2.27333 121.694 1.87592 125.026 1.7207 125.907C2.75805 125.224 3.92685 122.991 7.40257 120.735C5.64309 119.323 4.1296 117.936 2.84394 116.595Z" fill="#FEFCEB"/>
<path d="M4.00005 106.056C4.12667 104.885 4.2571 103.675 4.391 102.43C4.47162 102.459 4.55279 102.49 4.63451 102.522C4.46875 103.231 4.48088 103.92 4.67288 104.568C5.11495 106.058 6.48408 107.234 8.60632 107.872C9.82965 108.24 11.314 108.433 13.0427 108.405C13.5499 108.901 14.0639 109.429 14.5836 109.988C10.9957 109.88 8.27712 109.196 6.43488 108.209C5.26376 107.582 4.45954 106.841 4.00005 106.056Z" fill="#FEFCEB"/>
<path d="M3.75758 108.292C3.80975 107.812 3.86267 107.325 3.9163 106.83C4.44872 107.51 5.21423 108.129 6.19601 108.655C8.13872 109.696 10.9604 110.392 14.6263 110.495C14.7687 110.499 14.9124 110.502 15.0573 110.504C15.7695 111.292 16.4919 112.138 17.2222 113.047C15.2422 112.847 13.4619 112.543 11.8779 112.159C8.36197 111.308 5.82684 110.067 4.22157 108.712C4.05689 108.573 3.90228 108.433 3.75758 108.292Z" fill="#FEFCEB"/>
<path d="M3.5285 110.395C3.58125 109.912 3.63487 109.42 3.68934 108.92C3.75638 108.98 3.82501 109.039 3.8952 109.099C5.57911 110.52 8.19447 111.788 11.7588 112.651C13.4959 113.072 15.4616 113.397 17.6596 113.597C18.3313 114.452 19.0093 115.359 19.6918 116.32C18.9544 116.454 18.2498 116.598 17.5763 116.749C14.0523 115.899 11.1142 114.852 8.72664 113.707C6.5353 112.657 4.81338 111.527 3.5285 110.395Z" fill="#FEFCEB"/>
<path d="M3.26201 112.826C3.32703 112.235 3.39364 111.628 3.46178 111.005C4.75673 112.096 6.4331 113.169 8.50795 114.164C10.711 115.22 13.3687 116.191 16.5066 117.003C14.6559 117.466 13.0577 117.991 11.6717 118.549C9.15478 117.242 7.04782 115.898 5.32013 114.567C4.56111 113.982 3.87605 113.4 3.26201 112.826Z" fill="#FEFCEB"/>
<path d="M2.91743 115.937C3.00557 115.147 3.09756 114.317 3.19319 113.45C3.74715 113.953 4.35276 114.46 5.01137 114.967C6.67755 116.251 8.68651 117.543 11.0638 118.801C9.82472 119.332 8.76623 119.889 7.8552 120.449C5.91716 118.903 4.27959 117.391 2.91743 115.937Z" fill="#FEFCEB"/>
<path d="M26.2701 115.468C24.054 115.653 22.0525 115.91 20.2426 116.222C19.6065 115.321 18.974 114.465 18.3463 113.655C20.26 113.803 22.3427 113.859 24.5966 113.802C25.1487 114.336 25.7067 114.891 26.2701 115.468Z" fill="#FEFCEB"/>
<path d="M36.1411 115.139C32.7224 115.105 29.6642 115.207 26.9251 115.415C26.3784 114.851 25.8367 114.306 25.3002 113.781C27.8115 113.693 30.5292 113.469 33.4565 113.084C34.337 113.736 35.232 114.421 36.1411 115.139Z" fill="#FEFCEB"/>
<path d="M36.9683 115.15C44.3441 115.268 53.3576 116.009 64.403 117.647C78.7663 83.4602 43.2989 34.1296 14.8241 2.35156C13.2523 17.698 11.0314 39.2457 8.86018 60.0697C9.50789 58.3559 10.2217 56.5853 11.006 54.7582L11.2626 54.1603L11.4773 54.7745C12.7878 58.5253 13.8301 62.0327 14.6391 65.2976C16.1423 62.7789 17.8578 60.1379 19.8059 57.3794L20.1813 56.8479L20.2635 57.4933C20.7657 61.4356 21.056 65.0839 21.1684 68.4463C23.163 66.2946 25.3908 64.0671 27.8708 61.7731L28.3484 61.3313L28.2947 61.9797C27.9663 65.9397 27.4918 69.5683 26.9028 72.8804C29.3008 71.1906 31.9426 69.4753 34.8448 67.7474L35.4039 67.4145L35.2165 68.0376C34.072 71.8428 32.8534 75.2934 31.5886 78.4107C34.2856 77.2564 37.2263 76.1278 40.4244 75.0411L41.0404 74.8317L40.7275 75.4022C38.817 78.8862 36.9076 82.008 35.0225 84.7941C37.9001 84.2259 41.0107 83.7335 44.3644 83.3354L45.0105 83.2587L44.5858 83.7517C42.0072 86.7455 39.5043 89.3891 37.0936 91.7128C40.0856 91.768 43.2997 91.9544 46.7425 92.2941L47.3762 92.3566L46.8723 92.746C43.7362 95.1695 40.7453 97.2606 37.9096 99.0531C40.6779 99.6923 43.6151 100.484 46.7228 101.448L47.3442 101.641L46.7558 101.919C43.1619 103.614 39.782 105.018 36.619 106.164C39.2813 107.396 42.0875 108.826 45.0348 110.475L45.6026 110.793L44.9693 110.942C41.102 111.853 37.5047 112.523 34.173 112.987C35.0897 113.673 36.0216 114.394 36.9683 115.15Z" fill="#FEFCEB"/>
<path d="M8.33257 65.1249C8.43722 64.1232 8.54212 63.1186 8.64719 62.1116C9.39784 60.0183 10.2506 57.8343 11.2141 55.5599C12.4857 59.2564 13.4927 62.7093 14.2706 65.9196C13.0762 67.952 12.0211 69.903 11.0942 71.7701C10.3319 69.6752 9.41697 67.4591 8.33257 65.1249Z" fill="#FEFCEB"/>
<path d="M7.40972 73.9406C7.68003 71.3638 7.95374 68.7496 8.22936 66.1126C9.23088 68.3208 10.0773 70.4181 10.784 72.4017C10.0556 73.9007 9.41078 75.3443 8.84361 76.731C8.41142 75.8277 7.93427 74.8972 7.40972 73.9406Z" fill="#FEFCEB"/>
<path d="M6.81864 79.5666C6.9829 78.0057 7.14887 76.4262 7.31622 74.8317C7.77917 75.7011 8.20181 76.5474 8.58615 77.3699C8.14903 78.4714 7.76159 79.536 7.42075 80.5628C7.22955 80.2349 7.02891 79.9028 6.81864 79.5666Z" fill="#FEFCEB"/>
<path d="M5.16191 95.2235C5.32389 95.3949 5.48761 95.5553 5.6527 95.7046C5.78253 95.9198 5.91688 96.1233 6.05535 96.3149C6.13876 96.5561 6.22922 96.7864 6.32638 97.0056C6.35754 97.2551 6.3976 97.4957 6.44626 97.7271C6.42468 97.9788 6.41374 98.2237 6.41323 98.4612C6.34012 98.7018 6.27875 98.9379 6.22898 99.1692C6.04017 99.5109 5.88125 99.8479 5.75206 100.179C5.67875 100.23 5.60693 100.281 5.53658 100.333C5.29962 100.508 5.07893 100.687 4.87473 100.87C4.76062 100.923 4.64931 100.978 4.54084 101.034C4.741 99.1685 4.94838 97.2281 5.16191 95.2235Z" fill="#FEFCEB"/>
<path d="M5.30696 93.861C5.34092 93.5417 5.37502 93.221 5.40927 92.8987C5.44916 93.4817 5.5154 94.0307 5.60583 94.5452C5.50251 94.3274 5.40278 94.0993 5.30696 93.861Z" fill="#FEFCEB"/>
<path d="M6.30485 84.4418C6.44561 83.1083 6.58798 81.7577 6.73173 80.3923C6.89787 80.6684 7.05725 80.9415 7.21 81.2115C6.85288 82.3354 6.55257 83.4125 6.30485 84.4418Z" fill="#FEFCEB"/>
<path d="M32.8668 112.65C29.9641 113.016 27.2748 113.221 24.7953 113.291C23.5948 112.135 22.4212 111.076 21.2777 110.108C23.1807 109.855 25.2296 109.476 27.4229 108.952C29.1669 110.044 30.9828 111.273 32.8668 112.65Z" fill="#FEFCEB"/>
<path d="M26.8154 108.575C24.6451 109.077 22.6226 109.434 20.7495 109.665C19.9236 108.981 19.1139 108.345 18.3216 107.755C19.7955 107.437 21.3786 106.997 23.0661 106.419C24.2744 107.065 25.5247 107.782 26.8154 108.575Z" fill="#FEFCEB"/>
<path d="M20.0517 109.747C19.2355 109.081 18.4362 108.463 17.655 107.891C17.52 107.917 17.3859 107.943 17.2529 107.967C15.9956 108.195 14.8232 108.33 13.7392 108.382C14.2483 108.891 14.7634 109.431 15.2837 110.001C16.7407 110.014 18.3305 109.934 20.0517 109.747Z" fill="#FEFCEB"/>
<path d="M22.4491 106.093C20.7807 106.646 19.2207 107.06 17.774 107.352C16.988 106.781 16.2197 106.257 15.4706 105.776C16.4905 105.498 17.5762 105.127 18.7224 104.655C18.8547 104.6 18.9877 104.545 19.1216 104.487C20.1906 104.96 21.3002 105.494 22.4491 106.093Z" fill="#FEFCEB"/>
<path d="M17.0886 107.482C16.3056 106.925 15.5416 106.415 14.7978 105.949C13.6522 106.223 12.5961 106.375 11.6374 106.419C12.1649 106.877 12.7007 107.368 13.2438 107.895C14.4089 107.864 15.6918 107.732 17.0886 107.482Z" fill="#FEFCEB"/>
<path d="M18.4786 104.208C17.1947 104.734 15.9944 105.129 14.8845 105.407C14.3149 105.054 13.7569 104.727 13.211 104.424C14.14 104.183 15.1416 103.814 16.2054 103.307C16.9403 103.576 17.6982 103.875 18.4786 104.208Z" fill="#FEFCEB"/>
<path d="M14.1808 105.569C13.5954 105.217 13.023 104.892 12.4646 104.594C12.2637 104.634 12.0667 104.666 11.8737 104.693C10.9819 104.815 10.1686 104.806 9.4508 104.672C9.79305 104.921 10.1397 105.185 10.4904 105.464C10.6783 105.614 10.8674 105.767 11.0576 105.926C11.9871 105.927 13.031 105.814 14.1808 105.569Z" fill="#FEFCEB"/>
<path d="M15.5231 103.065C14.4489 103.543 13.451 103.871 12.5414 104.063C12.3223 103.947 12.1052 103.836 11.8903 103.729C11.4894 103.529 11.0956 103.343 10.7092 103.17C11.439 103.152 12.2364 102.992 13.083 102.687C13.2666 102.621 13.4527 102.548 13.6413 102.468C14.2496 102.643 14.877 102.841 15.5231 103.065Z" fill="#FEFCEB"/>
<path d="M7.15242 101.418C7.29181 101.64 7.45019 101.843 7.62691 102.026C7.32122 101.937 7.02197 101.858 6.72934 101.789C6.6958 101.671 6.66748 101.549 6.64455 101.424C6.8106 101.419 6.9799 101.417 7.15242 101.418Z" fill="#FEFCEB"/>
<path d="M11.6645 104.182C9.94092 103.322 8.36241 102.729 6.94905 102.364C7.06565 102.602 7.20794 102.818 7.3739 103.012C8.19994 103.978 9.67467 104.463 11.7097 104.204L11.6645 104.182Z" fill="#FEFCEB"/>
<path d="M6.13485 101.447C6.14729 101.522 6.16145 101.595 6.17731 101.668C6.07817 101.648 5.97986 101.63 5.88237 101.612C5.88955 101.563 5.89758 101.513 5.90645 101.463C5.98182 101.457 6.05796 101.452 6.13485 101.447Z" fill="#FEFCEB"/>
<path d="M6.33667 102.219C6.16769 102.182 6.0013 102.148 5.83752 102.118C5.83381 102.246 5.83617 102.371 5.84444 102.493C6.11674 102.622 6.39352 102.761 6.67457 102.912C6.53972 102.696 6.42696 102.464 6.33667 102.219Z" fill="#FEFCEB"/>
<path d="M6.07801 100.944L6.02609 100.947L6.07714 100.929L6.07801 100.944Z" fill="#FEFCEB"/>
<path d="M6.58321 100.919C6.57999 100.869 6.57754 100.819 6.57585 100.768C6.6479 100.747 6.72082 100.726 6.7946 100.705C6.82233 100.776 6.85153 100.845 6.88219 100.913C6.78149 100.914 6.68183 100.916 6.58321 100.919Z" fill="#FEFCEB"/>
<path d="M7.44722 100.916C7.3899 100.808 7.33688 100.694 7.28833 100.576C7.44977 100.537 7.61494 100.5 7.78385 100.465C7.9662 100.653 8.1632 100.819 8.37401 100.961C8.05668 100.938 7.74771 100.923 7.44722 100.916Z" fill="#FEFCEB"/>
<path d="M7.1235 100.096C7.2193 100.072 7.31632 100.049 7.41455 100.027C7.37054 99.9675 7.32768 99.9059 7.28597 99.8428C7.21808 99.8784 7.15112 99.9142 7.08509 99.9503C7.09726 99.9994 7.11006 100.048 7.1235 100.096Z" fill="#FEFCEB"/>
<path d="M9.05459 100.769C8.82392 100.659 8.60581 100.519 8.40253 100.349C9.84193 100.107 11.5254 100.007 13.4498 100.092L13.5011 100.094C11.747 101.158 10.202 101.315 9.05459 100.769Z" fill="#FEFCEB"/>
<path d="M13.849 100.474C14.0147 100.371 14.1815 100.261 14.3493 100.143C14.9807 100.188 15.6356 100.252 16.314 100.336C15.3631 101.027 14.4554 101.555 13.6058 101.932C13.3677 101.864 13.1324 101.801 12.8999 101.741C12.4662 101.628 12.0423 101.528 11.6284 101.44C12.3381 101.27 13.0847 100.948 13.849 100.474Z" fill="#FEFCEB"/>
<path d="M14.9619 99.6843C15.5837 99.7385 16.2267 99.8104 16.8906 99.9011C17.7916 99.1962 18.7275 98.3475 19.6863 97.3446C18.8378 97.3581 18.0233 97.3927 17.2426 97.4464C16.477 98.3416 15.7122 99.0857 14.9619 99.6843Z" fill="#FEFCEB"/>
<path d="M14.336 102.146C15.1942 101.717 16.0969 101.148 17.0318 100.432C17.8066 100.541 18.6105 100.677 19.4432 100.84C18.297 101.622 17.2052 102.257 16.1775 102.759C15.5469 102.532 14.933 102.328 14.336 102.146Z" fill="#FEFCEB"/>
<path d="M17.5764 100C18.3621 100.12 19.1758 100.266 20.0175 100.439C21.2038 99.5933 22.4432 98.5945 23.7254 97.4308C22.5615 97.3656 21.4489 97.3358 20.3873 97.3383C20.2884 97.4448 20.1896 97.5498 20.0911 97.6532C19.236 98.5508 18.3951 99.3314 17.5764 100Z" fill="#FEFCEB"/>
<path d="M19.7753 101.226C19.8931 101.145 20.0114 101.063 20.1302 100.98C21.1688 101.198 22.2506 101.458 23.3752 101.764C21.8794 102.635 20.4597 103.355 19.1237 103.936C18.3366 103.591 17.5711 103.28 16.8277 102.999C17.7675 102.515 18.7523 101.926 19.7753 101.226Z" fill="#FEFCEB"/>
<path d="M20.6847 100.581C21.7408 100.813 22.8393 101.087 23.9797 101.406C25.5965 100.433 27.2987 99.2841 29.0769 97.943C27.4474 97.7269 25.8976 97.5726 24.4269 97.474C23.1365 98.6687 21.8858 99.7006 20.6847 100.581Z" fill="#FEFCEB"/>
<path d="M19.7468 104.213C21.1045 103.601 22.5422 102.852 24.0524 101.952C25.5761 102.384 27.1757 102.898 28.8504 103.502C26.8199 104.462 24.9043 105.244 23.1094 105.869C21.9501 105.253 20.8288 104.703 19.7468 104.213Z" fill="#FEFCEB"/>
<path d="M24.6421 101.595C26.1837 102.044 27.7997 102.575 29.489 103.196C31.7249 102.11 34.0962 100.812 36.5955 99.2762C34.1914 98.7503 31.9217 98.3428 29.7852 98.0401C27.9949 99.4108 26.2775 100.59 24.6421 101.595Z" fill="#FEFCEB"/>
<path d="M23.712 106.192C25.5314 105.541 27.4679 104.731 29.5157 103.745C31.3471 104.423 33.2661 105.206 35.2712 106.106C32.5087 107.067 29.9213 107.827 27.511 108.41C26.2045 107.597 24.9377 106.859 23.712 106.192Z" fill="#FEFCEB"/>
<path d="M30.1428 103.439C31.9967 104.137 33.9368 104.942 35.9618 105.862C39.0738 104.753 42.4032 103.39 45.9472 101.739C42.8972 100.809 40.0163 100.047 37.3031 99.4335C34.7893 100.997 32.4002 102.324 30.1428 103.439Z" fill="#FEFCEB"/>
<path d="M28.1067 108.785C30.5445 108.177 33.1557 107.393 35.9383 106.408C38.5545 107.603 41.3145 108.993 44.2158 110.598C40.4064 111.476 36.867 112.117 33.5929 112.555C31.6966 111.155 29.8666 109.902 28.1067 108.785Z" fill="#FEFCEB"/>
<path d="M46.0552 92.7361C42.9572 95.1066 40.006 97.1479 37.2115 98.8944C34.7901 98.3522 32.5006 97.9283 30.342 97.6095C32.3354 96.0523 34.4167 94.26 36.5736 92.2105C39.5108 92.2502 42.6691 92.4181 46.0552 92.7361Z" fill="#FEFCEB"/>
<path d="M35.8448 92.2032C33.6952 94.2238 31.6246 95.985 29.6454 97.5097C27.995 97.2803 26.4232 97.1131 24.9295 97.0023C26.3376 95.6629 27.7906 94.1308 29.276 92.3914C31.3254 92.2548 33.5139 92.1882 35.8448 92.2032Z" fill="#FEFCEB"/>
<path d="M28.5652 92.442C27.0847 94.1509 25.6393 95.65 24.2422 96.9549C23.06 96.8796 21.9283 96.8401 20.8468 96.8333C21.8547 95.7041 22.8802 94.4115 23.9105 92.9458C25.3714 92.7364 26.9223 92.5664 28.5652 92.442Z" fill="#FEFCEB"/>
<path d="M23.2165 93.0493C22.1872 94.4832 21.1655 95.7411 20.1647 96.8333C19.3054 96.8389 18.4791 96.8655 17.6856 96.9114C18.3473 96.0869 19.0075 95.1486 19.6573 94.0929C19.745 93.9504 19.8325 93.8057 19.9198 93.6589C20.9608 93.4328 22.0593 93.2285 23.2165 93.0493Z" fill="#FEFCEB"/>
<path d="M19.2264 93.8277C18.4877 95.028 17.7387 96.0684 16.9942 96.9569C16.3254 97.0063 15.6812 97.0697 15.0613 97.1461C15.6806 96.3926 16.2834 95.4889 16.8542 94.4324C17.6099 94.2128 18.4035 94.0056 19.2358 93.8125L19.2264 93.8277Z" fill="#FEFCEB"/>
<path d="M16.1591 94.6411C15.5632 95.6799 14.9393 96.5467 14.307 97.2471C14.0625 97.2825 13.8221 97.3201 13.5857 97.3596C13.1438 97.4334 12.7158 97.5144 12.3018 97.6019C12.881 97.1581 13.4322 96.5606 13.9374 95.8163C14.0534 95.6456 14.1671 95.4668 14.2785 95.2801C14.8751 95.0585 15.5018 94.8451 16.1591 94.6411Z" fill="#FEFCEB"/>
<path d="M8.4672 98.3042C8.68632 98.3869 8.90884 98.4484 9.13393 98.4882C8.83435 98.5962 8.54581 98.7084 8.26831 98.8245C8.19185 98.7645 8.1166 98.7006 8.04265 98.6327C8.17934 98.5228 8.32085 98.4133 8.4672 98.3042Z" fill="#FEFCEB"/>
<path d="M13.6691 97.8586C11.7685 98.1763 10.1422 98.6244 8.78426 99.1608C9.01817 99.2844 9.26036 99.3757 9.50856 99.4351C10.7444 99.7305 12.223 99.2564 13.7173 97.8505L13.6691 97.8586Z" fill="#FEFCEB"/>
<path d="M7.65109 98.9597C7.68403 98.9909 7.71727 99.0215 7.75079 99.0514C7.65952 99.0933 7.56958 99.1356 7.48097 99.1784L7.4569 99.1319C7.52035 99.0745 7.58507 99.0171 7.65109 98.9597Z" fill="#FEFCEB"/>
<path d="M8.20315 99.4028C8.04541 99.472 7.89174 99.5425 7.74214 99.6142C7.8141 99.7195 7.88943 99.8192 7.96792 99.9132C8.26295 99.8574 8.56793 99.8078 8.8828 99.7645C8.64724 99.6692 8.42035 99.5484 8.20315 99.4028Z" fill="#FEFCEB"/>
<path d="M14.1368 98.1498C13.4879 98.7727 12.8245 99.2426 12.1657 99.5562C12.5889 99.5567 13.0243 99.5665 13.4719 99.5861C13.7121 99.5967 13.9559 99.61 14.2032 99.6263C14.9558 99.0809 15.7341 98.376 16.5207 97.5023C15.8391 97.5611 15.1847 97.6349 14.5574 97.7225C14.4178 97.8723 14.2775 98.0147 14.1368 98.1498Z" fill="#FEFCEB"/>
<path d="M7.30249 98.5924L7.24036 98.6469C7.22861 98.6166 7.21705 98.5861 7.20569 98.5552L7.23537 98.5124C7.25757 98.5394 7.27995 98.5661 7.30249 98.5924Z" fill="#FEFCEB"/>
<path d="M7.68992 98.2673C7.64062 98.2099 7.59206 98.1505 7.54426 98.0891C7.59001 98.0291 7.63673 97.969 7.6844 97.9087C7.7711 97.9641 7.85857 98.0159 7.94673 98.0642C7.85943 98.1317 7.77382 98.1994 7.68992 98.2673Z" fill="#FEFCEB"/>
<path d="M8.40011 97.7264C8.2686 97.665 8.13784 97.5944 8.00816 97.5144C8.11577 97.388 8.22758 97.261 8.34361 97.1335C8.63201 97.1836 8.91889 97.2004 9.20249 97.1835C8.92216 97.3625 8.65473 97.5436 8.40011 97.7264Z" fill="#FEFCEB"/>
<path d="M7.59239 97.2224C7.65605 97.1472 7.7211 97.0718 7.78755 96.9962C7.71692 96.9737 7.64626 96.9491 7.57561 96.9226C7.54161 96.9913 7.50851 97.0597 7.47632 97.1277C7.51487 97.1602 7.55356 97.1917 7.59239 97.2224Z" fill="#FEFCEB"/>
<path d="M9.55078 96.6322C9.29939 96.6791 9.04048 96.6941 8.77596 96.6762C9.79821 95.634 11.1015 94.5633 12.7083 93.5003L12.7518 93.4715C11.9584 95.3645 10.8002 96.3995 9.55078 96.6322Z" fill="#FEFCEB"/>
<path d="M13.2561 93.5756C13.3299 93.3947 13.4002 93.2071 13.467 93.0131C14.0041 92.6782 14.5715 92.3449 15.1697 92.0142C14.8108 93.1194 14.3922 94.0706 13.9327 94.8693C13.7631 94.9334 13.5958 94.9981 13.431 95.0635C12.9429 95.2571 12.4756 95.4563 12.0289 95.6606C12.5026 95.1063 12.917 94.4078 13.2561 93.5756Z" fill="#FEFCEB"/>
<path d="M13.6927 92.2817C14.2276 91.96 14.79 91.6403 15.3804 91.3234C15.6949 90.2238 15.9532 88.9874 16.1393 87.6129C15.4608 88.1225 14.8222 88.6292 14.2221 89.1315C14.129 90.3054 13.9477 91.3567 13.6927 92.2817Z" fill="#FEFCEB"/>
<path d="M14.6512 94.6072C15.0859 93.763 15.4758 92.7836 15.8065 91.6695C16.4975 91.3032 17.2271 90.9406 17.9962 90.5833C17.5358 91.8684 17.0349 93.0081 16.508 94.0067C15.8616 94.1982 15.2428 94.3987 14.6512 94.6072Z" fill="#FEFCEB"/>
<path d="M15.9936 91.0007C16.6994 90.6362 17.4431 90.276 18.2253 89.9216C18.6876 88.5401 19.1031 87.0039 19.4563 85.3093C18.4769 85.9404 17.5597 86.57 16.7027 87.1957C16.6853 87.34 16.6671 87.483 16.6482 87.6245C16.484 88.853 16.2626 89.9785 15.9936 91.0007Z" fill="#FEFCEB"/>
<path d="M18.4915 90.7005C18.5395 90.566 18.587 90.43 18.634 90.2924C19.6032 89.8582 20.6322 89.4327 21.7225 89.0187C21.0362 90.5766 20.3229 91.9722 19.5962 93.212C18.7519 93.3992 17.9451 93.6008 17.1753 93.8151C17.6414 92.8844 18.0831 91.8467 18.4915 90.7005Z" fill="#FEFCEB"/>
<path d="M18.8484 89.6442C19.8396 89.2104 20.8899 88.786 22.001 88.3738C22.7369 86.6363 23.4388 84.7068 24.089 82.5768C22.6429 83.3602 21.2977 84.1468 20.0493 84.9318C19.7076 86.6564 19.3024 88.226 18.8484 89.6442Z" fill="#FEFCEB"/>
<path d="M20.2631 93.0687C20.9893 91.792 21.6996 90.3621 22.3809 88.7728C23.7649 88.2647 25.2437 87.7752 26.8206 87.3098C25.7578 89.2289 24.6865 90.9474 23.6214 92.4766C22.4444 92.6494 21.3253 92.8479 20.2631 93.0687Z" fill="#FEFCEB"/>
<path d="M22.6481 88.1376C24.0581 87.6312 25.5623 87.1445 27.1637 86.6827C28.3429 84.501 29.5097 82.0697 30.6436 79.3733C28.5096 80.3167 26.5373 81.2749 24.7192 82.2391C24.0765 84.4 23.3805 86.3635 22.6481 88.1376Z" fill="#FEFCEB"/>
<path d="M24.3024 92.3803C25.3719 90.8148 26.4449 89.0618 27.5072 87.1105C29.486 86.5454 31.6144 86.0182 33.898 85.5392C32.2471 87.9137 30.6187 90.0281 29.029 91.9011C27.3632 92.0166 25.7883 92.1784 24.3024 92.3803Z" fill="#FEFCEB"/>
<path d="M27.8407 86.4906C29.8483 85.9301 32.0042 85.4088 34.3137 84.9365C36.1791 82.2101 38.0714 79.151 39.9678 75.7322C36.8332 76.814 33.9533 77.9351 31.3144 79.0797C30.1848 81.807 29.0203 84.2724 27.8407 86.4906Z" fill="#FEFCEB"/>
<path d="M29.729 91.8557C31.3273 89.9467 32.9612 87.798 34.6151 85.3914C37.434 84.8207 40.4836 84.3229 43.7741 83.9165C41.2242 86.8482 38.7519 89.4331 36.374 91.702C34.0194 91.6748 31.8055 91.7298 29.729 91.8557Z" fill="#FEFCEB"/>
<path d="M34.542 68.5183C33.3978 72.2568 32.1828 75.6426 30.9249 78.6973C28.7641 79.6395 26.7638 80.5977 24.9165 81.5634C25.6092 79.1483 26.2357 76.4946 26.7736 73.5918C29.1169 71.9236 31.7008 70.2282 34.542 68.5183Z" fill="#FEFCEB"/>
<path d="M26.1786 74.0185C25.63 76.8919 24.9942 79.5127 24.2942 81.8921C22.8234 82.677 21.4529 83.4661 20.1786 84.2548C20.5262 82.3672 20.7988 80.3018 20.9782 78.0544C22.5565 76.733 24.2868 75.3853 26.1786 74.0185Z" fill="#FEFCEB"/>
<path d="M20.432 78.5158C20.2388 80.7345 19.9534 82.7679 19.5947 84.6205C18.5946 85.2542 17.6562 85.8872 16.7777 86.517C16.9269 85.0352 16.9969 83.4154 16.9725 81.6572C18.0298 80.6303 19.1813 79.582 20.432 78.5158Z" fill="#FEFCEB"/>
<path d="M16.471 82.1496C16.4778 83.881 16.3908 85.4703 16.2258 86.918C15.5339 87.4276 14.8811 87.9348 14.2661 88.4384C14.3167 87.3824 14.2993 86.2352 14.2045 84.9992C14.1936 84.8568 14.1816 84.7132 14.1686 84.5684C14.8772 83.7778 15.6438 82.9709 16.471 82.1496Z" fill="#FEFCEB"/>
<path d="M13.7043 85.0936C13.808 86.4771 13.8125 87.7404 13.7334 88.8816C13.2218 89.3143 12.7381 89.744 12.2818 90.1699C12.339 89.2119 12.2978 88.1456 12.1448 86.9777C12.6273 86.3616 13.1466 85.7332 13.7043 85.0936Z" fill="#FEFCEB"/>
<path d="M11.7033 87.5516C11.8262 88.7207 11.8293 89.7707 11.731 90.6949C11.5537 90.8676 11.3809 91.0396 11.2126 91.2108C10.8979 91.5309 10.5987 91.8486 10.3146 92.1634C10.5228 91.4634 10.6176 90.6554 10.589 89.7556C10.5828 89.561 10.5708 89.3619 10.553 89.1583C10.9077 88.6334 11.2908 88.0976 11.7033 87.5516Z" fill="#FEFCEB"/>
<path d="M7.55045 95.0034C7.80433 94.9393 8.04627 94.8513 8.27499 94.7397C8.09605 95.0032 7.92852 95.2636 7.77223 95.5207C7.6498 95.5162 7.52525 95.5055 7.39871 95.4884C7.44566 95.329 7.49622 95.1673 7.55045 95.0034Z" fill="#FEFCEB"/>
<path d="M11.5734 91.5654C10.2228 92.9394 9.17053 94.2577 8.38728 95.4897C8.64937 95.4522 8.89914 95.3837 9.13499 95.2857C10.3085 94.7983 11.2261 93.5455 11.6087 91.5296L11.5734 91.5654Z" fill="#FEFCEB"/>
<path d="M7.26335 95.9804C7.33828 95.9917 7.41279 96.001 7.48688 96.0084C7.43753 96.0962 7.38953 96.1836 7.34286 96.2705C7.29825 96.2485 7.25358 96.2255 7.20887 96.2016C7.22622 96.1284 7.24438 96.0547 7.26335 95.9804Z" fill="#FEFCEB"/>
<path d="M8.0594 96.0269C7.97234 96.1759 7.88932 96.3235 7.81029 96.4696C7.93022 96.5124 8.04951 96.5487 8.16802 96.5786C8.37396 96.36 8.59153 96.1405 8.82086 95.9204C8.57459 95.9816 8.32034 96.0171 8.0594 96.0269Z" fill="#FEFCEB"/>
<path d="M12.1239 91.5255C11.9651 92.4102 11.7049 93.1798 11.3566 93.8206C11.6987 93.5727 12.0561 93.3251 12.4291 93.0783C12.6298 92.9456 12.835 92.813 13.0448 92.6807C13.333 91.7972 13.5482 90.7699 13.6709 89.6011C13.1545 90.049 12.6688 90.4931 12.213 90.9323C12.1881 91.1357 12.1583 91.3334 12.1239 91.5255Z" fill="#FEFCEB"/>
<path d="M7.09884 96.714L7.11133 96.7202L7.08905 96.7656L7.09884 96.714Z" fill="#FEFCEB"/>
<path d="M6.76713 95.8789L6.75478 95.928L6.75362 95.8754L6.76713 95.8789Z" fill="#FEFCEB"/>
<path d="M6.9001 95.3909C6.85189 95.3786 6.80342 95.3655 6.75472 95.3514C6.75647 95.2762 6.7589 95.2002 6.76202 95.1236C6.83766 95.119 6.91251 95.1127 6.98653 95.1045C6.9565 95.2007 6.92769 95.2962 6.9001 95.3909Z" fill="#FEFCEB"/>
<path d="M6.25365 95.1789L6.25554 95.1276L6.24048 95.127L6.25261 95.1785L6.25365 95.1789Z" fill="#FEFCEB"/>
<path d="M7.16427 94.5681C7.04356 94.5891 6.91948 94.6046 6.79214 94.6143C6.92352 92.9106 7.37766 90.8961 8.23521 88.6036C8.55156 87.7579 8.92249 86.8753 9.35179 85.9574C9.71507 87.0754 9.93627 88.1018 10.0321 89.0263C9.89497 89.2316 9.76205 89.4352 9.63332 89.6372C8.49991 91.4156 7.6889 93.0697 7.16427 94.5681Z" fill="#FEFCEB"/>
<path d="M7.76137 88.4264C8.13614 87.4245 8.5858 86.373 9.11624 85.2745C8.72427 84.1995 8.20617 83.0467 7.54842 81.8246C6.88963 83.9678 6.4434 85.9308 6.17779 87.706C5.76192 90.4856 5.79012 92.7962 6.13261 94.6142C6.18355 94.6178 6.23406 94.6207 6.28415 94.6227C6.41536 92.8488 6.88452 90.7704 7.76137 88.4264Z" fill="#FEFCEB"/>
<path d="M10.4618 88.3981C10.3187 87.4491 10.0568 86.4147 9.66435 85.3041C10.0084 84.6007 10.3859 83.8777 10.7987 83.1356C11.1878 84.4673 11.4549 85.7021 11.6148 86.8348C11.2039 87.3649 10.8199 87.8862 10.4618 88.3981Z" fill="#FEFCEB"/>
<path d="M9.42258 84.6529C9.77973 83.9424 10.1701 83.213 10.5951 82.4656C10.1569 81.0756 9.58977 79.5878 8.87903 78.0085C8.45717 79.0957 8.08489 80.1451 7.75899 81.1559C7.82976 81.2829 7.89908 81.4092 7.96698 81.5349C8.5566 82.6259 9.03926 83.6673 9.42258 84.6529Z" fill="#FEFCEB"/>
<path d="M11.2684 82.9393C11.2281 82.8023 11.1865 82.6643 11.1437 82.5254C11.6724 81.6048 12.2545 80.6561 12.8929 79.6808C13.2595 81.3729 13.5048 82.9455 13.6445 84.3959C13.0736 85.0382 12.5405 85.6701 12.0437 86.2905C11.8736 85.2471 11.6181 84.1286 11.2684 82.9393Z" fill="#FEFCEB"/>
<path d="M10.9362 81.8749C11.4828 80.9417 12.0829 79.9814 12.7392 78.9953C12.3131 77.1565 11.7466 75.1823 11.0204 73.0762C10.3111 74.5595 9.68532 75.9861 9.1369 77.3546C9.8746 78.9514 10.4697 80.4601 10.9362 81.8749Z" fill="#FEFCEB"/>
<path d="M14.1009 83.889C13.9387 82.4085 13.6705 80.8095 13.281 79.0948C14.102 77.8702 15.0107 76.6049 16.0128 75.3015C16.2851 77.512 16.4288 79.5604 16.4632 81.4471C15.6162 82.2753 14.8296 83.0899 14.1009 83.889Z" fill="#FEFCEB"/>
<path d="M13.1238 78.4238C13.9669 77.1853 14.8977 75.9074 15.9218 74.5926C15.5934 72.1338 15.1081 69.4805 14.4404 66.6318C13.2684 68.6494 12.2359 70.5839 11.3317 72.4326C12.0822 74.5593 12.6735 76.5575 13.1238 78.4238Z" fill="#FEFCEB"/>
<path d="M16.9583 80.9681C16.9058 79.0494 16.7429 76.9724 16.4511 74.7367C17.7196 73.1168 19.1312 71.4396 20.6967 69.7102C20.7574 72.6348 20.6804 75.3305 20.4904 77.8033C19.2158 78.8762 18.04 79.9323 16.9583 80.9681Z" fill="#FEFCEB"/>
<path d="M16.3566 74.0392C17.651 72.406 19.0883 70.7174 20.6787 68.9782C20.5853 65.6756 20.3182 62.088 19.8428 58.2068C17.943 60.924 16.2724 63.5234 14.8104 66C15.4999 68.8711 16.007 71.5507 16.3566 74.0392Z" fill="#FEFCEB"/>
<path d="M21.0308 77.3525C21.2062 74.8461 21.2673 72.1202 21.19 69.1691C23.1355 67.0498 25.3108 64.8538 27.7348 62.5901C27.3929 66.4848 26.9084 70.0493 26.3132 73.2988C24.395 74.6699 22.6372 76.0235 21.0308 77.3525Z" fill="#FEFCEB"/>
<path d="M4.53516 101.944C4.61487 101.973 4.69504 102.003 4.77569 102.034C4.78325 102.012 4.79099 101.99 4.79889 101.968C4.71007 101.959 4.62213 101.951 4.53516 101.944Z" fill="#FEFCEB"/>
<path d="M5.1579 104.424C5.00144 103.896 4.98111 103.321 5.10969 102.716C5.19624 102.754 5.28335 102.792 5.37103 102.832C5.43421 103.272 5.56948 103.686 5.77625 104.066C6.50563 105.406 8.07759 106.243 10.2727 106.403C10.4673 106.417 10.667 106.426 10.8719 106.43C11.4114 106.883 11.9606 107.373 12.5184 107.901C11.0555 107.885 9.79692 107.702 8.7519 107.388C6.72555 106.779 5.53437 105.693 5.1579 104.424Z" fill="#FEFCEB"/>
<path d="M5.24523 102.224L5.32959 102.26C5.32922 102.186 5.33073 102.111 5.33412 102.035L5.31456 102.032C5.28984 102.096 5.26673 102.16 5.24523 102.224Z" fill="#FEFCEB"/>
<path d="M6.22063 103.824C6.09856 103.599 6.00431 103.358 5.93965 103.101C7.24672 103.752 8.6678 104.66 10.1754 105.86L10.2147 105.891C8.16986 105.722 6.828 104.94 6.22063 103.824Z" fill="#FEFCEB"/>
<path d="M6.63439 100.225L6.58678 100.238L6.63074 100.211L6.63439 100.225Z" fill="#FEFCEB"/>
<path d="M20.5939 110.194C18.8478 110.402 17.2295 110.502 15.7401 110.508C16.4587 111.316 17.1866 112.184 17.9217 113.113C19.8017 113.276 21.8538 113.347 24.0807 113.307C22.8893 112.174 21.7259 111.138 20.5939 110.194Z" fill="#FEFCEB"/>
<path d="M7.27241 97.6141L7.24314 97.6514L7.26218 97.606L7.27241 97.6141Z" fill="#FEFCEB"/>
<path d="M10.06 89.9091L10.0859 89.8684C10.1305 91.9189 9.49347 93.3345 8.4472 94.055C8.23724 94.1996 8.0076 94.3184 7.75953 94.4095C8.26952 93.0418 9.02462 91.5336 10.06 89.9091Z" fill="#FEFCEB"/>
<path d="M8.98084 97.9369C10.1881 97.1081 11.6828 96.3112 13.4803 95.5886C12.3074 97.2899 10.9534 98.068 9.67752 98.0358C9.44539 98.0299 9.21262 97.9972 8.98084 97.9369Z" fill="#FEFCEB"/>
<path d="M12.7732 102.23L12.8218 102.243C10.8847 102.92 9.34098 102.751 8.33214 101.979C8.12939 101.824 7.94516 101.642 7.78166 101.433C9.24019 101.496 10.908 101.748 12.7732 102.23Z" fill="#FEFCEB"/>
<path d="M48.3645 28.5264C48.3645 34.6481 42.0418 96.47 38.0928 126.984C49.3097 112.7 78.0453 119.842 80.8181 120.296C101.803 86.6828 66.8914 51.8796 48.3645 28.5264Z" fill="#456444"/>
<path d="M39.002 124.427C43.9873 93.9268 49.0078 38.2735 48.9873 30.9268C50.9993 33.4629 53.1693 35.4762 55.4813 38.2735C57.5943 40.83 59.7914 43.4884 61.9977 46.2355C61.6638 46.1198 61.3261 46.0047 60.9845 45.8903L60.3871 45.6903L60.68 46.2481C61.8702 48.5144 63.0627 50.5832 64.2471 52.4667C61.6847 51.8958 58.8704 51.4042 55.7912 51.0162L55.1452 50.9349L55.5666 51.4312C57.2289 53.3894 58.8499 55.158 60.4223 56.7506C57.8488 56.7315 55.056 56.8369 52.0369 57.0914L51.3881 57.1461L51.9035 57.544C53.9366 59.1139 55.8899 60.5068 57.759 61.7376C55.2378 62.254 52.528 62.9377 49.6277 63.8144L49.0045 64.0028L49.5913 64.2849C51.9064 65.3977 54.1066 66.3541 56.1908 67.1694C53.8321 68.1987 51.3236 69.4309 48.669 70.8914L48.0985 71.2053L48.7312 71.3592C51.1334 71.9435 53.4015 72.4083 55.5371 72.767C53.4595 74.2742 51.2801 76.0122 49.0078 78.0053L48.5288 78.4255L49.1656 78.4486C51.7972 78.5439 54.2515 78.5357 56.5344 78.4397C54.8072 80.3317 53.0262 82.4673 51.2052 84.8682L50.8118 85.3869L51.4523 85.2702C53.9793 84.8097 56.3215 84.2902 58.4868 83.7247C57.1836 85.9439 55.8784 88.4152 54.5893 91.1571L54.3123 91.7463L54.9146 91.499C57.2907 90.5231 59.4736 89.528 61.4741 88.5247C60.6607 90.9663 59.8979 93.655 59.2071 96.605L59.0586 97.2389L59.5963 96.8718C61.7175 95.4232 63.6459 93.996 65.394 92.5987C65.1061 95.156 64.9189 97.9446 64.8565 100.974L64.8431 101.625L65.2927 101.154C67.0664 99.2959 68.6559 97.4989 70.0753 95.7687C70.3254 98.33 70.7221 101.096 71.2908 104.072L71.4131 104.712L71.7549 104.158C73.1036 101.972 74.2847 99.8836 75.3134 97.8961C76.0905 100.349 77.0538 102.973 78.2288 105.766L78.4813 106.366L78.7005 105.753C79.5652 103.334 80.2864 101.046 80.8793 98.8879C82.1496 101.126 83.6372 103.492 85.3672 105.979L85.739 106.514L85.8259 105.869C86.1689 103.323 86.3985 100.935 86.5299 98.7009C86.5965 98.776 86.6636 98.8513 86.731 98.9267C86.5556 105.696 84.7197 112.647 80.4873 119.427C68.9873 116.927 50.4873 113.927 39.002 124.427Z" fill="#FEFCEB"/>
<path d="M86.659 95.218C86.7219 96.2031 86.7507 97.1899 86.7434 98.1781C86.685 98.1118 86.6269 98.0457 86.5692 97.9797C86.6167 97.0307 86.6462 96.1102 86.659 95.218Z" fill="#FEFCEB"/>
<path d="M82.7989 79.042C84.2469 82.6744 85.3593 86.3592 86.0283 90.0774C86.0649 90.6287 86.0942 91.1944 86.1158 91.7744C84.9112 90.6285 83.8533 89.5143 82.9313 88.4401C83.2734 85.2164 83.2496 82.4638 82.967 80.179C82.9185 79.7864 82.8623 79.4074 82.7989 79.042Z" fill="#FEFCEB"/>
<path d="M77.8356 68.8108C77.9425 68.9998 78.0488 69.189 78.1544 69.3784C77.2503 69.3503 76.2493 69.2409 75.1544 69.0362C76.2165 68.623 77.125 68.575 77.8356 68.8108Z" fill="#FEFCEB"/>
<path d="M77.0405 67.4305C77.1644 67.642 77.2876 67.8538 77.4099 68.0659C76.9319 67.9066 76.435 67.7206 75.9201 67.5064C76.323 67.4407 76.6968 67.4168 77.0405 67.4305Z" fill="#FEFCEB"/>
<path d="M76.3306 66.2361C76.4682 66.4645 76.6049 66.6931 76.7407 66.922C76.3678 66.9295 75.9729 66.9743 75.5591 67.0577C75.416 67.0865 75.2703 67.1199 75.1222 67.1581C74.7232 66.9759 74.3145 66.7775 73.8965 66.5623C74.755 66.3323 75.5382 66.2064 76.2392 66.1713C76.2697 66.193 76.3002 66.2147 76.3306 66.2361Z" fill="#FEFCEB"/>
<path d="M75.3889 64.7004C75.4679 64.8271 75.5466 64.9539 75.625 65.0807C75.4697 64.9595 75.3134 64.8348 75.156 64.7065C75.2344 64.7038 75.312 64.7018 75.3889 64.7004Z" fill="#FEFCEB"/>
<path d="M74.4343 63.1935C74.6502 63.5292 74.8645 63.8656 75.077 64.2028C74.916 64.2091 74.7523 64.2182 74.5857 64.2301C74.2066 63.9056 73.8221 63.5609 73.4326 63.1954C73.7767 63.1873 74.1106 63.1868 74.4343 63.1935Z" fill="#FEFCEB"/>
<path d="M73.0585 61.0975C73.4109 61.624 73.7596 62.1525 74.1042 62.6829C73.7968 62.6813 73.4813 62.6858 73.1577 62.6968C73.0793 62.6995 73.0003 62.7025 72.9209 62.706C72.3698 62.1688 71.8094 61.5903 71.2413 60.9688C71.8726 60.997 72.4783 61.0403 73.0585 61.0975Z" fill="#FEFCEB"/>
<path d="M71.0714 58.2017C71.6193 58.9815 72.1607 59.7662 72.694 60.5555C72.0789 60.5029 71.4373 60.4653 70.769 60.4443C70.0496 59.633 69.3185 58.7531 68.5786 57.801C69.4478 57.9183 70.2786 58.0525 71.0714 58.2017Z" fill="#FEFCEB"/>
<path d="M67.9709 53.9241C68.8777 55.1399 69.7741 56.3692 70.6546 57.6111C69.8539 57.4697 69.0169 57.3433 68.1432 57.2338C67.2207 56.0168 66.2853 54.6877 65.3427 53.2398C66.2528 53.4582 67.1287 53.6868 67.9709 53.9241Z" fill="#FEFCEB"/>
<path d="M62.5959 46.9822C64.2311 49.0291 65.8676 51.1241 67.4748 53.2617C66.6621 53.0413 65.8198 52.8291 64.9473 52.6262C63.7798 50.7956 62.6024 48.7823 61.4251 46.5739C61.8208 46.7091 62.211 46.8452 62.5959 46.9822Z" fill="#FEFCEB"/>
<path d="M56.3788 51.6026C59.3883 52.001 62.135 52.4993 64.632 53.0729C65.5782 54.548 66.5185 55.9053 67.4476 57.151C65.5199 56.9339 63.4206 56.7973 61.1445 56.7592C59.6032 55.2174 58.0123 53.503 56.3788 51.6026Z" fill="#FEFCEB"/>
<path d="M61.666 57.2762C63.9119 57.3295 65.9779 57.4804 67.8695 57.7101C68.6155 58.687 69.3538 59.5921 70.0815 60.4286C68.6101 60.4079 67.0162 60.4653 65.2989 60.6147C64.1239 59.6102 62.9117 58.4999 61.666 57.2762Z" fill="#FEFCEB"/>
<path d="M65.8467 61.0776C67.536 60.9466 69.0988 60.907 70.5363 60.9441C71.1112 61.5865 71.6791 62.1859 72.2386 62.7441C71.1054 62.8218 69.881 62.9747 68.567 63.214C67.6858 62.5666 66.7784 61.8557 65.8467 61.0776Z" fill="#FEFCEB"/>
<path d="M69.1386 63.6277C70.4279 63.4102 71.6242 63.2789 72.7259 63.222C73.118 63.5999 73.5057 63.9573 73.8885 64.295C73.0634 64.3889 72.1766 64.5487 71.2316 64.7817C71.1376 64.8048 71.0429 64.8288 70.9477 64.8534C70.3586 64.4755 69.7553 64.0673 69.1386 63.6277Z" fill="#FEFCEB"/>
<path d="M71.5419 65.2274C72.5814 64.9801 73.541 64.8254 74.4169 64.7511C74.8235 65.0946 75.2241 65.4154 75.6182 65.7143C74.8927 65.7956 74.1016 65.9616 73.2512 66.2206C72.6966 65.9189 72.1265 65.5883 71.5419 65.2274Z" fill="#FEFCEB"/>
<path d="M74.708 68.6723C74.574 68.7303 74.4385 68.7933 74.3016 68.8614C73.8733 68.7661 73.4324 68.6571 72.9788 68.5335C73.7279 68.1518 74.4305 67.8752 75.0786 67.694C75.2477 67.7698 75.4151 67.8428 75.5808 67.913C75.8259 68.0168 76.0673 68.1145 76.3052 68.2062C75.8011 68.2762 75.2654 68.4313 74.708 68.6723Z" fill="#FEFCEB"/>
<path d="M73.6366 69.2262C73.215 69.1234 72.7822 69.008 72.3385 68.8792C71.6086 69.2952 70.8396 69.8068 70.0383 70.4224C70.633 70.4988 71.2077 70.5586 71.7624 70.6027C72.4048 70.0455 73.0321 69.5881 73.6366 69.2262Z" fill="#FEFCEB"/>
<path d="M74.3959 67.3766C73.7294 67.605 73.0207 67.9219 72.2765 68.3334C71.7431 68.1749 71.1933 67.997 70.6275 67.7986C71.5394 67.3631 72.398 67.0225 73.1983 66.7674C73.6056 66.9856 74.0049 67.1885 74.3959 67.3766Z" fill="#FEFCEB"/>
<path d="M71.678 68.6803C71.1332 68.5102 70.5728 68.3207 69.9969 68.1107C69.0331 68.6042 68.0158 69.1997 66.9507 69.9067C67.7784 70.0749 68.575 70.214 69.3402 70.3263C69.4219 70.261 69.5034 70.1967 69.5845 70.1334C70.3054 69.5712 71.0048 69.0883 71.678 68.6803Z" fill="#FEFCEB"/>
<path d="M70.2438 67.4215C70.1513 67.4666 70.0582 67.5125 69.9647 67.5594C69.1602 67.2611 68.3248 66.9224 67.4594 66.5404C68.6664 66.0602 69.802 65.6836 70.8623 65.3994C71.4535 65.7742 72.0308 66.1191 72.5937 66.4355C71.8503 66.6946 71.0658 67.0216 70.2438 67.4215Z" fill="#FEFCEB"/>
<path d="M69.3598 67.8724C68.54 67.5582 67.6903 67.2033 66.8115 66.8053C65.4961 67.3576 64.1001 68.0301 62.6284 68.8363C63.8968 69.2033 65.1075 69.5098 66.2602 69.7612C67.3401 69.0241 68.3752 68.3974 69.3598 67.8724Z" fill="#FEFCEB"/>
<path d="M70.2928 65.0319C69.2061 65.3428 68.0474 65.7465 66.8206 66.2531C65.9009 65.8318 64.9486 65.3626 63.9645 64.8422C65.5592 64.3719 67.0531 64.0129 68.4443 63.7515C69.0737 64.2097 69.6901 64.6361 70.2928 65.0319Z" fill="#FEFCEB"/>
<path d="M66.1914 66.5195C65.2521 66.0791 64.2807 65.5902 63.2782 65.0497C61.4872 65.6038 59.5739 66.2957 57.5407 67.1437C59.0772 67.7178 60.5461 68.2127 61.947 68.635C63.436 67.801 64.8524 67.1001 66.1914 66.5195Z" fill="#FEFCEB"/>
<path d="M67.8912 63.3431C66.4707 63.6271 64.9505 64.0095 63.3324 64.5033C61.9743 63.7652 60.5577 62.9311 59.0848 61.9931C61.2498 61.5864 63.2652 61.3074 65.1322 61.1378C66.0758 61.939 66.9962 62.6728 67.8912 63.3431Z" fill="#FEFCEB"/>
<path d="M62.6614 64.7128C61.2851 63.9512 59.8519 63.0936 58.3639 62.1322C55.8993 62.6201 53.2463 63.2711 50.403 64.1111C52.6682 65.1828 54.8189 66.1019 56.8541 66.8835C58.9073 66.0102 60.8439 65.2924 62.6614 64.7128Z" fill="#FEFCEB"/>
<path d="M64.599 60.68C62.7007 60.8691 60.6572 61.1685 58.4673 61.5959C56.6391 60.4082 54.7265 59.0621 52.7336 57.5428C55.6893 57.3123 58.4197 57.2271 60.9319 57.2623C62.1875 58.512 63.4111 59.6489 64.599 60.68Z" fill="#FEFCEB"/>
<path d="M49.489 71.0204C52.0955 69.6076 54.5552 68.4192 56.8645 67.4296C58.4235 68.0239 59.9159 68.5382 61.3413 68.9793C59.6849 69.9347 57.9418 71.0525 56.118 72.3497C54.0396 72.0134 51.8306 71.5748 49.489 71.0204Z" fill="#FEFCEB"/>
<path d="M56.8359 72.4626C58.6457 71.1943 60.3718 70.1066 62.0078 69.1817C63.2934 69.5647 64.5227 69.887 65.6954 70.154C64.5133 70.9913 63.28 71.959 62.0027 73.0682C60.383 72.94 58.6612 72.7413 56.8359 72.4626Z" fill="#FEFCEB"/>
<path d="M62.718 73.1207C63.9835 72.0424 65.2022 71.1068 66.3669 70.3022C67.2132 70.4829 68.0288 70.6343 68.8136 70.7582C67.9596 71.4764 67.0775 72.3046 66.1744 73.2502C65.0811 73.2443 63.9291 73.2026 62.718 73.1207Z" fill="#FEFCEB"/>
<path d="M66.8801 73.2489C67.7749 72.336 68.6462 71.5419 69.4863 70.8588C70.0933 70.9445 70.6809 71.0133 71.2491 71.0664C70.6754 71.6055 70.0917 72.2233 69.5035 72.923C69.4372 73.0018 69.3709 73.0816 69.3046 73.1625C68.5328 73.2118 67.7247 73.2413 66.8801 73.2489Z" fill="#FEFCEB"/>
<path d="M70.0074 73.1114C70.6633 72.3427 71.3091 71.6823 71.9365 71.1237C72.3973 71.1574 72.8446 71.1803 73.2783 71.1932C72.7624 71.6729 72.2438 72.2507 71.7313 72.9292C71.1796 73.0014 70.605 73.0625 70.0074 73.1114Z" fill="#FEFCEB"/>
<path d="M72.4543 72.8264C72.9834 72.173 73.5128 71.6345 74.0311 71.2054C74.2164 71.2059 74.399 71.2045 74.579 71.2012C74.845 71.1963 75.1054 71.1874 75.3599 71.1745C74.9279 71.4435 74.5016 71.803 74.0904 72.2499C73.9916 72.3573 73.8934 72.47 73.796 72.5879C73.3661 72.6751 72.9189 72.7548 72.4543 72.8264Z" fill="#FEFCEB"/>
<path d="M78.6681 70.9679C78.5569 70.9044 78.4432 70.8487 78.3271 70.8008C78.4904 70.7657 78.6499 70.7285 78.8058 70.6893C78.8472 70.7341 78.8877 70.7808 78.9273 70.8294C78.8427 70.876 78.7563 70.9221 78.6681 70.9679Z" fill="#FEFCEB"/>
<path d="M74.7235 70.6917C76.0944 70.658 77.296 70.5126 78.3285 70.2822C78.1979 70.1964 78.0617 70.1253 77.9208 70.0686C77.0669 69.7256 75.9575 69.8825 74.7235 70.6917Z" fill="#FEFCEB"/>
<path d="M74.2112 70.4287C74.7063 70.077 75.198 69.814 75.6766 69.6407C75.4249 69.6004 75.1684 69.555 74.9071 69.5045C74.7304 69.4703 74.5514 69.4337 74.3703 69.3947C73.7741 69.7066 73.1443 70.1233 72.4909 70.6524C72.9603 70.6789 73.4143 70.6939 73.853 70.6981C73.9727 70.603 74.0922 70.5132 74.2112 70.4287Z" fill="#FEFCEB"/>
<path d="M77.6441 71.1265C77.7937 71.1526 77.9418 71.1938 78.0873 71.2506C77.1253 71.6906 75.9802 72.0827 74.6463 72.4007C75.685 71.3526 76.7375 70.9685 77.6441 71.1265Z" fill="#FEFCEB"/>
<path d="M72.0099 73.4027C72.4677 73.3398 72.91 73.2693 73.3369 73.1917C72.9252 73.7778 72.5319 74.4638 72.1666 75.2503C71.6398 75.4391 71.0879 75.6215 70.5101 75.7963C71.0001 74.888 71.5034 74.0917 72.0099 73.4027Z" fill="#FEFCEB"/>
<path d="M74.0757 73.0472C73.6516 73.5827 73.2396 74.231 72.8528 74.9951C73.295 74.8247 73.7178 74.6497 74.1216 74.4707C74.196 74.3271 74.2725 74.189 74.351 74.0565C74.6602 73.5339 75.0025 73.0935 75.3691 72.7406C75.1228 72.8061 74.87 72.869 74.6108 72.9291C74.4355 72.9698 74.2571 73.0091 74.0757 73.0472Z" fill="#FEFCEB"/>
<path d="M70.1846 76.4205C70.7772 76.2494 71.3446 76.0704 71.8873 75.8846C71.589 76.5996 71.3128 77.3879 71.0647 78.25C71.0363 78.3489 71.0082 78.4488 70.9805 78.5497C70.2955 78.9086 69.5693 79.2643 68.8007 79.6147C69.2393 78.4371 69.7038 77.3737 70.1846 76.4205Z" fill="#FEFCEB"/>
<path d="M72.5388 75.6539C72.1992 76.4102 71.8836 77.2638 71.6017 78.2171C72.1278 77.9294 72.6279 77.6399 73.1026 77.3495C73.2921 76.5325 73.5269 75.8027 73.7984 75.161C73.3956 75.3295 72.9758 75.4939 72.5388 75.6539Z" fill="#FEFCEB"/>
<path d="M68.5609 80.2779C69.3518 79.9267 70.1006 79.5697 70.8084 79.2086C70.5396 80.2917 70.3127 81.4802 70.138 82.7759C69.25 83.4139 68.2935 84.0572 67.2656 84.7029C67.6556 83.0867 68.0916 81.6134 68.5609 80.2779Z" fill="#FEFCEB"/>
<path d="M71.4117 78.8946C71.1335 79.9411 70.8954 81.0956 70.7081 82.3601C71.387 81.8575 72.0233 81.3587 72.6188 80.8652C72.6249 80.7607 72.6316 80.6572 72.6389 80.5545C72.7035 79.6427 72.8126 78.7997 72.9599 78.0264C72.469 78.3175 71.9531 78.6072 71.4117 78.8946Z" fill="#FEFCEB"/>
<path d="M67.102 85.401C68.1556 84.7511 69.1379 84.1026 70.052 83.4585C69.8831 84.8972 69.7771 86.4612 69.7467 88.1527C68.625 89.2163 67.394 90.3058 66.0467 91.4168C66.329 89.232 66.6864 87.2291 67.102 85.401Z" fill="#FEFCEB"/>
<path d="M70.6113 83.0587C70.43 84.4626 70.3098 85.9943 70.2643 87.6563C71.1356 86.811 71.9374 85.9829 72.6733 85.1742C72.5749 83.8705 72.5497 82.6607 72.5874 81.5455C71.9701 82.0458 71.312 82.5507 70.6113 83.0587Z" fill="#FEFCEB"/>
<path d="M65.9562 92.1453C67.3304 91.0273 68.5889 89.9292 69.7385 88.8556C69.7281 90.7632 69.8123 92.8269 70.0085 95.0495C68.6362 96.7435 67.0975 98.5049 65.3783 100.328C65.4579 97.3644 65.6586 94.6401 65.9562 92.1453Z" fill="#FEFCEB"/>
<path d="M70.2495 88.3731C70.2231 90.2477 70.2899 92.2812 70.4681 94.4769C71.5549 93.1101 72.5324 91.7884 73.4085 90.5149C73.0865 88.854 72.8651 87.3022 72.7311 85.8598C71.971 86.6799 71.145 87.5184 70.2495 88.3731Z" fill="#FEFCEB"/>
<path d="M71.6669 103.332C71.1287 100.417 70.7586 97.7104 70.531 95.2083C71.6427 93.829 72.6454 92.4933 73.5466 91.2041C73.9331 93.0722 74.4445 95.0732 75.0985 97.2065C74.1084 99.1488 72.9696 101.192 71.6669 103.332Z" fill="#FEFCEB"/>
<path d="M75.429 96.5508C74.7982 94.4402 74.31 92.465 73.9462 90.6259C74.6443 89.6038 75.278 88.6118 75.851 87.6515C76.2819 89.0346 76.8212 90.5065 77.4814 92.0641C76.8893 93.4919 76.2078 94.988 75.429 96.5508Z" fill="#FEFCEB"/>
<path d="M77.7524 91.4C77.118 89.8632 76.6047 88.415 76.1994 87.0588C76.6328 86.3097 77.0288 85.5808 77.3891 84.8727C77.8083 85.9068 78.3234 87.0017 78.9436 88.1527C78.6002 89.1908 78.2045 90.2734 77.7524 91.4Z" fill="#FEFCEB"/>
<path d="M76.0037 86.3813C76.4194 85.646 76.7979 84.9314 77.1411 84.2384C77.1042 84.1405 77.0682 84.0431 77.0331 83.9464C76.7213 83.0871 76.4781 82.2727 76.2981 81.5063C75.968 81.9719 75.6146 82.4463 75.2369 82.9292C75.4084 83.9983 75.6604 85.1499 76.0037 86.3813Z" fill="#FEFCEB"/>
<path d="M79.1605 87.4812C78.5687 86.3481 78.0828 85.2741 77.6927 84.264C77.9618 83.7132 78.2089 83.1756 78.4349 82.6516C78.7703 83.3638 79.1775 84.1099 79.6612 84.8855C79.7157 84.9729 79.7711 85.0606 79.8275 85.1487C79.6359 85.898 79.4142 86.6756 79.1605 87.4812Z" fill="#FEFCEB"/>
<path d="M77.4482 83.6042C77.7047 83.0622 77.9391 82.534 78.1525 82.0201C77.8211 81.237 77.58 80.499 77.4225 79.8123C77.1945 80.1815 76.951 80.5574 76.6914 80.9397C76.8614 81.7623 77.1104 82.6518 77.4482 83.6042Z" fill="#FEFCEB"/>
<path d="M79.9961 84.4645C79.4676 83.6032 79.0392 82.7849 78.7018 82.0155C79.0564 81.1457 79.3516 80.3153 79.5921 79.5263C80.1517 77.6904 80.4166 76.0719 80.4391 74.6972L80.4554 74.6971C80.7981 76.0742 80.9267 77.8407 80.7409 79.9863C80.6241 81.3341 80.3836 82.8281 79.9961 84.4645Z" fill="#FEFCEB"/>
<path d="M79.1078 79.3787C79.651 77.5966 79.905 76.0431 79.932 74.7383C79.8701 74.7482 79.8093 74.76 79.7498 74.7735C79.4135 75.9557 78.8661 77.2685 78.0798 78.6899C77.9927 78.8474 77.9026 79.0063 77.8095 79.1666C77.9219 79.83 78.1236 80.5577 78.4249 81.3426C78.6898 80.661 78.9166 80.0061 79.1078 79.3787Z" fill="#FEFCEB"/>
<path d="M81.2453 80.03C81.4134 78.0893 81.3312 76.4309 81.0578 75.0701C81.6924 76.352 82.1963 78.0719 82.4646 80.2411C82.7277 82.369 82.7631 84.921 82.477 87.9008C81.6626 86.9155 80.9639 85.966 80.3724 85.059C80.8339 83.2126 81.115 81.5344 81.2453 80.03Z" fill="#FEFCEB"/>
<path d="M80.202 85.7175C80.827 86.6419 81.5585 87.6058 82.4045 88.6027C82.2844 89.6895 82.1225 90.8308 81.9144 92.0267C80.9744 90.6554 80.1712 89.3456 79.4927 88.1032C79.761 87.2804 79.9967 86.4851 80.202 85.7175Z" fill="#FEFCEB"/>
<path d="M82.8542 89.1234C82.7213 90.2336 82.5459 91.3976 82.3238 92.6154C83.4042 94.1475 84.6536 95.7533 86.0883 97.4249C86.1642 95.6804 86.1782 94.0365 86.1384 92.4913C84.9017 91.3369 83.8104 90.2115 82.8542 89.1234Z" fill="#FEFCEB"/>
<path d="M79.2752 88.7555C79.9843 90.0187 80.8178 91.3463 81.7875 92.7326C81.5051 94.2524 81.1496 95.8574 80.7127 97.5481C79.6568 95.6147 78.7687 93.7842 78.0304 92.0609C78.5008 90.9159 78.9144 89.8139 79.2752 88.7555Z" fill="#FEFCEB"/>
<path d="M82.194 93.3061C81.895 94.8504 81.5222 96.4785 81.0677 98.1907C82.2933 100.384 83.7323 102.706 85.4098 105.15C85.7291 102.665 85.9386 100.335 86.053 98.1583C84.588 96.4755 83.3069 94.8555 82.194 93.3061Z" fill="#FEFCEB"/>
<path d="M77.7598 92.7095C78.5263 94.4565 79.4425 96.3074 80.5257 98.2581C79.9611 100.364 79.2719 102.599 78.4428 104.964C77.3102 102.224 76.3854 99.6534 75.6426 97.2532C76.4432 95.673 77.1463 94.1579 77.7598 92.7095Z" fill="#FEFCEB"/>
<path d="M78.6388 71.5496C78.6721 71.5731 78.7052 71.5975 78.738 71.6229C78.6608 71.6925 78.5814 71.762 78.4998 71.8315C78.3983 71.8015 78.2963 71.777 78.1938 71.7581C78.3462 71.6899 78.4945 71.6203 78.6388 71.5496Z" fill="#FEFCEB"/>
<path d="M79.0296 72.0415C79.0581 72.0161 79.0864 71.9906 79.1144 71.9652C79.1223 71.9736 79.1302 71.982 79.138 71.9905C79.1479 72.0012 79.1578 72.012 79.1677 72.0229C79.1583 72.0367 79.1489 72.0506 79.1394 72.0645C79.1337 72.0728 79.128 72.0811 79.1223 72.0895C79.0915 72.0729 79.0606 72.0569 79.0296 72.0415Z" fill="#FEFCEB"/>
<path d="M78.6028 72.4043C78.6761 72.434 78.7493 72.4674 78.8224 72.5044C78.764 72.5813 78.7038 72.6586 78.6418 72.7363C78.4906 72.7212 78.3405 72.7174 78.1919 72.7251C78.3337 72.6186 78.4707 72.5116 78.6028 72.4043Z" fill="#FEFCEB"/>
<path d="M79.2568 72.7692C79.2385 72.7936 79.22 72.818 79.2013 72.8425L79.2395 72.8533C79.2498 72.8284 79.26 72.8035 79.27 72.7788L79.2568 72.7692Z" fill="#FEFCEB"/>
<path d="M77.7709 73.2977C77.9182 73.2606 78.0702 73.2381 78.2263 73.2308C77.5264 74.024 76.6398 74.848 75.5505 75.681C76.0732 74.3011 76.8785 73.522 77.7709 73.2977Z" fill="#FEFCEB"/>
<path d="M74.9814 75.7694C74.9348 75.9077 74.891 76.0506 74.8499 76.1979C74.4926 76.4524 74.1165 76.7071 73.7212 76.9615C73.9363 76.1584 74.1975 75.4579 74.4924 74.8595C74.6133 74.8049 74.7325 74.75 74.85 74.6947C75.1443 74.5562 75.4283 74.4156 75.7021 74.273C75.4175 74.6939 75.1749 75.195 74.9814 75.7694Z" fill="#FEFCEB"/>
<path d="M74.6761 76.9362C74.3176 77.1807 73.9423 77.4251 73.5497 77.6687C73.3704 78.4894 73.2361 79.4033 73.1573 80.4107C73.612 80.0199 74.041 79.6327 74.445 79.25C74.4607 78.3998 74.5406 77.6276 74.6761 76.9362Z" fill="#FEFCEB"/>
<path d="M73.1445 84.649C73.0648 83.3732 73.0577 82.1943 73.1123 81.1129C73.5821 80.7192 74.0265 80.3285 74.4462 79.9418C74.4628 80.7288 74.5314 81.576 74.6578 82.4814C74.672 82.5833 74.687 82.686 74.7027 82.7894C74.2228 83.396 73.7041 84.0162 73.1445 84.649Z" fill="#FEFCEB"/>
<path d="M75.1349 82.2329C75.0025 81.2311 74.9439 80.3093 74.9486 79.4693C75.282 79.1494 75.5984 78.8323 75.8981 78.5186C75.9094 79.223 75.9918 79.995 76.1532 80.8299C75.8376 81.2882 75.4985 81.7561 75.1349 82.2329Z" fill="#FEFCEB"/>
<path d="M76.5604 80.2238C76.4289 79.3934 76.383 78.6397 76.4109 77.9674C76.5353 77.83 76.6565 77.6933 76.7744 77.5574C76.9488 77.3564 77.1164 77.157 77.2771 76.9591C77.1879 77.4602 77.1699 78.0176 77.2269 78.6222C77.2406 78.7675 77.2586 78.9159 77.2811 79.0671C77.0581 79.4449 76.8181 79.8306 76.5604 80.2238Z" fill="#FEFCEB"/>
<path d="M79.3372 74.3624C79.2156 74.4026 79.0981 74.4498 78.9848 74.504C79.068 74.3592 79.1471 74.2158 79.2222 74.0737C79.2833 74.0729 79.3451 74.0741 79.4078 74.0772C79.3857 74.1712 79.3622 74.2663 79.3372 74.3624Z" fill="#FEFCEB"/>
<path d="M76.4925 77.109C77.3848 76.0678 78.0807 75.0774 78.6004 74.156C78.4493 74.1956 78.3052 74.2493 78.1689 74.3161C77.3426 74.7211 76.7169 75.6506 76.4925 77.109Z" fill="#FEFCEB"/>
<path d="M79.513 73.5762L79.4733 73.5735C79.4865 73.5457 79.4995 73.518 79.5124 73.4903L79.5273 73.4968C79.5227 73.5232 79.5179 73.5496 79.513 73.5762Z" fill="#FEFCEB"/>
<path d="M78.904 73.5859C78.9485 73.4971 78.9913 73.4089 79.0324 73.3215C78.9718 73.3055 78.9115 73.2915 78.8517 73.2796C78.7487 73.4029 78.6414 73.5268 78.53 73.6511C78.652 73.6217 78.7768 73.5999 78.904 73.5859Z" fill="#FEFCEB"/>
<path d="M75.9542 77.3138C76.0242 76.7106 76.1577 76.1691 76.3491 75.6975C76.1508 75.8576 75.9454 76.0179 75.7331 76.1782C75.5894 76.2866 75.4425 76.3952 75.2923 76.5037C75.1252 77.1555 75.0134 77.9023 74.9694 78.7419C75.3032 78.4109 75.6181 78.0835 75.9147 77.7603C75.9242 77.6076 75.9374 77.4588 75.9542 77.3138Z" fill="#FEFCEB"/>
<path d="M79.8914 74.2319C79.8985 74.202 79.9055 74.1722 79.9123 74.1424L79.9283 74.1458C79.9292 74.1725 79.9301 74.1993 79.9308 74.2263L79.8914 74.2319Z" fill="#FEFCEB"/>
<path d="M78.7699 75.2296C78.8894 75.1358 79.0191 75.0534 79.1587 74.9832C78.8419 75.9926 78.3671 77.106 77.7108 78.31C77.627 76.8367 78.0458 75.7975 78.7699 75.2296Z" fill="#FEFCEB"/>
<path d="M75.6519 86.993C75.2846 85.7382 75.0084 84.5601 74.8134 83.4614C74.3137 84.0791 73.7748 84.7098 73.1951 85.3524C73.3096 86.7633 73.5106 88.2866 73.8116 89.9217C74.4881 88.9137 75.1002 87.937 75.6519 86.993Z" fill="#FEFCEB"/>
<path d="M77.9947 72.2392C77.162 72.8774 76.1402 73.5063 74.9179 74.101C75.7178 72.8512 76.6707 72.2528 77.5934 72.2187C77.7261 72.2138 77.8601 72.2206 77.9947 72.2392Z" fill="#FEFCEB"/>
<path d="M66.5019 85.7666C66.0951 87.6305 65.7484 89.6665 65.4782 91.8813C63.7836 93.253 61.9124 94.656 59.8516 96.0819C60.5457 93.1995 61.3085 90.5765 62.1183 88.1981C63.6948 87.3902 65.1542 86.5778 66.5019 85.7666Z" fill="#FEFCEB"/>
<path d="M66.656 85.0808C65.3377 85.8879 63.907 86.6977 62.3583 87.5043C63.0885 85.426 63.8546 83.5411 64.6412 81.8394C65.8069 81.4228 66.9026 80.9927 67.9306 80.5527C67.4663 81.9249 67.0374 83.4326 66.656 85.0808Z" fill="#FEFCEB"/>
<path d="M68.1566 79.9029C67.1554 80.3423 66.0861 80.7727 64.9463 81.1905C65.653 79.7135 66.3744 78.3814 67.0997 77.1868C67.9502 77.0068 68.7598 76.8118 69.5295 76.6036C69.0503 77.5939 68.5896 78.6925 68.1566 79.9029Z" fill="#FEFCEB"/>
<path d="M64.2715 81.4335C64.9768 79.9231 65.6988 78.5557 66.4271 77.3242C65.329 77.5408 64.1657 77.7327 62.9361 77.8957C61.8253 79.3836 60.6971 81.0509 59.5638 82.9104C61.2464 82.4435 62.8142 81.9488 64.2715 81.4335Z" fill="#FEFCEB"/>
<path d="M69.8336 75.9942C69.0866 76.2053 68.2992 76.404 67.4707 76.5882C68.1678 75.4865 68.8668 74.5103 69.5582 73.653C70.1697 73.6106 70.7588 73.5558 71.3257 73.4896C70.8766 74.1361 70.4341 74.8618 70.0042 75.6686C69.9471 75.7757 69.8902 75.8842 69.8336 75.9942Z" fill="#FEFCEB"/>
<path d="M66.7818 76.736C67.4797 75.601 68.1819 74.5891 68.8793 73.6945C68.0859 73.7364 67.2566 73.758 66.3912 73.7571C65.4063 74.8001 64.3951 75.9862 63.3674 77.3257C64.5722 77.1558 65.7098 76.9579 66.7818 76.736Z" fill="#FEFCEB"/>
<path d="M62.1753 73.5894C63.4096 73.6829 64.5856 73.7357 65.7036 73.7518C64.709 74.83 63.6909 76.0499 62.6589 77.4213C61.1284 77.6189 59.4935 77.7718 57.7514 77.8722C59.276 76.2556 60.7539 74.8333 62.1753 73.5894Z" fill="#FEFCEB"/>
<path d="M57.2526 78.4063C59.0203 78.3162 60.6822 78.1728 62.2411 77.9838C61.1233 79.5083 59.9908 81.2108 58.8555 83.1035C56.7495 83.6674 54.4694 84.1881 52.0068 84.6525C53.8022 82.3161 55.5553 80.2413 57.2526 78.4063Z" fill="#FEFCEB"/>
<path d="M61.4749 73.5324C60.0406 74.8098 58.553 76.2642 57.0216 77.9108C54.795 78.0185 52.3983 78.0415 49.8258 77.9639C52.0622 76.0267 54.2042 74.3411 56.2429 72.8825C58.0879 73.1763 59.8314 73.3899 61.4749 73.5324Z" fill="#FEFCEB"/>
<path d="M63.9782 82.0723C62.4913 82.5855 60.8949 83.0767 59.1848 83.5392C57.8982 85.6972 56.6068 88.1044 55.3286 90.7794C57.6408 89.8132 59.7628 88.8299 61.7055 87.8405C62.4303 85.7302 63.1928 83.8108 63.9782 82.0723Z" fill="#FEFCEB"/>
</svg>
